<?xml version="1.0" encoding="utf-8"?>
<!-- Generator: Adobe Illustrator 23.0.1, SVG Export Plug-In . SVG Version: 6.00 Build 0)  -->
<svg version="1.1" id="CompuClinic_x5F_Logo_xA0_Image_1_"
	 xmlns="http://www.w3.org/2000/svg" xmlns:xlink="http://www.w3.org/1999/xlink" x="0px" y="0px" viewBox="0 0 1609.7 1233.6"
	 style="enable-background:new 0 0 1609.7 1233.6;" xml:space="preserve">
<style type="text/css">
	.st0{fill:#FCFCFC;}
	.st1{fill:#0047FE;}
	.st2{fill:#0C9C0C;}
	.st3{fill:#095CFE;}
	.st4{fill:#0552FE;}
	.st5{fill:#0757FE;}
	.st6{fill:#054FFE;}
	.st7{fill:#0F9D0F;}
	.st8{fill:#0D9D0D;}
	.st9{fill:#1FA41F;}
	.st10{fill:#17A017;}
	.st11{fill:#2360FE;}
	.st12{fill:#18A118;}
	.st13{fill:#1858FE;}
	.st14{fill:#1757FE;}
	.st15{fill:#3E73FE;}
	.st16{fill:#4276FE;}
	.st17{fill:#0B4FFE;}
	.st18{fill:#2B65FE;}
	.st19{fill:#31AB31;}
	.st20{fill:#25A625;}
	.st21{fill:#28A728;}
	.st22{fill:#3FB13F;}
	.st23{fill:#56BA56;}
	.st24{fill:#1253FE;}
	.st25{fill:#58BB58;}
	.st26{fill:#2561FE;}
	.st27{fill:#0D50FE;}
	.st28{fill:#2F69FE;}
	.st29{fill:#1D5CFE;}
	.st30{fill:#4C7EFE;}
	.st31{fill:#15A015;}
	.st32{fill:#0F51FE;}
	.st33{fill:#3069FE;}
	.st34{fill:#1F5DFE;}
	.st35{fill:#24A624;}
	.st36{fill:#4377FE;}
	.st37{fill:#3B71FE;}
	.st38{fill:#2662FE;}
	.st39{fill:#44B244;}
	.st40{fill:#149F14;}
	.st41{fill:#42B242;}
	.st42{fill:#1354FE;}
	.st43{fill:#26A626;}
	.st44{fill:#1A5AFE;}
	.st45{fill:#40B140;}
	.st46{fill:#45B345;}
	.st47{fill:#2BA82B;}
	.st48{fill:#356DFE;}
	.st49{fill:#2B66FE;}
	.st50{fill:#16A016;}
	.st51{fill:#33AC33;}
	.st52{fill:#0C4FFE;}
	.st53{fill:#4A7CFE;}
	.st54{fill:#5584FE;}
	.st55{fill:#2F68FE;}
	.st56{fill:#4E7EFE;}
	.st57{fill:#20A420;}
	.st58{fill:#51B851;}
	.st59{fill:#29A829;}
	.st60{fill:#336BFE;}
	.st61{fill:#4578FE;}
	.st62{fill:#2E68FE;}
	.st63{fill:#0A4EFE;}
	.st64{fill:#225FFE;}
	.st65{fill:#54B954;}
	.st66{fill:#2CA92C;}
	.st67{fill:#5483FE;}
	.st68{fill:#0E50FE;}
	.st69{fill:#5CBC5C;}
	.st70{fill:#3C72FE;}
	.st71{fill:#39AE39;}
	.st72{fill:#4679FE;}
	.st73{fill:#58BA58;}
	.st74{fill:#43B243;}
	.st75{fill:#44B344;}
	.st76{fill:#2D67FE;}
	.st77{fill:#FEFEFE;}
	.st78{fill:#0654FE;}
	.st79{fill:#0756FE;}
	.st80{fill:#0450FE;}
	.st81{fill:#0651FE;}
	.st82{fill:#FDFDFE;}
	.st83{fill:#1A59FE;}
	.st84{fill:#1153FE;}
	.st85{fill:#4175FE;}
	.st86{fill:#346CFE;}
	.st87{fill:#0149FE;}
	.st88{fill:#0553FE;}
	.st89{fill:#0859FE;}
	.st90{fill:#0D9E12;}
	.st91{fill:#0A5DFE;}
	.st92{fill:#0FA017;}
	.st93{fill:#095BFE;}
	.st94{fill:#044FFE;}
	.st95{fill:#0451FE;}
	.st96{fill:#2E67FE;}
	.st97{fill:#487BFE;}
	.st98{fill:#0550FE;}
	.st99{fill:#0551FE;}
	.st100{fill:#125FFD;}
	.st101{fill:#0F53FE;}
	.st102{fill:#095AFE;}
	.st103{fill:#0858FE;}
	.st104{fill:#0F9F13;}
	.st105{fill:#25A729;}
	.st106{fill:#3AAF3D;}
	.st107{fill:#29A92D;}
	.st108{fill:#14A118;}
	.st109{fill:#17A21A;}
	.st110{fill:#2463FE;}
	.st111{fill:#5283FE;}
	.st112{fill:#3F75FE;}
	.st113{fill:#23A627;}
	.st114{fill:#3CB040;}
	.st115{fill:#316CFE;}
	.st116{fill:#54BA57;}
	.st117{fill:#4FB852;}
	.st118{fill:#30AC33;}
	.st119{fill:#58BC5B;}
	.st120{fill:#5CBD5E;}
	.st121{fill:#57BB5A;}
	.st122{fill:#60BE62;}
</style>
<g>
	<g>
		<path class="st0" d="M805.8,1235.3c-267,0-534,0-801,0.1c-3.7,0-4.6-0.8-4.6-4.6c0.1-408.7,0.1-817.3,0-1226
			c0-3.7,0.8-4.6,4.6-4.6c534,0.1,1068,0.1,1602,0c3.7,0,4.6,0.8,4.6,4.6c-0.1,408.7-0.1,817.3,0,1226c0,3.7-0.8,4.6-4.6,4.6
			C1339.8,1235.3,1072.8,1235.3,805.8,1235.3z"/>
		<path class="st1" d="M1097.4,705.3c-6.9,21.9-16.5,42.7-28,62.4c-22.1,37.8-50.3,70.6-84.9,97.6c-22.5,17.5-46.7,32-72.8,43.7
			c-44.9,20.1-92.1,29-141.1,28.9c-29.1,0-57.5-5.1-85.7-12.1c-22.4-5.5-42.9-14.7-63.5-24.4c-12.7-5.9-24.3-13.5-36-21
			c-13.4-8.5-25.2-18.9-37.4-28.9c-11.4-9.3-21.7-19.8-30.9-31c-10.7-13-21.7-25.9-30.2-40.8c-6.4-11.2-14.1-21.9-19.2-33.7
			c-6.1-14-12.5-27.8-17.1-42.5c-15.5-49.1-20.6-99.2-13.8-150.3c3.3-24.9,7.8-49.6,17.6-73c6.9-16.5,13.1-33.4,22.3-48.9
			c17.9-30.4,38.5-58.5,64.8-82.3c6.4-3.1,11.4-8.1,16.6-12.6c7.1-6.1,14.8-11.2,22.6-16.3c9.3-6.1,18.2-13,28.2-17.9
			c20.7-10.2,41.2-21.2,63.7-27.3c23.1-6.2,46.4-11.9,70.3-14.1c16.4-1.5,32.9-1.7,49.4-0.9c25.5,1.4,50.5,6,74.9,13.1
			c1.3,0.4,2.6,0.6,3.9,0.8c0.5,0.1,1,0.2,1.5,0.4c1.7,0.7,3.4,0.5,5.2,0.7c17.6,5.6,34.3,13.4,50.7,21.8c2.4,1.2,4.8,2.3,7.1,3.5
			c14.1,7.6,26.9,17.1,40.2,25.9c8.6,5.8,16.2,13.2,24.1,20c17.3,14.8,31.7,32.2,45.5,50.1c12.2,15.8,23,32.7,31.5,50.6
			c9.8,20.5,19,41.4,24.8,63.6c1,3.9,1.7,7.8,2.1,11.8c1.2,10.6,3.8,20.9,5.3,31.4c1.2,8.6,2.3,17.1,2.6,25.7
			c1.1,31.2-0.1,62.1-7.1,92.8C1102,683.4,1099.6,694.4,1097.4,705.3z"/>
		<path class="st1" d="M424.4,388.3c-0.2,3.9-2,5.6-6.2,5.7c-7.4,0.2-12.5,4.8-16.9,10.3c-2.2,2.1-6.2,2.8-6.4,6.5
			c-0.2,5.4-1.3,10.8,1.4,16.1c3.2,6.1,8,10,14.2,12.5c6.7,3.4,13.5,2.7,20.1,0c5.8-2.4,7.5-7.4,7.5-13.2c3.8-5.4,3.8-11.6,3-17.7
			c-0.6-5.1-4.5-8-8.5-10.4c-2.7-1.6-2.8-3.2-1.4-5.6c3.5-5.9,4.8-13.1,9.8-18.2c1.4,0.2,2.3,1.1,3.3,2c5.6,5.7,11.5,11,15.4,18.2
			c4.2,7.9,4.1,16.4,3.6,24.9c-0.3,5.8-1.5,11.5-1.1,17.3c-10.2,21.9-39.4,37.1-65,23.2c-22.9-12.5-30.3-38.4-22.4-59.7
			c2.1-5.6,4.2-11.2,8.2-15.8c4.6-1.5,8.3-4.5,12.3-7c7.8-4.7,16.5-7.5,25.9-7.3c4.5,0.1,5.5,1.9,3.7,6.2
			C423.5,380.2,421.4,384.1,424.4,388.3z"/>
		<path class="st1" d="M604.2,274c-6.5,3.2-12.9,6.7-18.6,11.3c-1.9,1.5-3.1,1.1-4.3-0.9c-5.8-9.8-13.3-18.6-18-29.1
			c-2-4.5-4.8-4.6-8.8-0.9c-5.1,1-6,2.5-4,7.4c2.5,6,6.3,11.3,10.1,16.5c3.3,4.6,4.9,10.7,11,12.9c0.7,0.3,1.1,1.2,0.7,2.1
			c-5.5,4.3-11.7,7.4-17.6,11c-1.4,0.8-2.2,0.9-3.2-0.6c-4.4-6.4-9.1-12.6-12.2-19.9c-1.3-3-3.2-5.8-5.4-8.4
			c-9-11.1-9.1-24.5-0.3-35.1c8.4-2.4,16.4-6.4,25.5-5.5c5,0.5,4.8-3.4,5.1-6.7c0.5-3.9,2.6-7,5.1-9.9c5.7-1.6,11.2-4.2,17-5.1
			c13.7-2.1,19.9,3.2,27.1,15.4c3.7,6.3,7.5,12.5,11.2,18.8c1.2,2,2.9,3.1,4.9,3.9c1.8,0.7,4,1.2,3.7,3.9
			c-5.9,3.7-11.8,7.4-17.6,11.3c-2.1,1.4-3,1.2-4.4-1.1c-5.9-9.6-12.1-19-18.3-28.5c-2-3-4.2-5.6-7.7-1.6
			c-5.6,5.3-2.4,10.1,1.1,14.7c2.2,3,3.2,6.5,5.2,9.6c3,4.8,5.6,9.8,11.3,12.1C603.8,272,604.5,272.8,604.2,274z"/>
		<path class="st2" d="M934.3,204.3c0.4,2.6,0.8,4.5-3.3,3.3c-7.1-2.1-14.5-3.6-21.8-5.3c-2.1-0.5-3.6-1.1-3.7-3.7
			c-0.6-9-6.2-13.9-14.4-16.3c-8.5-2.5-15.3,0.2-21,6.6c-1,1.1-1.9,2.3-2.8,3.5c-9.2,5.2-10.2,17.4-2,26.5
			c7.2,8.1,23.7,10.7,33.2,5.3c2-1.1,3-3,4.2-4.8c1.8-2.7,4.2-3.5,7.3-2.7c5.6,1.6,10.9,4,16.6,5.5c1.4,0.4,2.9,1.2,1.8,3.2
			c-7.2,10.7-16.2,19.5-29.1,21.8c-20.6,3.8-38-2.7-51.7-18.6c-12.3-14.3-13.5-30-6.3-47c1.4-3.3,3.3-6.1,6-8.4
			c3.9-0.8,7.2-3,10.7-4.9c17.4-9.3,34.7-9.8,51.9,1c10.1,6.3,17.2,14.5,19.3,26.5C929.8,199.3,933.1,201.2,934.3,204.3z"/>
		<path class="st1" d="M686.2,264.3c-0.1,1.3-1.3,1.4-2.2,1.7c-6.6,1.7-13.2,3.3-19.8,5.1c-2.1,0.6-2.9-0.1-3.4-2.1
			c-4.7-18.2-9.7-36.2-14-54.5c-2.1-8.8-0.7-17.5,4.8-25.2c6.8-1.5,11.9-6.4,18.1-9c6.8-2.8,14-2.7,21.2-2.3
			c10.5,2.6,19,7.4,21.8,18.9c1.8,8.1,0.2,16.6,2.7,24.6c-5.8,11.4-15.4,17.3-27.8,19.3c-1.9,0.3-2.2-0.5-2.6-2
			c-1.6-6.4-3.3-12.9-4.9-19.3c-0.2-0.4-0.2-0.9,0-1.3c1.8-1.3,3.5-0.3,5.1,0.4c1.9,0.9,3.6,1.7,5.4-0.1c1.5-1.4,1.5-3.1,0.9-4.9
			c-0.3-0.8-0.5-1.6-0.1-2.4c2.5-6.8,1.9-9.5-2.7-12.5c-5.1-3.2-9.9-2.1-15.4,3.5c-5,3.8-5,8.8-3.5,14.3
			c3.7,12.7,6.7,25.7,10.1,38.5c0.5,1.8,1.6,3.3,3.1,4.4C684.7,260.7,685.7,262.3,686.2,264.3z"/>
		<path class="st1" d="M522.3,339c-7.1,17.3-29.3,27-46.5,19.9c-16-6.5-24.1-22.9-18.9-41c1.3-4.6,3.3-9,6.4-12.7
			c7.2-1.7,13.1-6.8,20.3-8.5c0.5-0.2,0.9-0.3,1.4-0.4c1.7-0.3,3.4-0.5,5.1-1c10.4-0.3,20,1.3,26.3,10.9
			C522.2,316.4,521.7,327.8,522.3,339z"/>
		<path class="st2" d="M1067.3,326.1c1.1-3,0-5.3-2.6-6.7c-2.6-1.5-4.7,0-6.7,1.7c-8.5,7.2-17,14.3-25.4,21.6
			c-1.7,1.5-2.4,2.2-4.3-0.4c-4.4-6.2-9.7-11.8-14.7-17.7c0.8-1.2,2.2-2.3,3.8-3.2c5.1-0.1,8.1-3.6,11.5-6.8
			c6.6-6.2,12.8-13.1,22.3-15c5.2-1,10.5-0.5,15.8-0.4c0.5,0,1,0.2,1.5,0.3c9.4,2.2,14.2,9.4,17.7,17.4c2.5,5.9,3.2,12.4,5.2,18.5
			c-2.3,8.1-8.8,12.9-14.8,18.1c-7.4,6.4-14.9,12.7-22.4,19.1c-5.8-6.9-11.5-13.6-17.4-20.6c1.7-1,3.1-1.9,4.5-2.7
			c0.2,0,0.5,0,0.7,0c4.5,1.5,8-0.1,10.9-3.6c2.4-2.9,5.6-5.2,8.6-7.5C1065.6,335,1068.8,331.8,1067.3,326.1z"/>
		<path class="st1" d="M782.3,204.1c1.8-9.9,0.7-19.9,1.1-29.9c0.1-2,0.1-4,0.2-6c0.5-0.9,0.1-2.6,2-2.2c3.8,2.9,8,4.2,13,4
			c5.1-0.2,6.1,1,6.3,6.1c0.2,6,0,12,0,18c0,6.5-0.4,12.9,1.6,19.2c-5.3,14.8-28.2,21.2-43.6,14.3c-12-5.4-16.7-15.3-17.1-27.5
			c-0.3-11.8,0.3-23.6,0.6-35.4c0-0.7,0.2-1.3,1-1.4c4.4,3.1,9,5.1,14.7,4.7c4.6-0.3,6.5,2.2,6.6,7.5c0.2,8.1,0,16.3,0.1,24.4
			c0,1.6-0.2,3.3,0.6,4.9c1.4,3.1,3.8,5.2,7.1,5.5C780.8,210.8,780.9,206.8,782.3,204.1z"/>
		<path class="st2" d="M1160.5,474.4c-3,5.2-7.2,9.3-12.4,13.2c-3-8.1-6-16-8.9-23.8c-0.5-1.2,0-2.2,0.3-3.3
			c2.1-6.5,0.7-10.7-4.4-13.7c-4.5-2.7-8.3-1.6-12.9,3.5c-0.3,0.4-0.7,0.7-1,1.1c-6.2,3.6-6.9,10.6-0.5,15.7c5,4,8.3,8.6,10.4,14.6
			c1.3,3.7,5.9,4.7,8.1,7.8c0.9,2.3-0.9,2-2.1,2.2c-14,2.4-25.5-2.8-33.5-13.8c-8.9-12.3-11.4-29-2.1-43.4c2.8-3.5,7.5-3,10.9-5.3
			c3.7-2.5,8-3.7,12.4-4.5c3.9-0.7,7.5,0.6,11.3,0.7c0.5,0.1,1.1,0.2,1.6,0.4c14.2,6.7,21.2,17.9,21.1,33.7
			C1158.7,464.3,1158.1,469.5,1160.5,474.4z"/>
		<path class="st2" d="M1001.6,206.3c-4.2,8.3-9.5,15.9-14.2,24c-9.4,16.2-18.3,32.7-28.5,48.4c-1.5,2.3-2.1,2.6-4.7,1
			c-5.4-3.5-11.3-6.3-17-9.2c-2.5-1.3-2.9-2.4-1.3-4.8c6-9.6,12.2-19.1,17.5-29c7.8-14.5,16.4-28.4,25.2-42.2
			c3.7,0.7,5.7,4.2,9.2,5.4C992.6,201.5,996.7,204.7,1001.6,206.3z"/>
		<path class="st2" d="M1033.5,262.6c-10.7,16-24,29.9-35.3,45.4c-0.7,0.9-1.3,2.6-3.1,1.3c-5.1-3.9-10.1-7.9-15.4-11.6
			c-4.1-2.9-3.6-5.5-0.2-8.3c9.4-6.6,16.4-15.5,22.9-24.7c2.9-4,5.1-8.6,9-11.9c2.8-2.4,5.3-3,8.4-0.4c2.5,2.1,5.2,4.1,8.1,5.8
			c0.4,0.2,0.8,0.5,1.2,0.7C1030.3,260.5,1033.7,259.4,1033.5,262.6z"/>
		<path class="st2" d="M1133.3,383.1c-16.9,11.2-35.3,19.7-52.7,29.9c-1.1,0.7-2.1,1.9-3.4-0.6c-3.2-6.2-7-12-10.4-18
			c-0.8-1.4-2.8-3.2,0.6-4c0.3-0.2,0.6-0.5,0.8-0.4c6.6,1.9,11.4-2.1,16.4-5c9.6-5.7,19.6-10.5,29.4-15.9c4.8-2.7,6.8-2.2,9.9,2.6
			c2.4,3.6,4.4,7.5,8.8,9.1C1133.7,381,1134.2,382,1133.3,383.1z"/>
		<path class="st3" d="M935.3,301.3c-9.2-4.3-18.6-8.4-27.7-12.9c-9.8-4.9-20.2-8.1-30.3-12.1c-1.5-1.2-3.5,0.2-5-1
			c-16.4-4.7-33-8.8-49.9-11.5c-22.4-3.6-45-4.3-67.6-3.2c-16.2,0.8-32.3,2.7-48.2,6.3c-2.3,0.5-4.3,0.5-5.7-1.7
			c15.6-4.4,31.6-6.3,47.6-7.6c35.5-2.8,70.5,0,105,8.8c24.8,6.3,49.1,14.1,72,25.9c26.9,13.8,52,30.2,74.5,50.4
			c9,8.1,18,16.2,26.1,25.3c14.4,16.4,27.6,33.6,38.9,52.3c3.6,6,7.7,11.6,10.8,17.9c0.8,1.6,1.8,3.2,1.8,5.1
			c-2.7,0.8-3.6-1.4-4.3-3.1c-5.8-12.3-14.5-22.9-21.5-34.6c-5.1-8.6-12.2-16.1-18.6-23.9c-15.2-18.6-32.5-35.1-51.5-49.7
			C966.9,320.7,951.8,309.9,935.3,301.3z"/>
		<path class="st4" d="M701,265.1c2.4,0.8,4.7,0.8,7.2,0.3c13.3-2.6,26.7-4.3,40.3-5.3c8.8-0.7,17.6-0.7,26.4-0.8
			c25.7-0.3,50.9,3.1,75.7,9.3c7.3,1.8,14.8,3.2,21.7,6.7c-4.9,0.1-9.4-1.6-14.1-2.9c-15.8-4.3-31.9-7.2-48.1-9.2
			c-17.4-2.2-34.8-2.6-52.2-1.7c-24.6,1.2-48.9,4.8-72.7,12.1c-9.1,2.8-18.7,4.3-27.6,7.8c-13.2,5.3-25.9,11.8-38.9,17.6
			c-9.4,4.2-17.5,10.2-26.7,14.6c-3,1.5-5.2,4.7-8.3,6.3c-14.1,7.4-25.4,18.4-37.7,28.1c-1.5,1.2-2.9,2.4-4.9,1.3
			c9.3-9,19-17.5,29.6-24.9c8-5.6,15.6-11.9,24.1-16.8c27-15.7,54.7-29.8,85.3-37.3C687.2,268.6,693.8,265.9,701,265.1z"/>
		<path class="st5" d="M935.3,301.3c7.6,1.7,13.9,6.3,19.9,10.8c5.1,3.8,10.2,7.5,15.5,10.8c9.4,5.8,17.2,13.4,25.8,20.2
			c7.1,5.6,13.1,12.2,19.6,18.5c11.4,11.2,21.2,23.7,31,36.3c5.9,7.6,10.2,16.3,15.9,24c4.3,5.9,7.8,12.2,11.6,18.3
			c0.8,1.2,1.2,2.8,3,3.1c9.2,17.7,17.7,35.8,22.8,55.1c7.4,28.2,14,56.5,14,85.9c-3.5-0.6-2.8-3.6-3-5.8
			c-1.6-19.3-4.7-38.3-9.1-57.1c-3.1-18.4-9.9-35.6-17.3-52.6c-5.9-13.3-11.2-26.9-19.1-39.3c-10.7-16.9-21.5-33.7-34.7-48.8
			c-8.1-9.2-16.1-18.6-25.1-26.9c-9.8-8.9-19.3-18.5-30.2-25.7c-12.7-8.4-24.7-17.9-38.4-24.7C936.6,302.9,936,302,935.3,301.3z"/>
		<path class="st6" d="M1102.3,521.3c3.7,8,4.3,16.8,6,25.3c2.4,11.8,3.2,23.8,5,35.6c0.1,0.9,0.4,1.6,1.2,2.1c0,0-0.1,0-0.1,0
			c0.7,8.8,0.7,17.6,0,26.4c-0.1,21.7-3.4,43.1-8.8,64.1c-2.6,10.2-3.3,21-8.3,30.6c-1.1-8.6,3.4-16.2,4.4-24.5
			c2.2-17.7,6.5-35,7.8-52.9c1.2-16.6,1.1-33.3,0.5-49.8c-0.6-17-3.5-33.8-7.2-50.5C1102.4,525.5,1102.4,523.4,1102.3,521.3z"/>
		<path class="st7" d="M1155.5,367.6c-2.2,5.8-5.6,8.2-11.1,7.7c-5.4-0.4-10.8-5.5-12-11.7c-0.8-4.1-0.9-8.3,2.8-11.4
			c3.8,0.3,7.3,2,11.1,2.6c1.1,0.2,2.5,0.7,2.9,1.8C1151,360.5,1154.1,363.6,1155.5,367.6z"/>
		<path class="st8" d="M1049.4,243.4c-4,6.4-10.5,8-17,4.2c-6.4-3.7-8.7-12-5.1-18.4c7.1,0.5,14.9-0.8,18.3,8
			C1046.5,239.5,1050.6,239.8,1049.4,243.4z"/>
		<path class="st9" d="M934.3,204.3c-5.1-3-6-8.1-7.8-13.2c-5.8-16.5-19.2-24.3-35.4-27.7c-10.8-2.3-21,0.3-30.8,4.9
			c-1.7,0.8-3.3,1.6-4.5,3c-2.4,2.6-5.3,3-8.6,1.9c2.3-3.8,5.8-6.4,9.3-8.9c16.9-7.7,33.7-7.2,50.4,0.7c2,0.9,3.7,2.3,5.7,3
			c1.4,0.6,2.7,1.4,3.8,2.5c1.4,2.1,3,4,5.3,5.3c0.6,0.4,1,1,1.5,1.5c4.4,6.2,8.2,12.8,9.1,20.6c0.2,1.4,1.1,2.4,1.9,3.4
			C934.2,202.3,934.3,203.3,934.3,204.3z"/>
		<path class="st10" d="M928.4,225.3c-0.2-0.8-0.3-1.7-1.3-1.9c-6.2-1.2-11.9-3.9-18-5.8c-2.3-0.7-4.4-0.2-5.1,1.8
			c-1.8,5.6-6.4,6.9-11.1,8c-10.7,2.6-27.5-0.7-32.4-13.8c-1.6-4.4-2.6-8.9-2.1-13.6c0.6-5.5,3.2-7.7,8.8-7.8
			c0.1,1.9-0.9,3.5-1.7,5.1c-4.5,5.1-5.3,9.1-2.2,14.9c2.9,5.4,6.8,9.9,12.9,11.8c2.8,0.9,5.7,1.6,8.7,1.8
			c6.9,0.6,11.3-2.2,14.4-8.6c1.7-2.3,3.4-4.6,5.1-6.9c7.1,5.5,15.6,7.3,23.9,9.7c0.8,0.2,1.6,0.5,2.1,1.2
			C930.4,223,929.8,224.4,928.4,225.3z"/>
		<path class="st11" d="M782.3,204.1c0.2,6.1-1.1,8-5.4,8c-4.4,0.1-9.4-4.9-9.5-9.9c-0.1-8.3,0-16.6,0-25c0-7.6-0.4-8.3-7.8-7.9
			c-5.4,0.3-9.4-1.5-12.2-6c0.7-0.1,1.3-0.1,2-0.2c3.5,2.1,7.2,2.9,11.3,2.8c4.6-0.2,8.7,1.5,12.1,4.6c0,2,0.4,4-0.3,5.9
			c-0.1,7.6-0.2,15.2-0.3,22.8c-1.4,2.6-1.1,5.1,1,7.2c2,1.8,4.1,1.6,6.1-0.2C780.3,205.5,781.3,204.8,782.3,204.1z"/>
		<path class="st12" d="M1028.3,259.3c-3.9-0.9-6.6-3.8-9.5-6.2c-2.6-2.1-4.1-1.7-6.3,0.3c-3.2,2.8-5.6,6-7.5,9.7
			c-3.9,7.2-9.7,12.9-15.4,18.6c-1.7,1.7-2.5,4.2-4.7,5.7c-1.7,1.2-3.3,2.1-5.4,1.9c1.5-4.8,5.1-8.1,8.3-11.6
			c6.3-7.1,12.3-14.2,17.4-22.2c1.9-3,4.9-5.4,7.3-8.1c5.9,1.3,10.5,4.8,14.8,8.9C1028.2,257,1028.9,258,1028.3,259.3z"/>
		<path class="st13" d="M711.3,196.3c-2.9-10.1-10.8-14.4-20-17c-10.4-1.7-20.1-0.1-29.2,5.3c-2.4,1.5-4.4,2.5-6.3-0.5
			c1.7-2.4,4.2-4,6.4-5.8c14.3-4.5,28.3-5.3,41.7,2.8c4.2,2.1,7,5.5,9,9.7c1.7,3.6,3.5,7.1,5.4,10.6c1.4,2.6,1.7,5.3,1,8.2
			c0,2.8-0.6,5.5-2.1,7.8c-2.9-2.6-3.9-6.1-3.9-9.7C713.4,203.7,712.6,200,711.3,196.3z"/>
		<path class="st14" d="M633.3,255.2c-0.3-0.4-0.5-1-0.9-1.2c-11.6-4-14-15.4-19.7-24.2c-5-7.7-9.6-15.3-20.4-15.8
			c-4.7-0.2-8.8,0.9-12.9,2.5c-3.3,1.3-6.6,2-10.1,1.8c1.4-2.6,3.5-4.5,6-6c10.8-2.9,21.3-3,30.9,4c6.2,4.3,9,11.2,13,17.3
			c2.4,3.7,4.8,7.5,7.1,11.3c1.7,3,4,5.2,7.4,6.2C635.6,252.6,636.5,254.1,633.3,255.2z"/>
		<path class="st15" d="M719.5,209.5c-2.6-10.4-6.9-19.9-15.1-27.2c-8.8-6.2-18.7-7.3-29-6.3c-1.8,0.2-3.6,0.8-5.2-0.8
			c12.2-5.3,24.1-3.1,35.3,2.6C714.4,182.3,722.9,201.1,719.5,209.5z"/>
		<path class="st16" d="M633.6,251.1c-3.3,0.8-5.4-0.8-7-3.4c-4.5-7.3-9.2-14.5-13.4-22c-1.8-3.3-5-5.3-6.8-8.4
			c-5-4.4-11.1-6.3-17.6-7c-1.8-0.2-3.6-0.3-4.7-2.1c0.9-1,2-0.9,3.2-0.9c11.5-1.3,19.7,4.2,26.1,13
			C621.1,229.9,626.9,240.9,633.6,251.1z"/>
		<path class="st17" d="M424.4,388.3c-4.2-2.9-4.4-5.4-1-11.6c2.8-5.2,2.7-5.8-3.1-5.3c-10.2,0.8-20.1,2.7-27.8,10.3
			c-2.7,2.7-5.9,2.8-9.2,2.6c1.4-2.8,3.4-5.1,5.8-7.1c9.5-3.9,18.9-8.1,29.4-8.6c3-0.1,6,0.2,8.9,0.7c1.9,0.3,4,1.1,3,4
			C428.4,378.3,426.4,383.3,424.4,388.3z"/>
		<path class="st18" d="M672.5,207.2c4,15.4,8,30.8,12,46.2c0.6,2.3,1.1,4.5,1,6.9c-3.1,0.5-4.5-1.4-5.3-4
			c-3.8-13.7-7.4-27.4-10.7-41.3C668.8,212.2,667.3,208.1,672.5,207.2z"/>
		<path class="st19" d="M1132.6,377.1c0.6,1,1.2,2.1,1.7,3.1c-4.4,1.2-6.9-1.6-8.6-4.8c-6.4-12.2-8.2-9.3-16.1-4.5
			c-10.7,6.4-22.2,11.1-32.5,18.3c-2.6,1.8-5.3,1.5-8,0c16.1-10.4,33.4-18.7,50-28.1c3.5,3,6.8,6.3,8.4,10.7
			C1128.6,374.3,1130.3,376,1132.6,377.1z"/>
		<path class="st20" d="M1069.3,389.3c7.9,1.4,12.5-5.2,18.5-8.1c9.3-4.5,18.3-9.9,27.5-14.8c3.4-1.8,6.5-0.2,8.9,4.5
			c2.3,4.5,4.1,9.3,10.3,9.4c2,1.8,0.3,2.2-1.1,2.8c-5.3-3.2-8.9-7.8-11.9-13.1c-1.2-2.2-3.4-2-5.6-0.7
			c-12.8,7.4-26.5,13.5-38.9,21.7c-3.5,2.3-6.3-1.2-9.5-0.7C1068,390,1068.6,389.6,1069.3,389.3z"/>
		<path class="st21" d="M1067.3,300.3c-5.1,0.1-10.3-0.2-15.4,0.4c-8.3,0.9-13.5,7.2-19.5,12.1c-2.2,1.8-4.2,3.8-6,6
			c-2.5,3.1-5.4,4.3-9.1,2.5c8.8-7.2,15.8-16.5,26-22c6.8-2,13.7-3.6,20.9-1.4C1065.6,298.3,1067.3,298.2,1067.3,300.3z"/>
		<path class="st22" d="M913.3,169.3c-0.8-0.1-1.8,0-2.4-0.4c-15.8-9.9-32.6-10.6-50-5.4c-1.4,0.4-2.9,0.5-4.4,0.8
			c5.9-5.3,13-7.3,20.7-8.1c11.9-0.6,23,1.7,33,8.5C911.8,165.8,913.7,166.9,913.3,169.3z"/>
		<path class="st23" d="M1051.2,295.2c7.3-3.7,14.7-2.6,21.5,0.6c11.6,5.3,19.3,14.2,20.5,27.5c-3.6-2.1-4.8-6-7.2-9
			c-4.1-5.3-7.6-11.2-14.3-13.8c-5.2-2.3-10.6-3.7-16.4-3.9C1053.8,296.6,1052.3,296.6,1051.2,295.2z"/>
		<path class="st24" d="M806.4,213.4c-2.6-2.6-3.2-5.8-3.1-9.5c0.2-9.4,0-18.9,0.1-28.4c0.1-3.2-1-4.7-4.3-4.2
			c-5.7,0.7-10.8-0.4-14.8-5c0.1-2,1.5-1.4,2.6-1.2c2.9,2.7,6.4,2.9,10.2,2.9c8.6,0,10.6,2.1,10.6,10.5c0,10.4,0,20.8-0.3,31.2
			C807.5,211,807.7,212.4,806.4,213.4z"/>
		<path class="st11" d="M672.5,207.2c-3.5,2-2.5,5.4-1.9,8c3.4,13.8,7.2,27.5,10.7,41.3c0.6,2.4,2.4,2.9,4.2,3.8
			c0.8,1.2,0.9,2.6,0.7,4c-9-6.6-9.6-17-12-26.7c-2-8.2-4.4-16.3-6.4-24.5c-1.5-6.1-0.2-8.4,5.4-10.8
			C673,203.9,672.7,205.6,672.5,207.2z"/>
		<path class="st25" d="M913.3,169.3c-7.1-8-16.9-10.1-26.8-12c-3-0.6-6.2-0.7-9.3-1.1c8.6-2.3,16.8-0.2,24.8,2.5
			c10.4,3.6,18.8,10.3,25.7,18.8c1.3,1.6,2.8,3.3,2.6,5.7c-2.1,0.7-2.9-1.1-3.9-2.3c-1.6-1.8-2.8-4.1-5.2-5.2
			c-2.4-0.7-3.5-2.8-5-4.5C915.3,170.7,914.3,170,913.3,169.3z"/>
		<path class="st26" d="M468.3,299.3c3.9-3.9,8.4-6.8,13.9-8.1c12.6-2.4,23.8,0.4,33.2,9.3c0.5,0.7,0.6,1.5,0.3,2.4
			c-0.3,0.6-0.7,0.8-1.3,0.6c-10.4-8.3-21.9-9.8-34.3-5.3C476.3,298.9,472.6,302.3,468.3,299.3z"/>
		<path class="st21" d="M1072.4,300.3c7,0.5,9,7.2,13.1,11.1c3.3,3.2,5.2,7.9,7.7,11.9c0.4,4.1,0.3,8.2-1.8,12
			c-3.8-3.6-3.6-8.7-4.8-13.2c-2.7-10.2-7.9-18-18.2-21.7C1069.7,299.2,1071,299.6,1072.4,300.3z"/>
		<path class="st27" d="M462.5,436.6c-2.4-4.5-1.2-9.1-0.5-13.9c1.9-14.6,0.1-28.2-11.4-38.8c-2.5-2.4-4.8-5.1-7.2-7.6
			c1.6-1.1,2.8-0.2,4,0.8c13.1,10.8,19.6,24.7,19.3,41.6c0,2.1,0.4,4.2-0.3,6.3C465.2,428.9,465.5,433.3,462.5,436.6z"/>
		<path class="st28" d="M604.2,274c-12.8-5.5-15.2-19.2-22.4-29c-3.2-4.4-0.7-7.5,3.5-9.7c0,1.7,0,3.3,0.1,5
			c3.5,11,9.6,20.4,17.3,28.9C603.5,270.7,606.2,271.6,604.2,274z"/>
		<path class="st29" d="M466.3,424.9c-1.7-5.8-0.7-11.8-1.9-17.7c-2.7-13.3-9.4-23.8-21-31c-1-0.4-1.7-1.1-2-2.1
			c0-0.3,0.1-0.6,0.2-0.9c0.9-1.9,2-1,3.2-0.2c11.5,8.1,19.9,18.2,22.8,32.3c0.6,2.7,2,5.3,1,8.1
			C468.5,417.5,468.3,421.4,466.3,424.9z"/>
		<path class="st30" d="M515.3,301.3c-9.7-7.9-20.9-10.7-33.1-10.1c16.9-6.6,34.4,1.4,41.5,17c-2.7,1-3.7-1.3-5.1-2.6
			C517.3,304.4,516.7,302.5,515.3,301.3z"/>
		<path class="st31" d="M1160.5,474.4c-2.7-1.2-3.2-3.4-3.2-6.1c-0.2-6.1,0.9-12.2-0.6-18.3c-2.7-11-9.6-18.5-19.4-23.6
			c0.4-0.6,1.1-0.8,1.8-0.9c0.5,0,0.9,0.1,1.4,0.2c1.6,0.7,3.3,1.4,5,2c1.3,0.6,2.5,1.3,3.6,2.2c1.8,1.7,3.7,3.4,4.5,5.9
			c5.9,10.6,8.4,22,8.9,34C1161.8,471.3,1161.2,472.8,1160.5,474.4z"/>
		<path class="st20" d="M1139.2,489.3c-5.1-2.3-9.4-5.1-10.9-11.1c-0.8-3.4-2.6-6.4-6.3-8.3c-4.7-2.4-6.7-7.3-7.3-12.3
			c-0.5-4.6,1.3-6.1,6.4-6.3c-0.3,1.3-0.6,2.7-0.8,4c-2,3.2-1,6.4,1.2,8.6c5.3,5.5,10.3,11.1,13,18.4c0.6,1.6,2.2,2.8,3.6,4
			C1138.5,487.3,1138.8,488.3,1139.2,489.3z"/>
		<path class="st32" d="M410.3,440.3c-15.1-5.2-18.7-16.4-16.8-30.4c0.5-3.7,3.9-5.4,7.8-5.6c-0.7,2.3-1.4,4.7-2.1,7
			c-3.6,5.9-3.2,11.7,0.8,17.2c1.5,3.7,4.4,6,7.8,7.7c0.4,0.2,0.8,0.4,1.2,0.7c1,1.3,3.8,1,3.2,3.6
			C411.6,440.8,410.9,440.8,410.3,440.3z"/>
		<path class="st33" d="M399.3,429.3c-5.4-7.9-5.4-13.2-0.1-18c0.1,2.9,0.1,5.8,0.2,8.7c0.6,6.8,5.1,10.8,10.3,14.4
			c4.2,2.7,8.7,3.5,13.5,1.8c0.4-0.2,0.8-0.4,1.1-0.7c2-0.7,4-1.4,6-2.1c1.2,2.6-0.6,4.2-2.4,5.2c-4.7,2.8-9.7,4.3-14.8,1.1
			c-1.5-1-3.5-1.1-4.8-2.3l0,0C404.7,435.3,401.7,432.7,399.3,429.3z"/>
		<path class="st34" d="M430.3,373.3c-2.6-5.1-7.5-3-11.3-3.3c-8.9-0.5-16.8,3.9-25.2,6.2c-1.6,0.4-3.1,1.3-4.8,0.9
			c3.6-2.8,6.5-6.5,11.1-7.9c9.1-2.8,18.4-3.4,27.7-1.4c1.5,0.3,3.4,0.3,3.5,2.6C431.4,371.5,431.2,372.6,430.3,373.3z"/>
		<path class="st35" d="M1041.3,349.2c7.9-6.7,14.8-14.5,23.1-20.6c3,1.9,2.2,4.2,0.3,6.1c-4.6,4.5-9.6,8.4-14,13.1
			c-2.5,2.7-5.8,2.7-9.1,1.7L1041.3,349.2z"/>
		<path class="st36" d="M554.5,257c5.2,8.8,10.4,17.6,15.5,26.5c0.9,1.5,2.4,2.8,2.4,4.8c-2.8,1.9-4.6,0-5.7-1.9
			c-4.2-7.5-9.4-14.4-13.2-22.1C552.2,261.7,552.1,259.1,554.5,257z"/>
		<path class="st37" d="M468.5,413.6c-2.2-15.4-9.3-28.1-22-37.3c-1.5-1.1-2.4-3.8-5.1-2.9c0-1.9-1.1-4.9,2.9-2.9
			c7.6,6.7,15.7,12.9,20.9,21.9C467.2,399.3,470.2,406.1,468.5,413.6z"/>
		<path class="st38" d="M807.5,209.6c-1.4-10.9-1.1-21.8-1.1-32.7c0-6-1.6-7.4-8.2-7.6c-4.3-0.1-9.2,1.3-11.8-4
			c0.2-0.2,0.5-0.3,0.7-0.5c4.8,1,9.7,1.3,14.5,2.3c2.8,0.6,6.1,0.6,7.2,4.1c-0.2,8.7,0.4,17.5-0.3,26.2
			C808.5,201.6,808.9,205.7,807.5,209.6z"/>
		<path class="st39" d="M1138.1,486.3c-2.6-0.5-4.7-1.8-5.5-4.4c-1.9-6.8-6.6-11.6-11.5-16.4c-2.9-2.9-4.9-6.5-0.9-10.2
			c0.7,1.5-0.7,3.5,1.1,4.8c0.4,2.8,2.1,4.7,4.6,6.2c2.6,1.5,4.8,3.5,6.6,6C1135,476.7,1136.7,481.5,1138.1,486.3z"/>
		<path class="st40" d="M1041.5,349.5c5.1,0.1,8.6-2.1,11.6-6.2c2.5-3.4,6.1-6.1,9.6-8.6c2.6-1.8,3.3-3.5,1.7-6.2
			c0.9-0.8,1.9-1.7,2.8-2.5c3.4,4.9,1.7,8.1-3.1,11.2c-4.4,2.9-8.1,6.8-11.8,10.5C1049.1,351.2,1045.7,352.4,1041.5,349.5z"/>
		<path class="st41" d="M887.3,222.4c2.7-0.7,5.3-1.4,8-2.1c-0.2,5.1-4.4,5.3-7.8,5.8c-3.9,0.6-7.9-0.4-11.7-1.4
			c-5.2-2.3-9.2-5.9-11.9-10.8c-2.9-5.2-2.3-10.7,1.4-13.7c0.4,3,0.8,5.9,1.2,8.9C869.2,218.4,877.4,223.5,887.3,222.4z"/>
		<path class="st32" d="M572.4,293.3c-11.4-7.1-15.8-19.5-22.5-30.1c-0.8-1.2-1.3-2.7-1.5-4.1c-0.7-5.2,1-6.5,6.1-4.7
			c-0.1,0.6-0.1,1.3-0.2,1.9c-2.5,2.5-2.2,5.3-0.7,8.2c3.9,7.5,9.4,14,13,21.8c1.5,3.2,5.4,3,7.8,5
			C574.7,292.9,573.4,293,572.4,293.3z"/>
		<path class="st25" d="M1124.1,419.2c10.1-2.8,24.7,3,32.4,13c2.1,2.7,4.3,5.5,4.9,9.1c-1.8,0.6-2.8-0.7-3.6-1.8
			c-2.5-3.3-5.5-6.1-8.2-9.2c-6-5.3-13.5-7.4-20.9-9.5C1127,420.4,1125.2,420.7,1124.1,419.2z"/>
		<path class="st42" d="M522.3,339c-3-6.6-1.8-13.8-2.8-20.7c-0.7-4.4-3.2-7.9-4.1-12c-0.5-0.5-0.4-0.9,0.2-1.2
			c2.9,0.3,3.5,2.8,4.5,4.7c3.2,6.5,5,13.4,5.4,20.7C525.2,333.7,524.3,336.5,522.3,339z"/>
		<path class="st43" d="M1162.5,469.7c-2.7-4.2-2.4-9.1-3-13.7c-0.8-5.9-3.1-11-5.5-16.2c-0.7-1.5-1.9-2.7-1.6-4.5
			c0.7-0.2,1.4-0.1,1.8,0.5c5.7,7.7,11.1,15.6,10.4,25.9C1164.5,464.5,1164,467.2,1162.5,469.7z"/>
		<path class="st44" d="M564.3,228.2c2,5.8,0.5,8.2-5.5,8.1c-6.9-0.1-13.5,0.4-19.4,4.4c-2,1.4-3.8-0.8-5.7-0.3
			c1.3-2.3,3.2-3.9,5.5-5.1c5.3-2.4,10.9-2.4,16.5-2.3c3,0.1,5.6-0.4,7.6-2.8C563.6,229.5,563.9,228.8,564.3,228.2z"/>
		<path class="st45" d="M1164.5,461.6c-1.5-10-6-18.5-12.1-26.4c-1.3-1.7-2.7-3.3-4-5c0.7-0.6,1.4-0.6,2.1,0c4.5,2.8,7,7.7,11,11
			C1164.4,447.8,1166.4,454.4,1164.5,461.6z"/>
		<path class="st46" d="M930.4,221.3c-8.1-0.5-15.3-4-22.7-6.8c-2.1-0.8-2-2.9-3.2-4.2c0.2-2.7,1.7-1.5,2.9-0.9
			c7.2,3.9,15,6.2,23,7.8C932.4,218.6,931.2,220,930.4,221.3z"/>
		<path class="st47" d="M1155.5,367.6c-2.8-2.4-5.5-4.7-6.2-8.6c-0.6-3.2-3.6-3.4-5.9-3.5c-3.2-0.1-5.7-1.5-8.2-3.2
			c1.1-1.9,3-2,4.9-2.1c7.5-0.1,11.6,5.3,15.9,10.1C1156.5,362.8,1157,365.3,1155.5,367.6z"/>
		<path class="st48" d="M431.4,370.4c-7.2-3.4-14.9-2.3-22.3-1.7c-2.9,0.2-5.9,0.5-8.9,0.5c3-2.2,6.4-3.5,10.1-4
			c5.7-0.8,11.5-1.8,17.2,0c2,0.6,3.9-1.1,5.8,0.1C433.1,367.2,432.6,368.9,431.4,370.4z"/>
		<path class="st49" d="M574.5,291.2c-5.7-0.7-8.9-3.8-11.2-9.1c-2.3-5.2-6-9.8-9.1-14.7c-1.6-2.5-3-5.1-2.8-8.3c0.1-2.2,1-3,3-2.9
			c0.2,0.2,0.3,0.5,0.2,0.7c-2,5.3,1.2,9,3.7,13c3.1,5,6.1,10,9.1,15.1c1.2,2,2.6,3.4,5.1,3.1C573.1,289.3,573.8,290.3,574.5,291.2z
			"/>
		<path class="st50" d="M1136.4,426.3c-9.2-1.8-17.6-0.1-25.6,4.9c-2.7,1.7-6.2,2.1-9.3,3.1c0.4-3.2,2.3-5.3,4.7-7.1
			c7.2-2.6,14.6-4,22.3-4.2C1131.3,423,1134.8,422.6,1136.4,426.3z"/>
		<path class="st51" d="M1136.4,426.3c-6.6-3.8-13.4-1.3-20-0.4c-3.4,0.5-6.6,1.9-10.2,1.3c3.5-2.4,6.9-5,11.1-6
			c6.5-0.4,13-1,19.1,1.7c1.4,0.6,4.1,0.3,3,3.4c-0.7,0-1.4,0.1-2,0.1C1137,426.3,1136.7,426.3,1136.4,426.3z"/>
		<path class="st52" d="M410.3,440.3c0.7,0,1.3,0,2,0c0.5-0.5,1.2-0.6,1.8-0.5c10.9,2,16-0.5,21.2-10.4c1-1.1,1.9-2.2,2.9-3.3
			c1.9,7.1,0.2,11.6-7.1,14.5C424.4,443.3,417.2,444.7,410.3,440.3z"/>
		<path class="st46" d="M1139.4,426.3c-2.9-4.1-7.5-3.3-11.5-4c-3.5-0.6-7.3,1.3-10.6-1.1c2.1-1.4,4.3-2,6.8-2
			c9.1,0.2,16.8,4.4,24.6,8.3c1.1,0.6,1.7,1.6,1.7,2.8c-0.7,0-1.4,0-2.1,0c-1-0.7-2-1.3-3-2c-1.5-1-3.4-1.2-5-2
			C1140,426.3,1139.7,426.3,1139.4,426.3z"/>
		<path class="st53" d="M602.7,269.1c-2.2,0.4-3.5-1.2-4.5-2.6c-4.6-6.5-8.6-13.3-12.3-20.4c-1-1.9-0.5-3.9-0.6-5.9
			C590.1,250.5,597.6,259.1,602.7,269.1z"/>
		<path class="st25" d="M1015.2,244.2c0.5-1.2,1.1-2.3,2.5-1.1c6.1,5.3,13.3,9.2,18.8,15.2c-3.3,2.3-6,0.8-8.4-1.5
			c-2.9-2.8-6-5.2-9.5-7C1016.1,248.6,1015.1,246.7,1015.2,244.2z"/>
		<path class="st54" d="M808.5,197.5c-0.1-9.1-0.1-18.1-0.2-27.2c-1.7-3-4.7-3.2-7.7-3.5c-4.7-0.6-9.5-0.2-14-2
			c-1.1-0.1-2.2,0.3-3.1-0.4c3.5-2.4,7.3-0.7,10.9-0.8c4.8-0.1,11-1.9,14,1.2c3,3,0.9,9.2,0.8,13.9
			C809.1,185,809.8,191.3,808.5,197.5z"/>
		<path class="st45" d="M1001.6,206.3c-9-1.4-16.6-5.6-23.1-11.9c0.9-1,0.1-3.6,2.8-2.9c5.5,7.1,13.8,9.1,21.7,11.9
			C1002.6,204.3,1002.1,205.3,1001.6,206.3z"/>
		<path class="st52" d="M655.9,184.1c2.1,1.4,3.7,0.8,5.9-0.3c9.3-5,19.1-7.2,29.5-4.4c-9.5-0.5-19.1-0.2-27.2,5.4
			c-3.9,2.7-7.4,5.5-12.5,4.6C652.6,187.2,654.1,185.5,655.9,184.1z"/>
		<path class="st19" d="M1072.4,300.3c-1.3,0-2.7,0-4,0c-0.3,0-0.6,0-1,0c-4.4-2.1-9.1-2.6-13.8-1.7c-3.4,0.7-6.8,0.6-10.2,0.7
			c2.3-2,4.8-3.5,7.9-4.1C1058.6,295.3,1066,295.8,1072.4,300.3z"/>
		<path class="st55" d="M584.1,208.2c6.4,1.9,13.5,1.5,19.2,6c1.2,0.9,2.4,1.7,3.1,3.1c-3.6-1.1-6.5-4-10.3-4.6
			c-3.8-0.6-7.5-1.9-11.6-0.6c-2.8,0.9-6.1,1.2-9.1,0.2C577.9,210.2,580.8,208.7,584.1,208.2z"/>
		<path class="st47" d="M865.2,200.3c-3.6,7.9-1.6,15.3,5.4,20.5c1.6,1.2,3.2,2.3,4.8,3.4c0.3,0.2,0.5,0.5,0.3,0.7
			c-0.1,0.2-0.2,0.3-0.4,0.3c-8.7-4.3-14.7-10.5-14.9-20.7c-0.1-3.4,1.3-6.4,5.2-7.1C865.5,198.4,865.3,199.3,865.2,200.3z"/>
		<path class="st56" d="M465.3,392.3c-4.6-4.7-9.1-9.5-13.7-14.2c-2.5-2.5-6.4-3.6-7.3-7.7C453.9,375.3,461.5,381.9,465.3,392.3z"/>
		<path class="st57" d="M1049.4,243.4c-2.8-3.2-5.9-6.1-7.8-10.1c-0.5-1-2.6-1.9-3.8-1.8c-3.8,0.2-7.1-1.1-10.5-2.2
			c0.5-1.5,1.2-2.9,3.1-3.1c7.3,1.1,13.6,4.1,18.3,10.1c1,1.3,2.4,2.3,1.9,4.3C1050.5,241.6,1050.5,242.7,1049.4,243.4z"/>
		<path class="st58" d="M1132.6,377.1c-1.5,0.3-3.4,0.3-4-1.2c-2.2-5.6-6.6-9.7-9.3-14.8c3-3.3,4.8-1.7,5.9,1.6
			C1126.8,368,1129.9,372.4,1132.6,377.1z"/>
		<path class="st59" d="M1015.2,244.2c3.5,5.7,16,14,21.2,14.1c0.2,1.6-0.9,2.3-1.9,3.2c-1.9-0.9-4.4-0.4-6.1-2.1c0,0,0,0,0,0
			c-2.9-4.1-6.8-7-11.4-8.9c-1.8-0.7-2.8-2.2-4.4-3C1013.4,246.3,1014.3,245.2,1015.2,244.2z"/>
		<path class="st38" d="M525.4,330.5c-3-6.9-3.2-14.8-7.2-21.4c-0.8-1.4-1.2-3.1-2.9-3.8c-0.6-0.6-0.6-1.3,0-2l0,0
			c5.8,2.3,7.2,8.1,9.9,12.7c0.6,1,0.4,2.3,1.1,3.3C526.7,323.1,527.1,326.9,525.4,330.5z"/>
		<path class="st27" d="M468.3,299.3c4.2,0.8,7.9-1.7,12-2c1.3-0.7,2.7-0.8,4,0c-5.3,3.1-11.6,4.2-16.5,8.2
			c-1.5,1.2-3.1,0.6-4.6-0.3C464.8,303.2,465.8,300.6,468.3,299.3z"/>
		<path class="st53" d="M424.4,435.4c0,0.3,0,0.6,0,0.8c-5.2,2-10.1,1.2-15-1c-6-3.3-10.5-7.7-9.8-15.3
			C404.2,430.9,412.5,436.1,424.4,435.4z"/>
		<path class="st60" d="M670.2,175.2c7.5,0.5,15.1-0.8,22.6,1.1c4.3,1.1,8.4,2.7,11.5,6c-8.2-3.7-16.5-7-25.8-6
			c-5.4,0.6-10.7,2.4-16.2,2C664.4,175.7,667.3,175.6,670.2,175.2z"/>
		<path class="st61" d="M772.5,176.5c-0.1-2-0.2-4.1-0.3-6.1c-4.1-3.6-9-4.3-14.2-4.2c-2.2,0.1-5.3,0.9-5.6-3c6,0,11.9,0.1,17.9,0
			c2.1,0,3,0.8,2.9,2.9C772.8,169.6,773.6,173.1,772.5,176.5z"/>
		<path class="st62" d="M563.3,230.2c-0.2,2.5-1.6,4.2-4,4c-6.8-0.5-13.4,1.3-20.1,1c1.5-2.6,4.1-3.5,6.9-4.1c5.4-1,11-0.1,16.4-0.9
			C562.7,230.1,563,230.1,563.3,230.2z"/>
		<path class="st63" d="M711.3,196.3c1.9,3,3,6.2,3,9.8c-0.1,4.1,2.7,7.4,3.1,11.3c-0.2,1.6-0.8,3-1.9,4.1
			c-3.3-3.5-3.5-7.9-3.1-12.4C712.8,204.8,711.7,200.6,711.3,196.3z"/>
		<path class="st64" d="M435.4,429.4c-0.3,7.8-9.8,13.5-19.2,11.6c-1.3-0.3-2.6-0.5-3.8-0.8c-1-1.4-3.5-0.9-4-3
			c5.2,1.2,10.2,4.4,15.8,1.9c2.8-1.2,5.5-2.5,6.2-5.9C432,432.1,433.7,430.8,435.4,429.4z"/>
		<path class="st65" d="M1003,203.3c-7.3,0.1-13.2-3.7-19.2-7.2c-1.6-0.9-2.2-2.8-2.5-4.7C988.6,195.4,995.8,199.4,1003,203.3z"/>
		<path class="st66" d="M875.3,225.3c0-0.3,0-0.7,0-1c3.4,0.6,6.7,1.1,10.1,1.1c4.3,0.1,7.6-1.3,9.8-5.1c1.3-1,2.7-2,4-3
			c-0.1,6.8-7.4,11.4-15.8,9.9C880.8,226.6,878.1,225.9,875.3,225.3z"/>
		<path class="st25" d="M1156.2,360.3c-2.6-0.3-3.7-2.6-5.4-4.1c-3.1-2.9-6.8-4.5-10.6-6C1146.3,347.2,1155.7,352.6,1156.2,360.3z"
			/>
		<path class="st67" d="M613.4,220.3c-3.6-2.3-6-6.1-9.8-8.3c-5.1-2.9-10.2-5.4-16.3-4.8C597.2,204.4,610,210.8,613.4,220.3z"/>
		<path class="st23" d="M887.3,222.4c-10,3.2-20.5-3.4-20.9-13.2C870.8,217.6,878.1,221.6,887.3,222.4z"/>
		<path class="st22" d="M934.2,201.3c-1.2-0.1-2.5-0.6-2.6-1.9c-1-8.3-5.4-15.1-9.3-22.1c4.7,1.2,5.9,5.7,8.1,9.1
			c1.4,2.1,1.3,4.8,2.8,6.9C933.5,196,933.9,198.6,934.2,201.3z"/>
		<path class="st68" d="M691.3,211.3c1.8,2.5,3.2,5,0.6,7.9c-2.4,2.7-4.6,2.3-7.3,0.4c-1.1-0.8-2.8-0.9-4.2-1.3
			c-0.3-2.7,1.7-1.9,2.9-1.6c3.1,0.7,5-0.5,6-3.4C690,212.6,690.7,212,691.3,211.3z"/>
		<path class="st69" d="M930.4,217.3c-8.6,0.1-16.3-2.4-23-7.8C915.1,211.8,922.9,214.1,930.4,217.3z"/>
		<path class="st60" d="M752.3,163.3c1.1,2.4,3.2,2.2,5.1,2c4.6-0.7,8.7,1.3,13.1,2.1c1.9,0.4,1.7,1.7,1.6,3
			c-5.4-2-10.9-3.7-16.8-3.3c-2.4,0.2-4.6-1.7-6-3.9C750.3,163.2,751.3,163.3,752.3,163.3z"/>
		<path class="st70" d="M526.3,319.3c-2.6-4.2-5.2-8.3-7.7-12.5c-0.9-1.4-1.7-2.8-3.3-3.5c0-0.7,0-1.3,0-2c4.1,0.7,4.3,6.1,8.4,6.9
			C525.5,311.7,526.6,315.3,526.3,319.3z"/>
		<path class="st71" d="M1050.5,240.5c-4.5-5.4-8.7-11.2-16.5-12.2c-1.5-0.2-2.9-0.8-3.7-2.2c0.7-1.4,2-0.7,3-0.9
			c0.2,0,0.5,0.1,0.7,0.1c6.9,1,11.4,5.9,16.4,10C1051.2,237,1051.6,238.8,1050.5,240.5z"/>
		<path class="st72" d="M433.3,365.3c-3.6,1.9-7,1-10.7,0.2c-3.9-0.8-8.1-0.2-12.2-0.2C418,362.9,425.6,362.2,433.3,365.3z"/>
		<path class="st65" d="M1132.6,472.2c-3.7-1.5-6.2-4.7-9.5-6.8c-1.9-1.2-1.9-3.3-1.7-5.3c2,2.6,3.9,5.2,7.5,5.9
			C1132.2,466.7,1131.9,469.8,1132.6,472.2z"/>
		<path class="st37" d="M779.3,206.3c-1.3,3.8-4,3.5-6.5,1.7c-3.3-2.5-3.7-5.5-0.6-8.6C772.2,204.1,774.4,206.6,779.3,206.3z"/>
		<path class="st73" d="M1033.3,225.2c7.4-1.9,13.4,0.8,16,7.1c-1.8,1.4-3.2,0.1-4.3-1c-3.2-3.2-7.2-4.9-11.6-5.8L1033.3,225.2z"/>
		<path class="st36" d="M562.5,230.2c-5.3,3.8-10.9,1.2-16.4,0.9C551.4,228.7,556.9,228.7,562.5,230.2z"/>
		<path class="st74" d="M933.2,193.3c-2.2-3.8-4.4-7.6-6.5-11.4c-1.1-1.9-2.4-3.5-4.4-4.5c-0.3-0.3-0.6-0.6-1-0.9
			c-0.3-0.2-0.4-0.5-0.3-0.7c0.1-0.2,0.2-0.3,0.4-0.3c4.7,0.7,5.3,6.1,9,8C931.5,186.6,932.8,189.8,933.2,193.3z"/>
		<path class="st75" d="M1033.5,225.5c4.1-0.6,7.3,1.5,10.3,3.8c1.7,1.3,3.3,2.7,5.5,3c0.5,0.9,1.4,1.7,1.1,3
			c-1.6-0.1-3.2-0.6-4-1.7C1043,229.4,1037.9,228,1033.5,225.5z"/>
		<path class="st76" d="M689.3,213.3c0.3,4-1.1,6-5.4,4.4c-1.2-0.5-2.6-0.8-3.4,0.7c-0.1,0.4-0.2,0.8-0.3,1.2
			c-1.3-2.6-2.2-4.9,2.4-3.9C685.3,216.2,687.3,214.6,689.3,213.3z"/>
		<path class="st5" d="M1114.4,610.6c0-8.8,0-17.6,0-26.4C1115.6,593,1115.5,601.8,1114.4,610.6z"/>
		<path class="st12" d="M1028.3,259.3c2,0.8,4.4,0.5,6.1,2.1c-0.3,0.4-0.6,0.8-0.9,1.1C1032.4,260.5,1029,262,1028.3,259.3z"/>
		<path class="st38" d="M783.5,164.3c0.9,0,1.9,0,2.8,0c0.3,0.2,0.5,0.4,0.4,0.6c-0.1,0.2-0.2,0.3-0.3,0.3c0,0,0,0,0,0
			c-0.8,0-1.6,0.2-2,1c-0.3,0.7-0.6,1.3-0.8,2C783.5,167,783.5,165.7,783.5,164.3z"/>
		<path class="st77" d="M457.2,505.3c0.6-4.5,3.2-8.4,4.5-12.7c6.2-21.4,16.3-41,27.2-60.2c7-12.5,15.7-23.7,23.8-35.5
			c9.6-13.9,21.5-25.4,33-37.2c18.8-19.2,40.8-34.5,64-48c26.7-15.5,55-27.8,85-34.6c48.2-10.9,96.8-12.5,145.7-2.7
			c21,4.2,41.1,10.6,60.8,18.7c17.2,7.1,33.8,15.4,49.4,25.6c12.6,8.3,24.7,17.2,36.5,26.8c13.4,10.9,25.1,23.4,36.5,36
			c9.3,10.3,18.1,21.2,25.5,33.1c9.1,14.8,18.7,29.5,25.5,45.6c12.1,28.7,22.9,57.9,26.5,89c2.9,25.1,3.3,50.4,1.8,75.8
			c-1.5,24.2-6,47.5-13.5,70.3c-5.5,16.7-11,33.5-19.5,49c-9.8,18-19.5,36.1-32.5,51.9c-7.9,9.6-14.8,20.1-24.1,28.5
			c-8.4,10-17.3,19.5-28.1,27.3c-7,5-13.4,10.8-20.4,16c-9.9,7.4-20.9,12.8-31.3,19.4c-22,12.9-45.9,21.2-70.1,28.8
			c-12.8,4-25.9,6.3-38.9,8.9c-22.6,2.1-45.2,2.8-67.8,2.2c-25-0.7-49.6-4.3-73.7-11.6c-15-4.6-29.5-10.4-44.1-16.1
			c-9.8-3.8-19.4-8.8-28.3-14.7c-6.5-4.3-13.8-7.5-20.2-11.9c-8.5-5.9-16.7-12.1-24.7-18.6c-16.9-13.7-32.3-28.8-46-45.6
			c-13.8-16.9-26.6-34.5-36.5-54.1c-3.9-7.7-8.1-15.3-11.9-23.1c-11.8-27.3-20.1-55.6-24.9-84.9c-2.3-14.1-3.8-28.3-3.3-42.6
			c0.2-8.3,0.1-16.6,0-25c1.4-24.1,5.2-47.9,12.6-71C455.9,507.2,456.8,506.4,457.2,505.3z"/>
		<path class="st3" d="M472.7,732.2c5.5,12.7,13.5,24,19.2,36.6c1.7,3.7,4.7,6.8,7,10.3c10.1,14.9,20.9,29.3,33.2,42.5
			c15.8,16.9,33.2,32.1,52.1,45.5c17.2,12.2,35.3,23.4,54.7,31.6c27.9,11.8,56.5,22.1,86.8,25.5c29.5,3.4,59.2,3.7,88.8,0.8
			c3.3-0.3,6.6-0.4,10-0.5c0.2,1.7-1.1,1.8-2.2,2c-7.2,1-14.4,2.5-21.6,2.9c-12.6,0.7-25.2,2-37.8,1.1c-26.4-2-52.8-4-78.4-11.5
			c-16.1-4.7-31.8-10.3-47-17.4c-28-11.5-53.2-27.4-76-47.3c-6.1-5.3-13.4-9.4-18.5-15.8c-7.9-9.9-18.4-17.2-25.7-27.5
			c-0.8-1.1-1.9-1.9-1.9-3.4c-2.7-6-8-10-11.8-15.2c-9-12.3-15.8-25.9-23.6-38.9c-3.1-5.3-5.6-10.9-8.3-16.3
			C470.7,735,469.1,732.9,472.7,732.2z"/>
		<path class="st78" d="M637.3,901.3c6.6,1.3,12.3,4.6,18.5,7c19.4,7.3,39,13.8,59.7,16.1c13.3,1.5,26.6,3.1,39.9,4.2
			c18,1.5,35.7-0.1,53.6-1.4c5.2-0.4,10.2-1.9,15.4-2.9c15.4-3.2,31-6.1,45.9-11.2c21.6-7.5,43.3-14.9,63.1-26.7
			c1.3,2.5-0.7,3.6-2.2,4.7c-4.8,3.5-10.2,6.1-15.8,8.2l0,0c-7.2,1.7-13.1,6.4-20.1,8.8c-2,0.7-4.1,1.2-5.9,2.2
			c-9.3,4.5-19.2,7-29,10c-13.3,4.2-27.2,5.4-40.9,7.6c-7.9,1.3-16,2.2-24.2,2.5c-7.4,0.3-14.9,0.9-22.3,0.9
			c-18.1-0.1-35.9-2.4-53.8-4.7c-18.9-2.4-37-7.2-54.9-13.4c-8.4-2.9-16.6-6.5-24.9-9.9C638.6,903,638,902,637.3,901.3z"/>
		<path class="st79" d="M472.7,732.2c-1.3,0.7-1.5,1.7-0.9,2.9c5.6,10.8,10.7,21.8,17.6,31.9c1.8,2.6,2.5,5.6,4.1,8.4
			c5.7,10.2,13.1,19,20.4,28c1,1.2,1.6,2.5,1.5,4c-10.2-10.1-17.9-22-25.2-34.3c-6.6-11.1-13.3-22.2-18.8-33.9
			c-5.8-12.3-10.2-25.1-14.1-38.1c-1.2-3.9-3.4-7.5-3.9-11.6c-4.9-19.1-9-38.4-10.7-58.1c-1.4-16,0.6-31.9-0.2-47.8
			c-0.1-1.5-0.6-3.5,1.8-4c-0.3,18.3-0.4,36.5,1.8,54.8c3,25.3,9.1,49.9,17.6,73.9C466.5,716.1,469.2,724.3,472.7,732.2z"/>
		<path class="st80" d="M915.3,899.3c4.7-3.6,10.7-5,15.2-9.1c1.2-1.1,2.7-2,2.8-3.8c11.9-7.5,24.5-13.9,35.6-22.7
			c14-11.1,28.7-21.4,40.2-35.3c1.1-1.4,2.2-3,4.2-3.4c0.1,2.2-1,3.8-2.3,5.3c-14.4,16.2-30.2,30.8-48.1,42.8
			c-13.3,8.9-26.9,17.4-41.2,24.6C919.5,898.7,917.6,899.6,915.3,899.3z"/>
		<path class="st81" d="M444.2,579.3c-0.1,0.1-0.3,0.3-0.3,0.4c0.1,16-2.5,32-0.9,48.1c1.2,12.5,3.3,24.9,5.3,37.3
			c1,6.2,3.3,12.1,4.4,18.3c0.4,2,0.8,3.9,0.7,5.9c-3.1-3.6-2.8-8.4-3.8-12.6c-3.7-14.7-6.4-29.6-7.4-44.9
			c-1.2-18.9-0.6-37.9-0.6-56.8c0-15.4,3.2-30.5,6.2-45.6c1.4-7.3,4.5-14.2,6.9-21.3c0.4-1.3,1.5-2.2,2.7-2.9
			c-4.9,18.7-9.4,37.4-11.3,56.6C445.3,567.7,444.7,573.5,444.2,579.3z"/>
		<path class="st80" d="M889.3,910.3c8.7-3.5,16.3-9.7,26-11c-7,3.9-14.2,7.5-21.7,10.3C892.2,910.2,890.8,910.3,889.3,910.3z"/>
		<path class="st4" d="M872.3,275.3c1.7,0.2,3.6-0.7,5,1C875.7,276.1,873.7,277,872.3,275.3z"/>
		<path class="st82" d="M481.3,322.3c0.7-1.1,1.4-2.2,2.3-3.2c3.3-4,8.3-5.1,12.3-2.7c5,2.9,6.1,7.5,3.5,14.1
			c-0.9,1.3-0.9,3.3-2.7,4c-1.5,0.9-3.1,1.7-4.9,2c-8.5-0.8-12.1-4.8-11.3-12.7C480.7,323.2,481,322.7,481.3,322.3z"/>
		<path class="st83" d="M496.4,333.5c1-1,2-2,3-3.1c1.1,7.2-2.2,11-9.7,10.9c-6.5,0-12.8-5-14.2-11.2c-1.1-5.2,0.5-7.4,5.9-7.8
			c0,0.3-0.1,0.7-0.1,1c-0.5,0.8-0.3,1.8-0.8,2.6c-1.3,5.4,0.3,9.5,5,11.4C489.1,338.8,492.9,338.9,496.4,333.5z"/>
		<path class="st84" d="M484.3,297.3c-1.3,0-2.7,0-4,0c11.8-4.2,22.8-2.8,33,4.5c0.7,0.5,1.3,1,2,1.5c0,0.7,0,1.3,0,2
			c0,0.3,0,0.7,0,1c-6.6-8.6-16-10.1-26-10C487.8,297.5,485.8,296.1,484.3,297.3L484.3,297.3z"/>
		<path class="st27" d="M484.3,297.3c1.4-1.7,3.3-0.8,5-1C487.9,298,486,297.1,484.3,297.3z"/>
		<path class="st22" d="M921.3,175.3c0,0.4,0,0.7,0,1.1c-2.7-0.7-4.4-2.3-5-5C918,172.6,919.7,174,921.3,175.3z"/>
		<path class="st43" d="M1140.3,426.3c2-0.1,3.7,0.4,5,2C1143.4,428.4,1141.6,427.9,1140.3,426.3z"/>
		<path class="st64" d="M399.3,429.3c3,2.7,6,5.3,9,8C403.9,436.2,401,433.5,399.3,429.3z"/>
		<path class="st85" d="M409.3,435.3c4.9,1.5,10,1.1,15,1C419.1,440.1,414.2,438.4,409.3,435.3z"/>
		<path class="st86" d="M786.3,165.3c0-0.3,0-0.6,0-0.9c6.1,1.6,12.5,0.4,18.7,1.7c2.9,0.6,3.6,1.7,3.3,4.2
			c-5.4-1.7-10.8-3.1-16.5-3C789.6,167.4,788.4,165.3,786.3,165.3z"/>
		<path class="st87" d="M944.4,802.4c-3,8.7-8.8,15.8-15,22c-8,8.1-16.9,15.8-26.5,21.7c-13.1,8.1-26.7,15.4-41.1,21.2
			c-17,6.9-34.9,9.1-52.8,12c-27.8,4.5-55.8,5.8-84,4.7c-23.5-1-46.7-4.4-69.4-10.2c-14.5-3.7-27.5-10.8-36.6-23.5
			c-5.2-7.2-5.3-19,0-26.2c2.5-3.4,4.5-7.4,8.1-10c4.2-0.8,7.6-3,11.1-5.3c12.6-8.5,26.8-13.9,40.6-20c11.4-5.1,23.2-9.2,34.8-13.7
			c6.7-2.6,13.9-2.9,20.7-5.4c5.7-2.2,9.9-5,11.9-10.8c-0.1-25.7-0.2-51.3-0.1-77c0-3.9-0.8-5.8-4.9-7.5c-8.8-3.6-12-12-13.5-20.7
			c-0.5-3-1.5-4.3-4.1-5.7c-14.9-8-27.2-18.9-35.4-34c-1.8-3.4-2.3-6.8-2.8-10.5c-1.8-13.5,1.5-26,7.2-38.1
			c3-6.3,6.3-12.4,11.4-17.4c6-5.9,9.6-13.9,16.7-19c3.8-2.7,8.2-4.2,11.4-7.8c6.2-6.8,8.4-9.9,3.9-18.2
			c-5.6-10.4-2.9-21.9,0.4-32.6c2.8-9,7.6-17.3,12.1-25.7c2.5-4.6,7.4-7,9.6-12c1.5-3.3,0.5-4-2.3-4.5c-10-1.7-20-3.2-30-5.1
			c-16-3.1-31.8-6.7-47.8-9.9c-22.3-4.4-44.4-10.1-67-13.2c-6.1-0.8-12-2.5-18.1-3.6c-9.1-1.7-16.2,1.6-20.9,9.8
			c-0.6,1-1.2,2-1.8,2.9c-6.1,7.3-6.6,16-6.6,24.9c0,87.9,0,175.9,0.1,263.8c0,7.8,0.2,15.7,3.7,22.9c3.5,7.2,14.9,14.8,25.3,13.2
			c21.2-3.4,42.3-7,63.5-9.7c16.3-2.1,32.7-3.8,48.9-6.5c7-1.2,12.2,1.9,17.3,5.7c1.5,1.1,1.3,2.5,0.8,4c-1.6,3.6-4.8,5.1-8.3,5.6
			c-21.7,3.4-43.4,6.8-65.1,10.1c-15.6,2.3-31.1,5.4-46.9,6.6c-7.1,0.5-14.1,1.7-21.4,0.9c-12.9-1.3-20.4-9.4-27.3-18.8
			c-6.6-9.1-8.8-19.5-8.8-30.6c0.1-93,0.1-185.9,0-278.9c0-13.9,4.3-25.9,13.6-36.2c7.1-3.2,14-6.8,22-7.7c7.1-0.8,14,0.5,20.8,1.9
			c28.2,5.8,56.2,12.5,84.4,17.4c24.1,4.2,47.8,9.7,71.9,13.9c3.2,0.6,6.4,3.2,9.8,0.5c1.2-2,3.2-3.1,5.1-4.4
			c10-14.5,20.6-28.5,34.9-39.2c9-6.8,21.8-5.8,29.3,2.6c3.5,4,7.3,7.7,9,13c0.2,0.7,0.9,1.4,1.6,1.8c6.7,4.6,10.9,14.5,9.3,22.4
			c-0.8,4.2-5,8.2-9.2,8.7c-4.7,0.6-9-1.8-10.6-6.5c-1.9-5.8-4.5-11.4-3.8-17.9c0.5-4.7-1.8-8.7-5.4-11.8c-3.6-3.1-7.5-3.9-11.9-1.5
			c-4.5,2.5-7.9,6-11.3,9.7c-6.5,7.1-13.7,13.6-18.8,21.9c-0.3,1.6-0.6,3.3-0.8,4.9c1.2,2.7,3.8,2.3,6,2.7
			c28.7,5.8,57.6,10.4,86.1,16.9c21.6,4.9,43.5,8.1,64.7,14.8c10.5,5.4,18.1,13.4,22.4,24.4c1.8,4.7,2.3,9.6,2.3,14.7
			c0,53.7,0,107.3,0,161c0,8.3,0.2,16.6,1.6,24.8c-6,12-14.2,21.1-27.9,25c-14.9,4.3-30.4,5.5-45.5,8.3c-15.2,2.8-30.5,4.7-45.8,7
			c-11.8,1.8-23.6,3.6-35.5,5.3c-2,0.3-3.9,0.7-5.5,2.1c-0.5,0.7-0.9,1.4-1.5,2c-2.2,1.3-3,3.5-3,5.9c-0.1,3.2-0.1,6.3,0,9.5
			c0.4,8.6,3.8,12.1,12.4,12.2c11,0.1,22-0.2,32.9,0.1c26,0.7,51,6.2,74.8,16.8c9.8,4.3,16.4,11.6,17.4,22.5
			C941.7,796.1,945.2,798.5,944.4,802.4z"/>
		<path class="st2" d="M1036.3,432.3c-1.6,4.4-5.2,5.7-9.4,5.8c-5.2,0.1-10.3,0.2-15.5,0c-2.8-0.1-3.8,0.8-3.7,3.6
			c0.2,5.3,0.1,10.6,0.1,16c-0.1,8.6-3.3,11.8-11.7,11.8c-3.2,0-6.3,0-9.5,0c-6.3-0.1-10.1-3.7-10.3-10.1c-0.2-6-0.2-12,0-18
			c0.1-2.7-0.8-3.4-3.4-3.3c-5.5,0.2-11,0.1-16.5,0c-7.2-0.1-11.1-4-11.2-11.1c-0.1-3.5-0.1-7,0-10.5c0.3-5.6,3.6-8.8,9.5-9.3
			c1.6-0.5,3.2-0.5,4.9,0.1c13.3,4.7,27,8.4,40.5,12.6c8,2.5,16.2,3.5,24.4,4.8c3.3,0.5,6.4,1.7,9.5,3
			C1036.2,428.5,1037.7,429.8,1036.3,432.3z"/>
		<path class="st4" d="M723.4,727.6c-0.9-2.8-8.6-8.2-12-8.3c-8.5-0.1-16.8,1.4-25.1,3.2c-8.2,1.7-16.5,1.4-24.6,2.8
			c-12,2-24.2,3.7-36.2,5.5c-11.9,1.8-23.8,4.4-35.8,5.3c-10.6,0.7-24.1-9.9-25.7-20.8c-1.2-8.4-1.7-16.8-1.7-25.3
			c0-86.4,0-172.9-0.1-259.3c0-5.4,1.4-10.5,2.2-15.7c0.5-3.2,4.4-3.2,6-5.6c-0.6,2.7-1.3,5.3-1.9,8c-1.3,1.6-0.6,3.5-0.6,5.3
			c-0.1,95.6,0.1,191.2-0.1,286.7c0,13.8,12.1,23.5,25.8,21.5c19.9-3,39.7-6.6,59.8-8.5c16.2-1.5,32.3-4.8,48.4-7.2
			c7.7-1.1,15-0.8,20.9,5.2c1.5,1.5,2.8,2.8,1.8,5.1C724.5,726.4,724.3,727.1,723.4,727.6z"/>
		<path class="st88" d="M941.3,451.3c-17-4.1-34.1-7.8-51.3-11.3c-21.2-4.3-42.2-9.7-63.5-13.2c-13.3-2.2-26.6-4.8-39.8-7.5
			c-2.3-0.4-4.7-0.9-2.4-4.1c5.9-0.7,11.5,1.2,17.2,2.5c23.8,5.7,48.1,8.3,72,13.9c16.7,3.9,33.6,6.9,50.3,10.6
			c9.4,2.1,18.7,4.8,26.9,10.1c9.6,6.1,15.3,15.6,20.6,25.3c1.8,3.3-0.5,7.2,1.2,10.6c0.1,1.7,0.3,3.3,0.3,5c0,54,0,108,0,162.1
			c0,5.5,0.1,11-2.3,16.1c-1.3-7.4-3.6-14.7-3.6-22.4c0-52.6,0-105.3,0-157.9C966.8,472.5,957.9,459.4,941.3,451.3z"/>
		<path class="st89" d="M724.4,725.5c-1.2-3.8-8.5-9-12.8-9.2c-9.9-0.3-19.4,2.1-29.1,3.3c-12,1.5-23.8,3.9-35.9,4.9
			c-12.2,0.9-24.2,3.4-36.3,5.3c-7,1.1-14,2.9-21,3.3c-11.4,0.6-26.7-12.4-22.5-26.3c0.6-1.8,0.4-4,0.4-5.9
			c0-92.5,0-184.9,0.1-277.4c0-2-1-4.4,1.1-6.1c0,67.6-0.1,135.2-0.1,202.8c0,27.5,0,54.9,0,82.4c0,5.6,1.2,10.9,4,15.8
			c4.6,7.8,12.8,11.1,21.6,9.5c8.7-1.5,17.4-2.5,26.2-3.4c14.6-1.5,28.9-4.3,43.4-6.3c16.3-2.3,32.5-4.8,48.8-7.3
			C720.4,709.6,728.1,718.7,724.4,725.5z"/>
		<path class="st90" d="M1036.3,432.3c-1.2-5.3-6.6-5.3-9.8-5.6c-21.9-2.1-42-11-63.1-16.1c-3-0.7-5-4.1-8.6-3.3
			c5.8-1,11.6-0.4,17.3-0.3c3.1,0,4.6-0.6,4.2-4.1c-0.3-3.3-0.1-6.6-0.1-9.9c0-4.1,1.4-7.4,4.9-9.6c2.7-1.1,3.5,1.1,4.5,2.7
			c2.7,4.4,5.4,8.8,7.6,13.5c2.8,5.7,2.1,7-4.3,8.5c-0.5,0.1-1,0.2-1.8,1c8.8,2.8,17.4,5.2,26.4,6.1c6.5,0.6,12.9,0.9,19.4,1.9
			c1.5,0.2,3,0.3,4.2,1.5C1037.2,423,1038.6,427.7,1036.3,432.3z"/>
		<path class="st91" d="M972.5,488.3c-0.4-0.7-1-1.4-1.1-2.1c-1.8-16.8-12.6-27.7-25.9-35.2c-9.9-5.6-21.8-7.5-33.2-9.8
			c-22.4-4.4-44.5-10-67-13.7c-19.7-3.3-39.2-7.7-58.8-11.3c-0.8-0.1-1.5-0.6-2.2-1c0.2-1.6,0.7-2.9,1.9-4c10.5,2.3,21,4.6,31.5,6.9
			c31.1,6.9,62.8,11.3,93.8,18.7c10,2.4,20.2,3.9,29.9,7.6c15.5,5.9,25.9,16.5,30.4,32.5C973,480.6,973,484.5,972.5,488.3z"/>
		<path class="st92" d="M1037.3,418.3c-19.2,0-47.2-5.3-53.7-10.3c2.6-1.1,5.1-1.7,7.7-1.8c2.3-0.1,3.5-1.1,2.3-3.6
			c-3.2-6.6-6.8-12.9-10.9-19c-0.2-0.3-0.9-0.3-1.4-0.4c6.8-2.2,13.8-1.6,20.5-0.5c3.8,0.6,5.7,4.8,5.9,8.9c0.2,3.8,0.2,7.6,0,11.5
			c-0.1,2.8,0.8,3.8,3.6,3.7c5.1-0.2,10.3-0.2,15.4,0C1034.1,407,1037.5,410.9,1037.3,418.3z"/>
		<path class="st91" d="M773.2,408c-1.2,1.5-2.1,3.3-3.9,4.3c-2.3,2-4.9,0.8-7.2,0.3c-31.4-7.4-63.3-12-94.8-18.9
			c-24.1-5.2-48.3-9.8-72.3-15.2c-4.8-1.1-9.7-0.2-14.4-1.4c-1.6-0.4-3.3-0.4-4.5-1.9c7.9-3.7,15.9-1.9,23.9-0.6
			c38.2,6.2,75.7,15.4,113.6,22.8c18.2,3.6,36.7,5.8,54.7,10.6C769.9,408.4,771.6,408.7,773.2,408z"/>
		<path class="st78" d="M746.2,759c-0.3,6-3.2,9.3-9.2,11.2c-13.3,4.1-26.9,7-39.8,12.3c-6.6,2.7-13.3,5.3-19.7,8.3
			c-11.8,5.5-24.1,10-35.2,17c-2.2,1.4-4.4,3-6.6,4.5c-2.6,1.9-5.3,3.5-8.7,1.9c6.7-6.7,14.2-12,22.7-16.5
			c15.6-8.1,31.2-16.4,47.9-21.8c14.8-4.8,29.4-10.1,44.3-14.6C743.7,760.9,745.1,760.3,746.2,759z"/>
		<path class="st88" d="M576.1,375.2c18.6,0.7,36.6,5.7,54.7,9.4c24.3,5,48.3,11.4,72.8,15.2c21.1,3.3,41.8,8.2,62.7,12.3
			c1,0.2,2,0.1,3,0.2c-0.4,3-2.2,3.2-4.7,2.6c-21-4.5-41.9-9.6-63-13.1c-12.5-2.1-25.1-4.1-37.5-6.8c-17.4-3.7-35-7.1-52.3-11.1
			c-8.5-2-17.2-3.7-25.8-4.3c-5.8-0.4-11.8,1.1-17.2,4c-3,1.5-6,2.9-9.4,2.7C563.7,380.8,568.4,375.6,576.1,375.2z"/>
		<path class="st93" d="M807.3,724.3c0.3-0.3,0.7-0.7,1-1c0,6.3,0.2,12.7,0,19c-0.1,3.9,1,5.2,5.1,5.1c13-0.3,26-0.6,38.9-0.1
			c25.9,1.1,51.4,4.8,74.6,17.2c9.4,5,18.3,11.2,20.2,23.1c0.5,3.3,0.8,6.6-0.7,9.8c-2.2-2.8-2.2-6.4-3.9-9.6
			c-6.7-12.3-17.8-18.3-30.3-22.8c-28.2-10.2-57.3-13.8-87.2-13.2c-4.2,0.1-8.3-0.1-12.5-0.3c-2.7-0.1-5.5-1.1-5.9-3.8
			C805.6,740,804.7,732.1,807.3,724.3z"/>
		<path class="st94" d="M941.3,451.3c8.7,2.2,14.4,8.3,19.2,15.4c5.8,8.7,8,18.1,8,28.6c-0.3,51.3-0.1,102.6-0.2,153.8
			c0,4.7,0.3,9.2,2.5,13.5c1.4,2.8-1.3,5.8-0.4,8.8c0.3,1.8-0.7,3-2,4.1c-2.4-4.1-3.2-8.6-3.2-13.4c0.1-56.7-0.1-113.5,0.2-170.2
			c0.1-12-3.8-21.9-11.1-30.8C951,456.8,945.4,455,941.3,451.3z"/>
		<path class="st95" d="M807.3,724.3c0,6.2,0,12.3,0,18.5c0,7,0.5,7.5,7.8,7.5c8.1,0,16.3-0.3,24.4,0.1c28.8,1.2,56.9,5.7,83.4,17.7
			c10.3,4.7,17.5,12.7,23,22.5c1.2,2.1,0.2,4.6,0.6,6.9c0.1,2-0.8,3.5-2,5c-3.2-3.4-4.3-7.6-4.9-12c-1.3-9.9-7.6-15.8-16-19.4
			c-16.9-7.3-34.4-12.4-52.8-14.9c-18.4-2.5-36.8-1.5-55.2-1.8c-8.5-0.2-12.9-4.3-13.1-12.7c-0.1-4,0-8,0-12
			C802.3,726.2,803.7,724.2,807.3,724.3z"/>
		<path class="st96" d="M496.4,333.5c-0.1,3.3-1.9,5.2-5,5.8c-5.1,0.9-9.1-1.3-11.7-5.6c-1.7-2.7-2.6-5.8,0.6-8.4
			c1.2,1.2,0.4,2.8,0.8,4.2c1.4,5.3,5.8,7.7,11.3,5.8C493.7,334.7,495,334.1,496.4,333.5z"/>
		<path class="st97" d="M492.3,335.3c-1.8,3-4.4,2.3-6.9,1.5c-2.9-0.9-4.6-3.2-5-6.1c-0.3-1.8-0.2-3.6-0.2-5.4
			c0.3-0.6,0.6-1.3,1-1.9C481.5,331.7,484.3,334.7,492.3,335.3z"/>
		<path class="st77" d="M639.8,833.4c11.8-12.1,26.5-19.7,41.7-26.4c23.8-10.4,48.5-17.9,73.2-25.6c4.3-1.3,8.7-2.4,11.5-6.3
			c0.6-1,1.6-1.8,1.4-3.1c-2.3-23.6-0.4-47.2-1-70.8c-0.2-7-0.1-14,0-21c0.1-2.9,0.2-5.8,3.7-6.9c4.2-2.4,7.1-5.8,8.8-10.3
			c0.3-2.1,0.6-4.3,1.3-6.3c0.8-2.7,0.3-5.4,0.4-8.1c0.4-3.9-1-7.3-2.8-10.6c-6.8-10.9-15.8-15-28.6-12.9c-3.8,0.4-7.4,1.4-10.6,3.7
			c-2.1,0.8-2.9,3.8-5.6,3.7c-5.4-3.5-11.6-6.2-16.1-10.7c-11.8-11.9-14.7-26.4-9.4-42.3c3.1-9.2,7.2-18.1,14.8-24.4
			c10.3-8.5,19.1-19,31.5-25c1.9-0.9,3.6-1.9,5.6-0.7c12.4,8,25.9,8.6,39.9,5.7c9.6-2,19.8-4.2,27.7-9.4c12.1-8,25.6-7.7,38.5-10.4
			c8.6-1.8,17.4-3,25.9-5.3c6.2-1.7,9.6-6.4,10.2-12.3c0.9-8.1-0.2-16-5.8-22.6c-0.6-0.8-1.5-1.6-1.6-2.5c-0.8-7.4-5.2-12.8-10-18.2
			c17.3,4.7,35.7,4.6,51.9,12.9c8.9,4.5,14.6,11.5,13.5,22.3c0,0.2,0,0.3,0,0.5c0,54.7-0.1,109.3,0,164c0,6.2-1.3,11.8-4.8,16.9
			c-1.3,3.6-4.6,4.8-7.6,6.5c-4.8,3.2-10.3,4.5-15.9,5.4c-34.7,5.3-69.4,10.7-104.1,16c-8.4,1.3-16.9,1.2-25.1,3.6
			c-1.6,0.7-3.4,1.1-4.6,2.5c-2.6,2.9-2.4,6.5-2.4,9.9c-0.1,13.5,0,26.9,0,40.4c0,12.4,5,16.9,17.2,15.6c30.8-3.4,61.4-1.5,91.6,5.2
			c8.5,1.9,16.4,5.4,24,9.5c7.1,3.8,7.5,8.1,2,13.8c-1.2,1.2-2.5,2.2-3.1,3.8c-13.5,20-34.6,29.7-55,40.3
			c-5.5,2.8-11.3,4.8-17.1,6.9c-20,5.1-40.3,8.9-60.8,10.9c-6.9,0.7-13.9,1.3-20.9,1.5c-23.8,0.7-47.5,0.6-71.1-3.1
			c-15.8-2.5-31.4-5.6-46-12.6c-4.3-2-8.6-4.6-9.2-10.3C637.6,835.4,638.4,834.2,639.8,833.4z"/>
		<path class="st77" d="M876,452.3c-7.6,11.5-5.6,19.6,3.2,24.6c2.6,1.5,4.6,3.7,7.7,4.9c3,1.2,4.1,5.4,4.1,9c0,3.4-1.7,5.1-5,6.2
			c-11.9,3.9-24.5,4.3-36.6,6.9c-4.4,0.9-8.7,2.1-13,3.2c-4.1,1.1-7.7,2.8-12.7,1.5c-4.5-1.2-9.8,2.2-14.4,4.4
			c-15,6.9-33.7,6.3-46.5-3.3c-9.2-6.9-12.7-18-9-28.9c3.3-9.7,7.1-19.3,10.7-28.9c2.2-5.9,4.1-11.8,7.4-17.1c1.1-1.8,2-2.5,4.3-2
			c19.5,4.2,39,8.2,58.6,12.2C848.2,447.8,861.7,450.9,876,452.3z"/>
		<path class="st4" d="M639.8,833.4c-0.5,1-1,1.9-1.4,2.9c-0.6,6.3,1.2,9.3,7,12.1c17.3,8.4,35.8,12.1,54.7,14.5
			c19.2,2.4,38.6,2.6,57.8,1.8c25.6-1.1,51.1-4,75.8-11c4.3-1.2,8.6-2.4,12.6-4.5c9.3-3.9,18.7-7.6,27.5-12.7
			c15.2-8.8,30.4-17.6,41.7-31.6c0.5-0.6,1.2-1.1,1.8-1.6c-5.2,15.4-18,23.7-30.5,32.1c-5,3.4-10.1,6.9-15.5,9.7
			c-11,5.7-22.8,9.7-34.7,13c-21.1,5.9-42.7,8.6-64.5,10.3c-17.3,1.3-34.6,1.3-51.8,0.6c-21.4-1-42.9-3.7-63.2-11.3
			c-6.3-2.4-12.6-4.9-18.3-8.6c-3.4-2.3-5.3-5.9-5.1-9.7C634,836.5,636.3,834,639.8,833.4z"/>
		<path class="st98" d="M770.4,673.4c-2.2,1.7-1.7,4.1-1.7,6.4c0,28.9,0,57.9,0,86.8c0,3,1,6.5-2.4,8.6c0.2-1.6,1.8-3.2-1.3-4.2
			c-2.9-1-3.7-4-3.7-7c0-32.9,0-65.9,0-98.8c0-1.6-0.3-4,2.1-3.5c2.2,0.4,5.7-0.5,5.9,3.7C769.6,667.9,768.3,670.9,770.4,673.4z"/>
		<path class="st99" d="M938.3,676.3c2.3-1.7,5.1-2.8,7-5.1c0.6,5.1-1.4,8.3-5.9,11.4c-9.3,6.2-19.7,7.1-30.1,8.7
			c-16.6,2.7-33.1,5.9-49.8,7.6c-13.8,1.4-27.5,3.5-41.2,5.4c-5.5,0.8-11.1,1.5-16.6,2.8c-4.9,1.1-9.1-1.1-13.7-1.9
			c0.5-1.5,1.5-2.6,3.1-3c1.4-0.7,2.9-0.8,4.4-0.3c3.5,1.2,6.9,0.7,10.3-0.1c10.4-2.7,21-2.8,31.6-4c9.6-1.1,19.1-2.8,28.5-4.4
			c17-2.9,34.1-5.3,51.2-8.1C925.1,684,932.2,681.5,938.3,676.3z"/>
		<path class="st4" d="M771.3,639.3c-1.5-0.6-2.1-0.1-2,1.5c0.1,2.5,0.2,5,0,7.5c-0.2,1.6,1.2,4.5-1.4,4.4c-2.3-0.1-5.4-1.1-5.5-4.6
			c-0.1-3.1,0.1-6.2-1-9.3c-1-2.9-2.2-5-5.4-6.3c-2.9-1.2-5.8-3.2-7.6-6.1c4.5-3,8.2-0.4,11.7,1.9c3.4,2.2,6.8,4.5,10,7.1
			C771.2,636.4,772.6,637.4,771.3,639.3z"/>
		<path class="st100" d="M769.3,636.3c-3-2.8-6.8-4.5-9.9-7.1c-3-2.5-7-3.5-11.1-2.9c-2.6,5.7-10.1,8.8-15,6.2
			c2.2-0.8,1.9-4.3,4.7-4.3c6.6-2.1,13-4.9,20.2-3.9c2.9,0.5,5.6,1.2,7.9,3c1.1,1.2,1.9,2.7,2.8,4.1c0.6,1.2,1.6,2.2,1.6,3.6
			C770.5,635.7,769.9,635.9,769.3,636.3z"/>
		<path class="st101" d="M769.3,636.3c0.3-0.3,0.7-0.7,1-1c1.4-0.5,2.3,0.4,2.9,1.3c4.4,6.4,6.9,13.5,8.2,21c-0.2,2-0.6,4-2.2,5.4
			c-3.3-3.1-4.3-6.9-4-11.3c0.4-4.6-1-8.9-4-12.5C771.3,637.9,770.7,636.9,769.3,636.3z"/>
		<path class="st102" d="M846.3,849.2c-5.3,5.1-12.4,6.2-19,7.9c-15.2,3.9-30.8,5.9-46.4,7.5c-13.9,1.5-27.9,1.8-42,1.8
			c-24.3-0.1-48.2-2-71.8-8.2c-8.8-2.3-17.3-5.6-25.2-10c-5.3-2.9-5.9-5.7-3.6-12c1.9,8.4,9.3,10.7,15.8,12.8
			c36.6,12,74.3,14.2,112.4,12.2c21.3-1.1,42.4-3.9,63.2-8.6C835.3,851.4,840.6,849.6,846.3,849.2z"/>
		<path class="st103" d="M938.3,676.3c-4.2,6.2-10.4,8.8-17.5,10c-18.3,3-36.5,5.9-54.8,8.7c-14.5,2.2-28.9,5.7-43.8,5.5
			c-3.1,0-6.3,0.5-9.3,1.3c-7.2,2-14.4,3.8-21.8,0.6c3.5-3.4,8.2-2,12.3-2.7c17.7-2.8,35.4-5.2,53.1-7.9c18.8-2.9,37.6-6,56.5-8.8
			C921.8,681.6,930.5,680.6,938.3,676.3z"/>
		<path class="st104" d="M756.2,824.9c0.3-4.9-0.1-9.8,1.1-14.6c4.6,0,6.5,2.3,6.2,7.7c-0.2,2.7-0.7,5.3,1.6,7.4
			c1.3,1.2,2.4,2.3,4.1,0.7c0.1-5.6,0.2-11.2,0.2-16.7c3.9-0.7,7.3,1.2,7.7,5.3c0.5,4.8,1.6,9.3,3.2,13.8
			c-3.1,6.4-11.1,8.5-17.6,4.4c-1.6-1-2.3-1.3-4.1-0.2c-4.6,2.9-9.6,2.1-14.1-0.6c-4.4-2.7-3.6-7-2.9-11.2c0.8-4.5,1.7-9.1,2.5-13.6
			c4.4,1.2,6.6,4.6,6.2,9.6c-0.2,2.1-1,4.2-0.3,6.4C751.1,826.6,753,827.1,756.2,824.9z"/>
		<path class="st104" d="M826.6,819.4c-2,5.9-7.4,6.5-12.3,7.7c-3.5,0.8-3.2-2.4-4.2-4.3c-1.3-2.7,0.8-2.2,2.2-2.8
			c3.9-1.7,2-3.5-0.1-5.4c-5-4.6-5.5-8.9-2-14.3c3.4-1,5,1.3,5.8,3.8C818.2,810.2,821.2,815.6,826.6,819.4z"/>
		<path class="st105" d="M756.2,824.9c-0.6,2.8-2.7,2.6-4.7,2.2c-1.7-0.4-2.9-1.7-3.1-3.5c-0.1-1.5-0.3-3.1,0.2-4.4
			c2-5.3-0.3-8.9-4.4-11.9c-0.3-2.9,0.9-3.3,3.2-2.1c1.1,1.5,2.8,2.1,4.4,2.9c2,1,2.4,2.4,1.6,4.4c-0.2,3.5-0.4,7-0.7,10.4
			C752.3,826.4,753.9,826.1,756.2,824.9z"/>
		<path class="st106" d="M780.4,828.4c-3.4-3.1-4.5-6.9-4.2-11.5c0.3-4.4-2.3-7-6.8-7.5c-1-5,2.8-2.7,4.8-3.1
			c2.2,0.7,3.3,2.7,4.9,4.1C780,816.3,781.4,822.3,780.4,828.4z"/>
		<path class="st107" d="M769.2,826.1c-2.2,2.7-4.1,0.6-5.9-0.5c-1.9-1.1-2.2-3-1.5-5.2c1.3-4.5,1.2-8.6-4.4-10.1
			c0.4-1.5-1.6-4.2,2-4c2.3,2.3,6.8,2.5,6.8,7c0,3.3,0.1,6.5,0.1,9.8C766.2,825.2,766.6,826.7,769.2,826.1z"/>
		<path class="st108" d="M803.1,825.4c-0.7,5.4-7.3,8.4-11.3,5c-2.5-2-3-4.4,0.5-6.2C796.1,823,799.6,823.9,803.1,825.4z"/>
		<path class="st109" d="M848.6,811.4c-0.5,2-2.1,2.9-3.7,3.7c-2.6,1.3-5.6,2-7.6-0.8c-2.1-2.9-0.7-5.2,2-7
			C842.7,807.9,846.2,808.4,848.6,811.4z"/>
		<path class="st110" d="M781.5,657.6c-4.4-7.1-4.4-16.4-11.2-22.3c-0.7-1-1.3-2-2-3c2.7-1.4,4,0.8,5.3,2.3
			c3.6,4.1,6.5,8.7,8.7,13.7C782.9,651.5,782.9,654.6,781.5,657.6z"/>
		<path class="st111" d="M766.3,628.3c-2.3-1.1-4.3-2.7-6.9-3.1c-3.3-1.3-6.9,0.5-10.2-1c10-3,24.8,1.5,29.9,13.1
			c-1.2,0.9-2.3,0.4-3.1-0.5C773,633.7,769.2,631.5,766.3,628.3z"/>
		<path class="st112" d="M766.3,628.3c5,2,7.9,6.9,12.8,9c2.1,3.4,3.5,6.9,3.2,11c-3.8-2.9-4.9-7.8-8.1-11.1c-1.8-1.9-3-4.4-5.9-4.9
			C767.8,630.9,766.2,630,766.3,628.3z"/>
		<path class="st113" d="M826.6,819.4c-7.3-1.7-8.9-8.1-11.1-13.8c-1.1-2.7-2.3-4.6-5.1-5.2c0.6-0.4,1.2-0.7,1.8-1.1
			c4.8-0.2,6.8,1.3,7.2,5.1l0,0c-1.8,3.9,1.1,6.3,3.1,8.9c1.3,1.7,3.5,2.4,4.7,4.1C827.3,818.1,827.4,818.9,826.6,819.4z"/>
		<path class="st114" d="M819.4,804.3c-1.3-3.2-4.4-4-7.2-5.1c0.7-1.2,1.8-1.8,3.1-2c2.2-0.9,4.2-0.4,5.9,1.1
			C824.7,801.6,821.3,802.7,819.4,804.3z"/>
		<path class="st114" d="M827.2,817.3c-4.8-1.1-7.3-4.5-9.2-8.6c-0.9-2-0.7-3.4,1.4-4.4c0.3,1,0.7,2,1,2.9c1.4,2.7,3.7,4.4,6.3,5.9
			C827.6,814.4,827.6,815.8,827.2,817.3z"/>
		<path class="st115" d="M749.2,624.2c3.4,0.7,6.9-0.9,10.2,1c-2.4,0-4.9,0-7.3,0.1c-2.3,0.1-4.5-0.4-6.4,2.2
			c-1.5,2-4.9,0.6-7.5,0.7C741.1,624.9,745.1,624.5,749.2,624.2z"/>
		<path class="st116" d="M753.5,812.5c-0.3-1.6-0.4-3-2.7-3.3c-2.1-0.2-3.3-1.8-3.4-4C755.1,805.3,755.1,805.3,753.5,812.5z"/>
		<path class="st117" d="M766.2,813.3c-0.9-3.7-6.4-2.8-6.8-7C766.5,806,766.5,806,766.2,813.3z"/>
		<path class="st118" d="M848.6,811.4c-3.2-1.2-6.7-1.6-9.3-4.1c0.3-0.8,1.1-1,1.9-1.1c2.8,0.3,5.6,0.5,8.1,2.2
			C849.4,809.4,849.7,810.5,848.6,811.4z"/>
		<path class="st119" d="M779.3,810.3c-3,0.3-3.6-2.3-4.9-4.1C778.7,804.3,779.9,806.2,779.3,810.3z"/>
		<path class="st120" d="M803.1,825.4c-3.7,0.5-7.2-1.1-10.8-1.1C796.2,821.5,799.9,821.6,803.1,825.4z"/>
		<path class="st121" d="M826.6,813.2c-4.1,0.2-6.1-2-6.3-5.9C823,808.7,825.7,810,826.6,813.2z"/>
		<path class="st117" d="M849.2,808.3c-3,0.2-5.8,0-8.1-2.2C844.4,804.7,847.5,804,849.2,808.3z"/>
		<path class="st122" d="M821.1,798.4c-2-0.4-3.9-0.8-5.9-1.1C817.4,796.3,820,793.5,821.1,798.4z"/>
	</g>
</g>
</svg>
