<svg width="500" height="500" viewBox="0 0 500 500" fill="none" xmlns="http://www.w3.org/2000/svg">
<path d="M377.6 99.28C377.6 99.28 337.6 65.04 284.26 78.55C230.92 92.06 207.63 137.23 176.49 167.91C160.18 183.98 136.49 189.5 117.3 201.71C55.8701 240.71 62.6901 331.95 108.53 367.37C148.22 398.03 198.6 402.32 264.77 381.94C330.94 361.56 378.24 349.5 420.43 287.68C462.62 225.86 426.76 145.64 377.6 99.28Z" fill="#1890FF"/>
<path opacity="0.7" d="M377.6 99.28C377.6 99.28 337.6 65.04 284.26 78.55C230.92 92.06 207.63 137.23 176.49 167.91C160.18 183.98 136.49 189.5 117.3 201.71C55.8701 240.71 62.6901 331.95 108.53 367.37C148.22 398.03 198.6 402.32 264.77 381.94C330.94 361.56 378.24 349.5 420.43 287.68C462.62 225.86 426.76 145.64 377.6 99.28Z" fill="white"/>
<path d="M64.1499 247.48C66.2199 248.38 71.2899 248.27 71.2899 248.27C71.2899 248.27 70.1999 244.95 70.1099 244.75C68.9899 242.42 65.4799 238.58 62.6099 238.97C62.1372 239.048 61.6862 239.225 61.2861 239.488C60.886 239.752 60.5458 240.097 60.2875 240.5C60.0291 240.904 59.8585 241.357 59.7866 241.831C59.7146 242.304 59.743 242.788 59.8699 243.25C60.3499 245.23 62.3799 246.71 64.1499 247.48Z" fill="#263238"/>
<path d="M115.42 248.59C115.42 248.59 116.34 245.22 116.42 245C116.77 242.45 115.96 237.3 113.36 236.05C112.923 235.852 112.448 235.749 111.968 235.747C111.488 235.745 111.013 235.845 110.574 236.039C110.135 236.234 109.742 236.519 109.421 236.876C109.1 237.232 108.857 237.653 108.71 238.11C108.01 240.02 108.89 242.37 109.94 243.99C111.13 245.89 115.42 248.59 115.42 248.59Z" fill="#263238"/>
<path d="M130.55 230.22C127.68 229.91 124.27 233.85 123.22 236.22C123.13 236.43 122.08 239.78 122.13 239.77H122.19C121.65 240.39 121.07 241.06 120.46 241.77C119.34 243.15 118.08 244.72 116.83 246.52C115.458 248.445 114.199 250.449 113.06 252.52C111.777 254.834 110.699 257.257 109.84 259.76C109.84 259.76 109.84 259.82 109.84 259.85C109.84 259.01 109.84 256.64 109.84 256.46C109.51 253.9 107.37 249.16 104.53 248.63C104.056 248.555 103.571 248.581 103.107 248.705C102.644 248.83 102.212 249.051 101.839 249.354C101.466 249.657 101.162 250.035 100.945 250.463C100.728 250.891 100.604 251.36 100.58 251.84C100.42 253.84 101.89 255.91 103.33 257.19C104.95 258.64 109.45 260.04 109.8 260.19C108.994 262.762 108.36 265.384 107.9 268.04C107.63 269.58 107.4 271.15 107.19 272.72C107.19 271.99 107.19 271.33 107.19 271.24C106.86 268.69 104.71 263.94 101.87 263.41C101.396 263.338 100.912 263.366 100.45 263.493C99.9871 263.62 99.5564 263.842 99.1851 264.145C98.8139 264.449 98.5103 264.827 98.2941 265.255C98.0779 265.683 97.9539 266.151 97.9299 266.63C97.7699 268.63 99.2399 270.69 100.68 271.98C102.12 273.27 105.94 274.55 106.96 274.87C106.88 275.48 106.8 276.08 106.73 276.68C106.38 279.58 106.05 282.48 105.64 285.31C105.49 286.31 105.31 287.31 105.13 288.31C105.13 287.66 105.13 287.11 105.13 287.03C104.8 284.47 102.65 279.72 99.8099 279.2C99.3365 279.127 98.8528 279.153 98.3904 279.279C97.9279 279.404 97.497 279.626 97.1256 279.928C96.7541 280.231 96.4504 280.608 96.2341 281.036C96.0177 281.463 95.8937 281.931 95.8699 282.41C95.7099 284.41 97.1799 286.48 98.6199 287.76C100.06 289.04 103.51 290.21 104.72 290.6C104.5 291.6 104.3 292.6 104.05 293.6C103.86 294.24 103.73 294.88 103.51 295.52C103.29 296.16 103.1 296.79 102.89 297.42C102.46 298.61 102.02 299.85 101.57 301C101.26 301.8 100.95 302.56 100.64 303.33C100.8 302.33 101.06 300.39 101.07 300.23C101.037 297.96 100.424 295.736 99.2899 293.77C99.2932 293.519 99.2765 293.268 99.2399 293.02C99.1799 292.544 99.0203 292.086 98.7716 291.676C98.5229 291.265 98.1906 290.912 97.7963 290.638C97.4021 290.365 96.9547 290.177 96.4833 290.088C96.0118 289.999 95.5269 290.01 95.0599 290.12C92.2699 290.86 90.4999 295.76 90.3699 298.34C90.3699 298.49 90.4599 300.15 90.5399 301.19C90.3999 300.58 90.2699 299.99 90.1199 299.37C89.8199 298.14 89.4899 296.91 89.1199 295.59C88.9299 294.96 88.7299 294.33 88.5399 293.68C88.3499 293.03 88.0899 292.39 87.8599 291.73C87.3099 290.22 86.6799 288.73 86.0099 287.22C87.0899 286.96 90.9099 285.99 92.4499 284.81C93.9899 283.63 95.5999 281.72 95.5799 279.68C95.5942 279.2 95.5071 278.723 95.3241 278.279C95.1411 277.835 94.8665 277.435 94.5182 277.104C94.1698 276.774 93.7556 276.521 93.3027 276.361C92.8498 276.202 92.3684 276.14 91.8899 276.18C89.0199 276.49 86.5299 281.07 86.0099 283.59C86.0099 283.75 85.7999 285.59 85.7299 286.59C85.3199 285.7 84.9099 284.8 84.4699 283.9C83.1899 281.32 81.8099 278.74 80.4699 276.17C80.0499 275.38 79.6499 274.59 79.2299 273.8C79.6199 273.71 84.2299 272.65 85.9099 271.33C87.4399 270.16 89.0599 268.24 89.0399 266.2C89.0543 265.72 88.9671 265.243 88.7841 264.799C88.6011 264.355 88.3265 263.955 87.9781 263.624C87.6298 263.294 87.2156 263.041 86.7627 262.881C86.3098 262.722 85.8284 262.66 85.3499 262.7C82.4799 263.01 79.9899 267.59 79.4699 270.11C79.4699 270.3 79.1899 272.97 79.1599 273.65C78.2499 271.91 77.3699 270.17 76.5699 268.41C75.4198 266.008 74.4309 263.533 73.6099 261C73.7899 261 78.6099 259.88 80.3199 258.53C81.8499 257.35 83.4699 255.44 83.4599 253.4C83.4727 252.921 83.3844 252.444 83.2009 252.001C83.0174 251.558 82.7427 251.158 82.3947 250.828C82.0467 250.498 81.6332 250.245 81.181 250.085C80.7288 249.925 80.248 249.862 79.7699 249.9C76.8899 250.21 74.3999 254.78 73.8799 257.31C73.8799 257.47 73.6599 259.51 73.5999 260.48H73.4299C72.7335 257.969 72.2551 255.403 71.9999 252.81C71.8399 251.38 71.7699 250 71.7299 248.65C72.6399 248.54 76.7899 247.99 78.5099 246.95C80.2299 245.91 81.9799 244.22 82.1899 242.19C82.2547 241.715 82.2187 241.231 82.0842 240.77C81.9498 240.31 81.72 239.883 81.4097 239.517C81.0994 239.151 80.7156 238.854 80.2832 238.646C79.8508 238.438 79.3795 238.324 78.8999 238.31C76.0099 238.31 73.0399 242.58 72.2399 245.03C72.2399 245.16 71.9099 246.57 71.7099 247.6C71.7099 246.99 71.7099 246.36 71.7099 245.78C71.7099 243.6 71.8499 241.6 71.9899 239.83C72.0799 238.83 72.1699 237.91 72.2799 237.06C73.1099 236.49 76.4499 234.13 77.4799 232.45C78.5099 230.77 79.2999 228.45 78.5499 226.53C78.3898 226.078 78.1361 225.665 77.8055 225.318C77.4748 224.971 77.0747 224.697 76.6312 224.515C76.1877 224.333 75.7107 224.246 75.2315 224.261C74.7522 224.275 74.2815 224.391 73.8499 224.6C71.2799 225.93 70.6099 231.09 71.0299 233.6C71.0299 233.82 72.0299 237.2 72.0799 237.17C71.9699 237.99 71.8599 238.86 71.7599 239.82C71.5799 241.59 71.3999 243.59 71.3499 245.82C71.2667 248.184 71.3201 250.552 71.5099 252.91C71.7182 255.547 72.16 258.161 72.8299 260.72C72.8257 260.75 72.8257 260.78 72.8299 260.81C72.3699 260.1 71.0299 258.14 70.9099 258.01C69.2299 256.06 64.8199 253.28 62.1599 254.41C61.724 254.609 61.335 254.898 61.0182 255.258C60.7015 255.618 60.4641 256.04 60.3216 256.498C60.1791 256.955 60.1347 257.438 60.1913 257.914C60.2479 258.39 60.4042 258.849 60.6499 259.26C61.6499 261.05 63.9799 261.93 65.8899 262.26C68.0399 262.58 72.5599 261.26 72.8899 261.16C73.6325 263.748 74.5479 266.284 75.6299 268.75C76.2599 270.19 76.9299 271.62 77.6299 273.05C77.2199 272.44 76.8399 271.91 76.7799 271.84C75.0999 269.89 70.6899 267.11 68.0299 268.24C67.6089 268.443 67.2342 268.731 66.9291 269.085C66.6239 269.439 66.3948 269.852 66.256 270.299C66.1172 270.745 66.0717 271.215 66.1223 271.68C66.1728 272.145 66.3184 272.594 66.5499 273C67.5499 274.78 69.8799 275.67 71.7799 275.94C73.6799 276.21 77.5999 275.18 78.6199 274.94L79.4299 276.57C80.7399 279.18 82.0599 281.78 83.2699 284.36C83.6999 285.28 84.0899 286.19 84.4799 287.1C84.1199 286.56 83.7999 286.1 83.7499 286.05C82.0599 284.1 77.6499 281.33 74.9999 282.45C74.5628 282.649 74.1727 282.939 73.8548 283.299C73.5369 283.659 73.2986 284.082 73.1552 284.541C73.0117 284.999 72.9666 285.483 73.0225 285.96C73.0785 286.437 73.2343 286.897 73.4799 287.31C74.4799 289.1 76.8099 289.98 78.7199 290.31C80.6299 290.64 84.1599 289.65 85.3699 289.31C85.7499 290.26 86.1199 291.2 86.4399 292.14C86.6499 292.78 86.8899 293.39 87.0499 294.04L87.5899 295.97C87.8899 297.2 88.1999 298.47 88.4599 299.68C88.6399 300.52 88.8099 301.33 88.9699 302.14C88.5599 301.23 87.6999 299.46 87.6099 299.32C86.2399 297.13 82.3099 293.72 79.5099 294.43C79.048 294.561 78.6189 294.787 78.2505 295.095C77.8822 295.403 77.583 295.785 77.3725 296.216C77.162 296.647 77.045 297.118 77.029 297.598C77.0131 298.078 77.0986 298.556 77.2799 299C77.9799 300.92 80.1699 302.15 82.0099 302.71C84.0099 303.33 88.5299 302.77 89.0899 302.71C89.3599 304.05 89.6099 305.36 89.8199 306.6C90.5799 310.89 91.0399 314.49 91.3299 317.01C91.3899 317.46 91.4299 317.86 91.4699 318.23H82.7799L85.4599 370.56H101.26L103.94 318.23H95.8399L96.0199 317.86C97.1299 315.55 98.6699 312.22 100.34 308.15C100.86 306.86 101.4 305.48 101.94 304.05C102.49 304.17 106.94 305.05 109 304.6C110.88 304.18 113.16 303.11 114 301.26C114.213 300.829 114.333 300.359 114.353 299.878C114.372 299.398 114.289 298.919 114.111 298.473C113.933 298.027 113.662 297.623 113.318 297.288C112.973 296.953 112.561 296.695 112.11 296.53C109.38 295.61 105.2 298.72 103.67 300.8C103.58 300.92 102.74 302.36 102.23 303.27C102.45 302.69 102.67 302.13 102.89 301.52C103.32 300.33 103.73 299.13 104.16 297.84L104.73 295.93C104.94 295.29 105.07 294.6 105.25 293.93C105.62 292.36 105.92 290.76 106.19 289.14C107.19 289.52 110.96 290.82 112.89 290.68C114.82 290.54 117.22 289.84 118.33 288.13C118.606 287.738 118.795 287.291 118.887 286.821C118.979 286.35 118.97 285.865 118.861 285.398C118.753 284.931 118.547 284.492 118.257 284.11C117.967 283.727 117.6 283.411 117.18 283.18C114.62 281.85 110.02 284.29 108.18 286.11C108.06 286.23 106.9 287.68 106.27 288.49C106.43 287.49 106.59 286.54 106.71 285.55C107.06 282.69 107.33 279.78 107.62 276.87C107.7 275.98 107.8 275.1 107.89 274.21C108.26 274.35 112.66 275.99 114.82 275.84C116.74 275.7 119.15 275 120.27 273.29C120.551 272.895 120.745 272.445 120.84 271.97C120.935 271.494 120.927 271.004 120.819 270.532C120.71 270.059 120.502 269.615 120.21 269.229C119.917 268.842 119.545 268.522 119.12 268.29C116.55 266.97 111.95 269.41 110.12 271.23C109.98 271.37 108.31 273.46 107.91 274.01C108.12 272.06 108.34 270.12 108.64 268.21C109.03 265.637 109.584 263.092 110.3 260.59C110.47 260.65 115.06 262.38 117.3 262.22C119.22 262.09 121.63 261.38 122.74 259.68C123.022 259.286 123.216 258.836 123.312 258.361C123.407 257.886 123.401 257.396 123.293 256.924C123.185 256.452 122.979 256.007 122.687 255.621C122.395 255.234 122.025 254.913 121.6 254.68C119.03 253.36 114.43 255.8 112.6 257.62C112.48 257.74 111.2 259.33 110.6 260.1L110.46 260.02C111.242 257.522 112.246 255.099 113.46 252.78C114.11 251.5 114.81 250.31 115.52 249.16C116.34 249.57 120.11 251.4 122.12 251.48C124.13 251.56 126.51 251.12 127.81 249.54C128.118 249.18 128.348 248.761 128.485 248.308C128.622 247.855 128.664 247.378 128.608 246.908C128.551 246.438 128.398 245.985 128.157 245.577C127.917 245.17 127.594 244.817 127.21 244.54C124.8 242.95 119.96 244.87 117.95 246.47C117.84 246.56 116.82 247.57 116.09 248.32C116.42 247.81 116.74 247.27 117.09 246.79C118.3 244.97 119.51 243.38 120.6 241.98C121.23 241.19 121.81 240.48 122.36 239.83C123.36 239.83 127.47 239.69 129.25 238.83C131.03 237.97 132.99 236.48 133.41 234.49C133.535 234.02 133.558 233.529 133.478 233.049C133.398 232.569 133.217 232.112 132.946 231.708C132.676 231.304 132.322 230.962 131.909 230.705C131.495 230.449 131.032 230.283 130.55 230.22ZM98.7599 307.37C97.0199 311.37 95.4299 314.63 94.2799 316.89C94.0499 317.35 93.8399 317.75 93.6499 318.12H93.4499C93.4499 317.68 93.3299 317.2 93.2599 316.66C92.9099 314.11 92.3599 310.49 91.4999 306.17C91.2299 304.81 90.9199 303.36 90.5899 301.87C91.9589 301.33 93.2946 300.709 94.5899 300.01C96.0599 301.61 99.8499 303.49 100.34 303.73C99.7799 305 99.2599 306.22 98.7599 307.37Z" fill="#263238"/>
<path d="M186.77 319.1C186.77 319.1 187 326.04 187 329.39C186.815 333.027 185.381 336.488 182.94 339.19C181.591 340.617 179.852 341.615 177.94 342.06C177.647 342.079 177.354 342.023 177.089 341.896C176.825 341.77 176.597 341.577 176.428 341.337C176.259 341.097 176.155 340.818 176.126 340.526C176.096 340.234 176.142 339.939 176.26 339.67C176.74 338.24 177.7 333.67 177.7 333.67C177.7 333.67 177.7 331.52 177.94 328.89C178.205 326.98 178.768 325.124 179.61 323.39L179.85 317.39L186.77 319.1Z" fill="white" stroke="#263238" stroke-linecap="round" stroke-linejoin="round"/>
<path d="M172.65 216C172.65 216 180.07 220.31 181.26 233C182.45 245.69 186.53 281.07 187 288.73C187.47 296.39 190.83 318.62 190.83 318.62C189.264 320.381 187.15 321.561 184.83 321.97C182.211 322.278 179.577 322.438 176.94 322.45C176.94 322.45 172.87 239.7 172.87 238.74C172.87 237.78 172.65 216 172.65 216Z" fill="white" stroke="#263238" stroke-linecap="round" stroke-linejoin="round"/>
<path d="M124.82 301.88C124.82 301.88 125.02 302 125.39 302.19C131.314 304.999 137.843 306.291 144.39 305.95C156.39 305.47 171.9 297.82 171.9 297.82L172.14 366.7C172.14 366.7 141.04 376.5 125.74 376.5L120.24 376.26L124.82 301.88Z" fill="#263238" stroke="#263238" stroke-linecap="round" stroke-linejoin="round"/>
<path d="M141.8 203.35C136.168 207.001 130.339 210.339 124.34 213.35C117.17 216.7 110.23 228.18 109.99 233.44C109.75 238.7 126.26 305 126.26 305C126.26 305 141.8 310 155.43 308.11C169.06 306.22 171.94 297.83 171.94 297.83C171.94 297.83 172.18 218.18 170.02 215.08C167.86 211.98 150.65 201.19 141.8 203.35Z" fill="white" stroke="#263238" stroke-linecap="round" stroke-linejoin="round"/>
<path d="M155 207.65C155 207.65 155.95 216.5 157.63 238.74C159.31 260.98 159.78 351.15 159.78 351.15L160.26 370.28C160.26 370.28 172.46 368.37 176.04 365.5C177.756 364.206 179.359 362.767 180.83 361.2C180.83 361.2 179.63 296.62 179.63 277.49C179.513 264.984 178.392 252.507 176.28 240.18C176.28 240.18 175.56 220.81 173.41 216.98C171.26 213.15 157.87 205.98 157.15 205.98C156.43 205.98 154.48 204.54 155 207.65Z" fill="white" stroke="#263238" stroke-linecap="round" stroke-linejoin="round"/>
<path d="M176.58 271.1L164.6 272.4V251.06L176.58 249.76V271.1Z" fill="#1890FF" stroke="#263238" stroke-linecap="round" stroke-linejoin="round"/>
<path d="M172.08 252.46L169.09 252.65V245.54L172.08 245.35V252.46Z" fill="white" stroke="#263238" stroke-linecap="round" stroke-linejoin="round"/>
<path d="M159.74 233.24L165.96 230.85C166.17 222.98 161.66 210.39 160.66 207.7C159.531 207.021 158.343 206.445 157.11 205.98C156.39 205.98 154.48 204.54 154.96 207.65C154.96 207.65 155.91 216.5 157.59 238.74C158.03 244.61 158.39 255.21 158.68 267.64C158.89 269.75 159.02 271.03 159.02 271.03L163.81 236.35L159.74 233.24Z" fill="white" stroke="#263238" stroke-linecap="round" stroke-linejoin="round"/>
<path d="M160.94 145.71C160.94 145.71 147.54 140.71 137.94 142.84C128.34 144.97 122.63 150.49 117.37 159.58C112.11 168.67 108.56 188.76 109 195C109.44 201.24 109.24 204.32 110.67 204.56C112.418 204.731 114.174 204.811 115.93 204.8C115.93 204.8 116.17 206 118.8 206C121.43 206 122.15 204.56 122.15 204.56C123.099 205.306 124.297 205.664 125.5 205.56C126.778 205.278 127.895 204.506 128.61 203.41C129.491 203.434 130.369 203.514 131.24 203.65C132.327 203.756 133.42 203.503 134.35 202.93C135.391 203.429 136.56 203.596 137.7 203.41C139.85 203.17 140.81 200.78 140.81 200.78C143.075 201.453 145.394 201.931 147.74 202.21C148.926 202.182 150.083 201.837 151.09 201.21C151.09 201.21 154.44 201.45 156.09 201.45C157.315 201.395 158.526 201.156 159.68 200.74C159.68 200.74 166.85 201.93 168.77 200.74C169.926 200.012 170.973 199.123 171.88 198.1C172.403 198.383 172.995 198.511 173.588 198.47C174.181 198.43 174.751 198.221 175.23 197.87L177.14 196.67C178.414 196.741 179.676 196.389 180.73 195.67C181.259 195.385 181.71 194.974 182.043 194.473C182.376 193.973 182.581 193.398 182.64 192.8C182.64 192.8 185.75 192.09 186.47 190.89C186.88 190.243 187.124 189.504 187.18 188.74C187.18 188.74 188.62 187.3 188.62 186.35V184C188.62 184 182.4 182.09 178.1 170.61C173.8 159.13 177.1 152.91 172.36 147.89C167.62 142.87 160.94 145.71 160.94 145.71Z" fill="#263238" stroke="#263238" stroke-linecap="round" stroke-linejoin="round"/>
<path d="M139.41 187.08C139.41 187.08 139.65 208.85 140.13 214.08C140.61 219.31 148.26 233.45 151.13 232.26C154 231.07 158.3 197.82 158.3 197.82L144.19 187.29C144.19 187.29 140.85 184.45 139.41 187.08Z" fill="#CE7A63" stroke="#263238" stroke-linecap="round" stroke-linejoin="round"/>
<path d="M157.59 156.71C157.59 156.71 148.98 167.87 145.15 172.65C141.32 177.43 132.4 184.13 132.4 184.13C132.4 184.13 133.99 188.92 135.9 189.87C137.089 190.447 138.418 190.669 139.73 190.51C139.73 190.51 151.53 199.76 155.67 202.31C159.81 204.86 167.15 202.63 168.75 199.44C170.35 196.25 172.24 182.73 172.24 178.9C172.24 175.07 170.47 167.12 168.24 163.9C166.01 160.68 157.59 156.71 157.59 156.71Z" fill="#CE7A63" stroke="#263238" stroke-linecap="round" stroke-linejoin="round"/>
<path d="M139.73 190.51C139.73 190.51 151.53 199.76 155.67 202.31C159.81 204.86 167.15 202.63 168.75 199.44C170.35 196.25 172.24 182.73 172.24 178.9C172.24 178.29 172.19 177.57 172.11 176.78C170.81 176.78 167.74 176.64 164.06 176.64C159.19 176.64 154.66 178.03 148.06 180.12C144.309 181.373 140.329 181.789 136.4 181.34C137.694 182.221 139.191 182.758 140.75 182.9C142.84 182.9 143.19 184.65 142.67 187.08C142.467 187.835 142.098 188.535 141.589 189.129C141.081 189.722 140.445 190.194 139.73 190.51Z" fill="#1890FF" stroke="#263238" stroke-linecap="round" stroke-linejoin="round"/>
<path d="M157.1 173.85C157.1 173.85 153.27 171.59 150.48 175.07" stroke="#263238" stroke-linecap="round" stroke-linejoin="round"/>
<path d="M165.45 173.33C165.45 173.33 167.37 170.72 170.33 172.98" stroke="#263238" stroke-linecap="round" stroke-linejoin="round"/>
<path d="M164.58 169.33C164.58 169.33 162.15 171.76 164.41 175.94" stroke="#263238" stroke-linecap="round" stroke-linejoin="round"/>
<path d="M165.11 167.58C165.11 167.58 166.85 165.32 169.98 168.8" stroke="#263238" stroke-width="2" stroke-linecap="round" stroke-linejoin="round"/>
<path d="M157.79 168.28C157.79 168.28 153.27 164.8 149.09 170.54" stroke="#263238" stroke-width="2" stroke-linecap="round" stroke-linejoin="round"/>
<path d="M139.41 205C139.222 215.256 140.022 225.507 141.8 235.61C144.67 250.44 149.01 313.76 149.01 313.76V372.09C149.01 372.09 148.13 384.81 129.71 390.52C118.71 393.91 105.21 387.93 105.21 387.93C105.21 387.93 105.69 288.71 105.69 286.56C105.69 284.41 104.25 240.16 104.97 234.42C105.69 228.68 105.45 226.29 107.6 223.42C109.75 220.55 129.84 209.31 129.84 209.31L139.41 205Z" fill="white" stroke="#263238" stroke-linecap="round" stroke-linejoin="round"/>
<path d="M139.41 205C139.41 205 130.32 207.63 129.84 209.31C129.36 210.99 129.37 226.05 130.56 230.59C131.202 232.867 131.683 235.186 132 237.53L138.69 235.85L132.47 243.03C132.47 243.03 135.11 243.75 137.47 249.72C139.83 255.69 142.73 271.25 142.73 271.25L146.34 282.61L143.21 243.51C143.21 243.51 142.49 229.4 141.53 224.85C140.57 220.3 138.69 205.5 139.41 205Z" fill="white" stroke="#263238" stroke-linecap="round" stroke-linejoin="round"/>
<path d="M166 227C166 227 170.78 213.13 172.22 210.74C173.66 208.35 177 204.74 178.67 202.37C180.34 200 181.07 203.09 181.07 203.09C181.07 203.09 180.59 206.67 179.87 207.39C179.06 208.444 178.341 209.565 177.72 210.74C177.72 210.74 183.44 210.98 185.36 210.5C186.048 210.379 186.758 210.47 187.393 210.761C188.029 211.052 188.561 211.53 188.92 212.13C190.07 214.19 188.64 214.38 187.73 215.79C185.92 218.6 187.73 222.48 185.61 225.09C183.7 227.48 179.61 227.72 177.24 228.2C175.702 228.517 174.184 228.918 172.69 229.4L171 233.24L164.78 229.89L166 227Z" fill="#CE7A63" stroke="#263238" stroke-linecap="round" stroke-linejoin="round"/>
<path d="M122 234.2L133.24 263.85L166 227L173.89 234.18C173.89 234.18 149.73 273.88 145.19 279.62C140.65 285.36 135.38 292.3 130.6 292.53C125.82 292.76 123.9 287.53 121.51 284.16C119.12 280.79 107.16 254.75 106.68 251.88C106.2 249.01 105.49 246.88 107.16 243.98" fill="white"/>
<path d="M122 234.2L133.24 263.85L166 227L173.89 234.18C173.89 234.18 149.73 273.88 145.19 279.62C140.65 285.36 135.38 292.3 130.6 292.53C125.82 292.76 123.9 287.53 121.51 284.16C119.12 280.79 107.16 254.75 106.68 251.88C106.2 249.01 105.49 246.88 107.16 243.98" stroke="#263238" stroke-linecap="round" stroke-linejoin="round"/>
<path d="M133.19 263.85C133.19 263.85 126.73 270.07 126.26 274.14" stroke="#263238" stroke-linecap="round" stroke-linejoin="round"/>
<path d="M128.89 265.05C126.355 266.347 124.333 268.461 123.15 271.05" stroke="#263238" stroke-linecap="round" stroke-linejoin="round"/>
<path d="M195.78 347.6V135.03H199.95V347.6" fill="#263238"/>
<path d="M195.78 347.6V135.03H199.95V347.6" stroke="#263238" stroke-linecap="round" stroke-linejoin="round"/>
<path d="M186.58 138.77C186.812 138.8 187.036 138.875 187.239 138.992C187.442 139.108 187.62 139.264 187.763 139.45C187.905 139.636 188.009 139.849 188.069 140.075C188.128 140.302 188.142 140.538 188.11 140.77C187.86 142.56 183.26 143.58 182.23 139.77C181.2 135.96 183.77 134.92 183.77 134.92H212.66C212.66 134.92 210.11 139.01 210.66 140.8C210.749 141.205 210.953 141.575 211.249 141.865C211.545 142.156 211.919 142.353 212.326 142.434C212.733 142.515 213.154 142.475 213.538 142.32C213.923 142.164 214.253 141.9 214.49 141.56C215.77 140.03 213.73 139.01 213.73 139.01" stroke="#263238" stroke-linecap="round" stroke-linejoin="round"/>
<path d="M403.46 185.97L224.97 169.25V143.86L403.46 160.57V185.97Z" fill="white" stroke="#263238" stroke-linecap="round" stroke-linejoin="round"/>
<path d="M326.15 174.94L287.5 171.31V156.91L326.15 160.53V174.94Z" fill="#A6A6A6" stroke="#263238" stroke-linecap="round" stroke-linejoin="round"/>
<path d="M240.69 163.33C240.675 162.555 240.379 161.812 239.856 161.24C239.333 160.667 238.62 160.305 237.85 160.22C237.488 160.175 237.121 160.209 236.773 160.319C236.425 160.429 236.105 160.613 235.835 160.858C235.564 161.103 235.35 161.403 235.206 161.738C235.062 162.073 234.991 162.435 235 162.8C235.015 163.575 235.311 164.318 235.834 164.89C236.356 165.463 237.07 165.825 237.84 165.91C238.202 165.953 238.568 165.918 238.915 165.807C239.262 165.696 239.582 165.513 239.852 165.268C240.122 165.024 240.336 164.724 240.481 164.39C240.625 164.056 240.697 163.694 240.69 163.33V163.33Z" stroke="#263238" stroke-linecap="round" stroke-linejoin="round"/>
<path d="M250.93 164.29C250.913 163.514 250.614 162.771 250.09 162.199C249.566 161.627 248.851 161.265 248.08 161.18C247.719 161.137 247.352 161.172 247.006 161.283C246.659 161.394 246.341 161.577 246.071 161.822C245.802 162.067 245.588 162.366 245.445 162.701C245.302 163.035 245.232 163.396 245.24 163.76C245.253 164.534 245.549 165.277 246.072 165.849C246.595 166.42 247.31 166.779 248.08 166.86C248.441 166.904 248.808 166.871 249.155 166.761C249.502 166.652 249.821 166.469 250.091 166.225C250.362 165.982 250.576 165.683 250.721 165.349C250.866 165.015 250.937 164.654 250.93 164.29V164.29Z" stroke="#263238" stroke-linecap="round" stroke-linejoin="round"/>
<path d="M261.16 165.25C261.145 164.475 260.849 163.732 260.326 163.16C259.803 162.587 259.09 162.225 258.32 162.14C257.959 162.096 257.592 162.129 257.245 162.239C256.898 162.348 256.579 162.531 256.308 162.775C256.038 163.018 255.824 163.317 255.679 163.651C255.534 163.985 255.463 164.346 255.47 164.71C255.485 165.486 255.783 166.231 256.308 166.803C256.832 167.376 257.548 167.737 258.32 167.82C258.68 167.863 259.046 167.828 259.392 167.718C259.737 167.608 260.056 167.425 260.325 167.181C260.594 166.938 260.808 166.639 260.952 166.306C261.096 165.973 261.167 165.613 261.16 165.25V165.25Z" stroke="#263238" stroke-linecap="round" stroke-linejoin="round"/>
<path d="M271.39 166.21C271.377 165.434 271.082 164.69 270.559 164.117C270.036 163.545 269.321 163.183 268.55 163.1C268.19 163.057 267.824 163.092 267.478 163.202C267.132 163.312 266.814 163.495 266.545 163.739C266.276 163.982 266.062 164.281 265.918 164.614C265.774 164.947 265.703 165.307 265.71 165.67C265.725 166.445 266.021 167.188 266.544 167.76C267.066 168.333 267.78 168.695 268.55 168.78C268.91 168.823 269.276 168.788 269.622 168.678C269.967 168.568 270.286 168.385 270.555 168.141C270.824 167.898 271.038 167.599 271.182 167.266C271.326 166.933 271.397 166.573 271.39 166.21Z" stroke="#263238" stroke-linecap="round" stroke-linejoin="round"/>
<path d="M339.42 162.53V166.7" stroke="#263238" stroke-linecap="round" stroke-linejoin="round"/>
<path d="M346.62 163.21V167.38" stroke="#263238" stroke-linecap="round" stroke-linejoin="round"/>
<path d="M339.42 170.53V174.69" stroke="#263238" stroke-linecap="round" stroke-linejoin="round"/>
<path d="M346.62 171.2V175.37" stroke="#263238" stroke-linecap="round" stroke-linejoin="round"/>
<path d="M351.6 162.93V177.14" stroke="#263238" stroke-linecap="round" stroke-linejoin="round"/>
<path d="M357.42 164.22V168.39" stroke="#263238" stroke-linecap="round" stroke-linejoin="round"/>
<path d="M364.62 164.89V169.06" stroke="#263238" stroke-linecap="round" stroke-linejoin="round"/>
<path d="M357.42 172.21V176.38" stroke="#263238" stroke-linecap="round" stroke-linejoin="round"/>
<path d="M364.62 172.89V177.06" stroke="#263238" stroke-linecap="round" stroke-linejoin="round"/>
<path d="M369.6 164.62V178.83" stroke="#263238" stroke-linecap="round" stroke-linejoin="round"/>
<path d="M375.42 165.91V170.07" stroke="#263238" stroke-linecap="round" stroke-linejoin="round"/>
<path d="M382.62 166.58V170.75" stroke="#263238" stroke-linecap="round" stroke-linejoin="round"/>
<path d="M375.42 173.9V178.07" stroke="#263238" stroke-linecap="round" stroke-linejoin="round"/>
<path d="M382.62 174.57V178.74" stroke="#263238" stroke-linecap="round" stroke-linejoin="round"/>
<path d="M387.6 166.31V180.51" stroke="#263238" stroke-linecap="round" stroke-linejoin="round"/>
<path d="M175.45 338.15L173.96 307.54L189.12 300.7L190.31 331.32L175.45 338.15Z" fill="white" stroke="#263238" stroke-linecap="round" stroke-linejoin="round"/>
<path d="M162.37 307.54C142.16 318.54 134.98 326.07 133.24 339.04C132.35 345.69 133.24 373.52 133.24 373.52L138.24 369.96L138.54 362.82L225.63 313.19L225.93 283.19C225.93 283.19 182.58 296.54 162.37 307.54ZM223 311.1L139.19 357.47C139.19 357.47 138.27 343.3 140.08 337.86C142.59 330.27 144.16 325.81 155.18 319.25C160.61 316.02 180.5 305.75 194.47 299.81C208.44 293.87 223.3 288.81 223.3 288.81L223 311.1Z" fill="white" stroke="#263238" stroke-linecap="round" stroke-linejoin="round"/>
<path d="M382.24 253.44C379.1 249.94 364.35 247.97 364.35 247.97L266.1 231.67C266.1 231.67 256.61 232.79 254.57 236.32C252.91 239.501 251.48 242.796 250.29 246.18H250.5L218.33 332.29L353 374.67C353 374.67 382.54 282.17 383.54 277.84C384.54 273.51 385.57 255.44 382.24 253.44Z" fill="#4C4C4C" stroke="#263238" stroke-linecap="round" stroke-linejoin="round"/>
<path d="M379.33 251.33C382.84 253.02 382.67 257.67 381.67 262C380.67 266.33 345.33 369 345.33 369L210.66 326.67L243.66 238.33C243.66 238.33 245.33 232.33 250 230.67L250.87 230.37C254.858 229.153 259.081 228.916 263.18 229.68C283.45 233.29 373.8 248.67 379.33 251.33Z" fill="#263238" stroke="#263238" stroke-linecap="round" stroke-linejoin="round"/>
<path d="M336.52 252.67C336.52 252.67 356.52 259 361.68 260.67C366.84 262.34 365.68 265.33 364.88 268.67C364.08 272.01 334.88 331.67 332.88 333C330.88 334.33 330.09 335.33 326.88 335.33C323.67 335.33 243 316.33 228.22 314.33C213.44 312.33 262.57 235.67 262.57 235.67L336.52 252.67Z" fill="white" stroke="#263238" stroke-linecap="round" stroke-linejoin="round"/>
<path d="M248.66 222C248.66 222 244.33 227.33 242.33 244.33C240.33 261.33 234.33 284.67 234.33 287.33C234.33 289.99 239 290.67 252.67 297.33C266.34 303.99 316.33 311.67 321.33 312.33C326.33 312.99 334.33 316.33 336.33 314.33C338.33 312.33 348.33 286.67 351 269.67C353.67 252.67 356.67 239 356.67 234.33C356.67 229.66 331.33 224.33 308 219.33C284.67 214.33 253.67 213.67 252.33 214C250.99 214.33 248.66 222 248.66 222Z" fill="white" stroke="#263238" stroke-linecap="round" stroke-linejoin="round"/>
<path d="M292.78 266.33C292.78 266.33 299.64 265.62 304.13 266.33" stroke="#263238" stroke-linecap="round" stroke-linejoin="round"/>
<path d="M309.34 238.18C313.644 236.37 318.182 235.175 322.82 234.63" stroke="#263238" stroke-linecap="round" stroke-linejoin="round"/>
<path d="M272.9 270.12C272.9 270.12 265.33 263.5 259.9 261.84" stroke="#263238" stroke-linecap="round" stroke-linejoin="round"/>
<path d="M222.12 224.85C222.12 224.85 216.96 238.85 215.52 243.61C214.08 248.37 213.66 267.12 213.66 271.24C213.784 274.899 214.118 278.549 214.66 282.17L215.9 298.66C215.9 298.66 201.67 298.46 199.2 297.66C196.73 296.86 197.14 291.48 197.14 279.93C197.14 268.38 203.14 247.93 204.35 243.02C205.56 238.11 207.45 229.62 207.45 229.62C207.45 229.62 204.77 221.37 204.77 218.49C204.77 215.61 213 213.3 217 212.68C221 212.06 223.6 212.89 224 216.39C224.4 219.89 222.12 224.85 222.12 224.85Z" fill="#6A5454" stroke="#263238" stroke-linecap="round" stroke-linejoin="round"/>
<path d="M208.51 210.62C208.51 210.62 205 211.24 204.8 212.48C204.6 213.72 206.24 219.9 207.68 220.31C207.992 220.413 208.323 220.446 208.65 220.405C208.976 220.364 209.289 220.25 209.566 220.073C209.842 219.896 210.076 219.659 210.25 219.38C210.424 219.101 210.533 218.787 210.57 218.46C210.57 217.22 208.51 210.62 208.51 210.62Z" fill="#6A5454" stroke="#263238" stroke-linecap="round" stroke-linejoin="round"/>
<path d="M212.84 208.15C212.84 208.15 209.33 207.94 208.51 209.8C207.69 211.66 208.92 217.22 210.57 218.46C212.22 219.7 213.66 217.46 213.66 217.46L212.84 208.15Z" fill="#6A5454" stroke="#263238" stroke-linecap="round" stroke-linejoin="round"/>
<path d="M217.58 207.53C217.58 207.53 213.04 206.7 212.84 208.15C212.64 209.6 213.25 216.6 213.66 217.43C214.07 218.26 216.96 217.43 217.58 216.6C218.2 215.77 217.58 207.53 217.58 207.53Z" fill="#6A5454" stroke="#263238" stroke-linecap="round" stroke-linejoin="round"/>
<path d="M217.58 207.53C217.58 207.53 217.37 214.95 218.2 215.78C219.03 216.61 222.12 217.43 222.73 215.98C223.34 214.53 223.56 209.18 223.35 208.15C223.14 207.12 220.26 205.67 217.58 207.53Z" fill="#6A5454" stroke="#263238" stroke-linecap="round" stroke-linejoin="round"/>
<path d="M219.44 229.18C219.44 229.18 225 223.82 225.83 221.34C226.66 218.86 225.62 213.34 225 212.06C224.38 210.78 217.17 211.45 215.93 211.86C214.69 212.27 213.66 213.3 214.69 214.13C215.72 214.96 219.85 214.95 219.85 214.95C219.85 214.95 216.34 218.87 216.55 222.37" fill="#6A5454"/>
<path d="M219.44 229.18C219.44 229.18 225 223.82 225.83 221.34C226.66 218.86 225.62 213.34 225 212.06C224.38 210.78 217.17 211.45 215.93 211.86C214.69 212.27 213.66 213.3 214.69 214.13C215.72 214.96 219.85 214.95 219.85 214.95C219.85 214.95 216.34 218.87 216.55 222.37" stroke="#263238" stroke-linecap="round" stroke-linejoin="round"/>
<path d="M272.84 258C272.84 258 271.39 271 271.39 271.61C271.39 272.22 273.25 273.06 262.94 270.38C252.63 267.7 249.54 265.84 247.06 267.08C244.58 268.32 213.87 281.51 213.87 281.51V303.57C213.87 303.57 226.45 301.1 229.95 300.27C233.45 299.44 239.64 298.62 239.64 298.62L231.19 325.22C242.193 323.835 253.351 324.325 264.19 326.67C281.1 330.58 304.81 339.86 304.81 339.86C304.81 339.86 315.32 288.31 315.32 286.86C315.32 285.41 291 275 291 275L294.1 263C294.1 263 282.74 263.2 272.84 258Z" fill="#1890FF" stroke="#263238" stroke-linecap="round" stroke-linejoin="round"/>
<path d="M291 275L294.1 263C294.1 263 282.76 263.21 272.86 258.05C272.86 258.05 271.41 271.05 271.41 271.66C271.41 272.27 272.74 272.86 266.9 271.43C267.06 273.97 267.98 288.78 268.73 293.11C269.063 295.621 269.981 298.019 271.41 300.11V305.26L274.3 300.73C274.3 300.73 283.79 295.57 288.73 287.73C291.004 284.17 292.872 280.366 294.3 276.39L291 275Z" fill="#6A5454" stroke="#263238" stroke-linecap="round" stroke-linejoin="round"/>
<path d="M268.49 276.68L274.95 279.17L275.95 281.41" stroke="#263238" stroke-linecap="round" stroke-linejoin="round"/>
<path d="M280.43 282.65C280.632 282.242 280.954 281.905 281.352 281.683C281.75 281.462 282.206 281.367 282.66 281.41C284.16 281.66 290.13 282.9 290.13 282.9" stroke="#263238" stroke-linecap="round" stroke-linejoin="round"/>
<path d="M243.76 282.79L239.64 298.66L241.29 281.55" stroke="#263238" stroke-linecap="round" stroke-linejoin="round"/>
<path d="M271 238.05C271 238.05 271.33 234.53 269.07 235C266.81 235.47 267.82 242.87 268.49 245.12C269.16 247.37 271.4 246.12 271.4 246.12L271 238.05Z" stroke="#263238" stroke-linecap="round" stroke-linejoin="round"/>
<path d="M268.76 241.61C268.76 241.61 267.59 252.77 268.71 256.67C269.83 260.57 274.55 267.67 279.34 269.61C284.13 271.55 292.65 265.78 295.89 263.43C299.13 261.08 300.47 256.51 300.47 256.51C300.47 256.51 306.17 253.51 308.33 249.1C310.49 244.69 308.33 242.29 308.33 242.29C307.765 239.791 307.633 237.214 307.94 234.67C308.46 230.53 309.31 223.09 300.6 221.24C291.89 219.39 283.27 220.84 279.21 223.61C275.15 226.38 270.68 228.98 270.51 230.61C270.34 232.24 268.76 241.61 268.76 241.61Z" fill="#6A5454" stroke="#263238" stroke-linecap="round" stroke-linejoin="round"/>
<path d="M277.6 211.15C275.355 213.773 277.167 211.586 275.06 212.58C273.23 213.66 272.23 216.23 272.23 216.23L270.38 219.85C270.38 219.85 271.1 220.54 269.32 223.47C268.231 225.258 269.311 225.142 268.57 227.1L268.41 229.18C268.41 229.18 268.27 231.86 268.29 230.69L268.39 234.81L268.76 241.61L272.5 229.18L277.6 225.43H286.68C286.68 225.43 286.26 225.23 290.44 226.08C294.358 225.942 292.234 228.221 295.94 226.94L298.55 228.51L303.42 229.82C303.42 229.82 301.94 230.69 302.42 236.28C303.74 239.55 304 242 304 242L303.09 247.18L306.7 242.76L308.33 242.3C308.33 242.3 310.55 233.5 310.55 229.21C311.48 225.06 306.94 219.77 305.41 216.3C303.88 212.83 302.42 212.58 293.23 210.58C287.741 210.273 285.241 208.95 279.99 210.58L277.6 211.15Z" fill="#263238" stroke="#263238" stroke-linecap="round" stroke-linejoin="round"/>
<path d="M274.07 239.62C274.07 239.62 278.14 237.46 280.68 240.08" stroke="#263238" stroke-linecap="round" stroke-linejoin="round"/>
<path d="M289.19 242.14C289.19 242.14 293.27 240.39 295.62 243.64" stroke="#263238" stroke-linecap="round" stroke-linejoin="round"/>
<path d="M283.4 241.46C283.4 241.46 280.84 246.46 281.31 248.93C281.78 251.4 285.24 249.46 285.24 249.46" stroke="#263238" stroke-linecap="round" stroke-linejoin="round"/>
<path d="M277.48 252.53C277.48 252.53 280.88 256.53 288.04 254.34" stroke="#263238" stroke-linecap="round" stroke-linejoin="round"/>
<path d="M290.44 234.27C290.44 234.27 294.34 233.35 297.13 237.82" stroke="#263238" stroke-width="2" stroke-linecap="round" stroke-linejoin="round"/>
<path d="M282.35 232.41C282.35 232.41 276.52 230.08 273.91 233.03" stroke="#263238" stroke-width="2" stroke-linecap="round" stroke-linejoin="round"/>
<path d="M87 399.33C87 399.33 201.33 326 203 325.33C212.347 321.691 222.075 319.122 232 317.67C246.66 315.67 276 320.67 293 329.67C310 338.67 340 358.33 345.67 363.33C351.34 368.33 352.33 379.33 352.33 379.33L352 395" fill="white"/>
<path d="M87 399.33C87 399.33 201.33 326 203 325.33C212.347 321.691 222.075 319.122 232 317.67C246.66 315.67 276 320.67 293 329.67C310 338.67 340 358.33 345.67 363.33C351.34 368.33 352.33 379.33 352.33 379.33L352 395" stroke="#263238" stroke-linecap="round" stroke-linejoin="round"/>
<path d="M180.11 340.06C180.11 340.06 213.04 329.81 266.66 346.73C320.28 363.65 334.31 387.97 335.13 391.27C335.95 394.57 335.55 411.9 335.55 411.9" stroke="#263238" stroke-linecap="round" stroke-linejoin="round"/>
<path d="M307.07 332.89L308.07 338.05L270.57 359.9L253.66 360.11C253.66 360.11 245 363.82 246.03 364.65C247.06 365.48 251.6 363.82 251.6 363.82L255.52 363.2L248.1 366.71L241.29 372.71C241.29 372.71 240.67 373.71 241.7 373.71C242.73 373.71 248.3 370 248.3 370L252.43 368.35L243.35 375.15C243.35 375.15 243.15 376.59 244.35 376.59C245.55 376.59 250.54 372.88 250.54 372.88L255.9 370.82C255.9 370.82 249.3 376.39 248.68 377.01C248.06 377.63 247.45 378.86 249.1 378.86C250.75 378.86 255.49 374.53 255.49 374.53L259.2 372.26L254.46 377.42C254.46 377.42 255.28 378.66 257.55 376.8C259.82 374.94 265.18 370.61 265.18 370.61C267.281 370.14 269.346 369.522 271.36 368.76C272.36 368.14 277.14 365.87 277.14 365.87C277.14 365.87 319.85 350 321.91 349C323.97 348 326.86 344.06 326.86 342C326.86 339.94 324 330.42 324 330.42L307.07 332.89Z" fill="#6A5454" stroke="#263238" stroke-linecap="round" stroke-linejoin="round"/>
<path d="M300.03 314.73L296.41 305" stroke="#263238" stroke-linecap="round" stroke-linejoin="round"/>
<path d="M299.85 303.41L300.88 336.4L326.04 331.86L315.31 286.91" fill="#1890FF"/>
<path d="M299.85 303.41L300.88 336.4L326.04 331.86L315.31 286.91" stroke="#263238" stroke-linecap="round" stroke-linejoin="round"/>
<path d="M340.67 357.33L341 392.67L352.67 377V345L340.67 357.33Z" fill="white" stroke="#263238" stroke-linecap="round" stroke-linejoin="round"/>
<path d="M369 335.33C365.67 326 357.33 327.67 352.67 332.33C348.01 336.99 321.33 368.67 319 378C316.67 387.33 317 425.33 317 425.33L318 436L325.33 427L325.67 417.67L369.67 364.33L370.67 378.33L375 371C375 371 372.33 344.67 369 335.33ZM325.33 407C325.33 407 326 388.33 327 383C328.27 376.2 332.4 370.45 336.6 365.33C341.87 358.9 347.22 352.55 352.81 346.4C353.81 345.4 362.76 335.34 363.67 337.67C366 343.67 368.33 355.67 368.33 355.67L325.33 407Z" fill="white" stroke="#263238" stroke-linecap="round" stroke-linejoin="round"/>
<path d="M385.69 326.72L363.69 352.06L420.36 363.39L442.36 338.06L385.69 326.72Z" fill="white" stroke="#263238" stroke-linecap="round" stroke-linejoin="round"/>
<path d="M362.36 404.06L363.69 352.06L420.36 363.39V416.33" fill="#9C9C9C"/>
<path d="M362.36 404.06L363.69 352.06L420.36 363.39V416.33" stroke="#263238" stroke-linecap="round" stroke-linejoin="round"/>
<path d="M442.36 338.06V390.72" stroke="#263238" stroke-linecap="round" stroke-linejoin="round"/>
<path d="M398.74 313.87L398.98 333.85L392.8 340.91L413.75 345.64L419.49 338.14V319.16L398.74 313.87Z" fill="#858585" stroke="#263238" stroke-linecap="round" stroke-linejoin="round"/>
<path d="M398.98 333.85L419.49 338.14" stroke="#263238" stroke-linecap="round" stroke-linejoin="round"/>
<path d="M449.52 329.11L447.02 331.77L371.69 243.8L374.19 242.08L449.52 258.05V329.11Z" fill="#263238" stroke="#263238" stroke-linecap="round" stroke-linejoin="round"/>
<path d="M447.02 331.77L371.69 315.8V243.8L447.02 259.77V331.77Z" fill="#263238" stroke="#263238" stroke-linecap="round" stroke-linejoin="round"/>
<path d="M440.05 323.62L378.66 310.61V251.95L440.05 264.96V323.62Z" fill="white" stroke="#263238" stroke-linecap="round" stroke-linejoin="round"/>
<path d="M378.66 310.61L440.05 264.96" stroke="#263238" stroke-linecap="round" stroke-linejoin="round"/>
<path d="M366.96 358.89V370.8L416.4 381.4V369.04L366.96 358.89Z" fill="white" stroke="#263238" stroke-linecap="round" stroke-linejoin="round"/>
<path d="M366.96 376.98V388.9L416.4 399.49V387.13L366.96 376.98Z" fill="white" stroke="#263238" stroke-linecap="round" stroke-linejoin="round"/>
</svg>
