<svg width="500" height="500" viewBox="0 0 500 500" fill="none" xmlns="http://www.w3.org/2000/svg">
<path d="M461.33 147.44C461.33 147.44 433.56 82.64 376 56.93C318.44 31.22 284.43 51.78 243.29 77.5C202.15 103.22 107.53 84.7 68.44 106.3C29.35 127.9 10.85 180.35 31.42 239C51.99 297.65 105.47 341.85 93.13 370.65C80.79 399.45 197 505.36 293.69 466.27C390.38 427.18 364.69 383.99 408.88 364.45C453.07 344.91 483.96 292.45 481.88 228.69C479.8 164.93 461.33 147.44 461.33 147.44Z" fill="#1890FF"/>
<path opacity="0.8" d="M461.33 147.44C461.33 147.44 433.56 82.64 376 56.93C318.44 31.22 284.43 51.78 243.29 77.5C202.15 103.22 107.53 84.7 68.44 106.3C29.35 127.9 10.85 180.35 31.42 239C51.99 297.65 105.47 341.85 93.13 370.65C80.79 399.45 197 505.36 293.69 466.27C390.38 427.18 364.69 383.99 408.88 364.45C453.07 344.91 483.96 292.45 481.88 228.69C479.8 164.93 461.33 147.44 461.33 147.44Z" fill="white"/>
<path d="M93 59.57C94.138 60.0513 95.1091 60.857 95.792 61.8867C96.4749 62.9164 96.8394 64.1244 96.84 65.36V82.25C96.8374 83.9138 96.1746 85.5086 94.9971 86.6842C93.8197 87.8597 92.2239 88.52 90.56 88.52V88.52C88.8971 88.52 87.3023 87.8594 86.1265 86.6836C84.9506 85.5077 84.29 83.9129 84.29 82.25V65.36C84.2911 64.1259 84.6547 62.9192 85.3356 61.8899C86.0165 60.8605 86.9847 60.0539 88.12 59.57" stroke="#808080" stroke-linecap="round" stroke-linejoin="round"/>
<path d="M90.54 88.52C88.8771 88.52 87.2823 87.8594 86.1065 86.6835C84.9306 85.5077 84.27 83.9129 84.27 82.25V73.8H96.82V82.25C96.8174 83.9138 96.1546 85.5086 94.9771 86.6842C93.7997 87.8597 92.2039 88.52 90.54 88.52V88.52Z" stroke="#808080" stroke-linecap="round" stroke-linejoin="round"/>
<path d="M77.0499 57.17L67.8199 64.57C67.1755 65.0843 66.4359 65.4665 65.6436 65.6946C64.8513 65.9227 64.0218 65.9923 63.2025 65.8994C62.3832 65.8066 61.5903 65.553 60.8692 65.1533C60.1481 64.7536 59.5129 64.2156 58.9999 63.57V63.57C57.9632 62.2658 57.4863 60.6037 57.6738 58.9482C57.8612 57.2928 58.6978 55.7793 59.9999 54.74L73.1499 44.21C74.4525 43.1739 76.1131 42.6972 77.7669 42.8847C79.4207 43.0722 80.9324 43.9086 81.9699 45.21V45.21C83 46.507 83.4761 48.1584 83.2944 49.8047C83.1128 51.451 82.2881 52.9589 80.9999 54L79.9399 54.85" stroke="#808080" stroke-linecap="round" stroke-linejoin="round"/>
<path d="M58.9999 63.61C57.9632 62.3058 57.4863 60.6436 57.6738 58.9882C57.8612 57.3328 58.6978 55.8193 59.9999 54.78L66.5899 49.5L74.4399 59.29L67.8499 64.57C67.2071 65.0912 66.4675 65.4799 65.6737 65.7139C64.8799 65.9478 64.0477 66.0223 63.225 65.9331C62.4023 65.8439 61.6054 65.5926 60.8802 65.1939C60.1551 64.7952 59.516 64.2569 58.9999 63.61V63.61Z" stroke="#808080" stroke-linecap="round" stroke-linejoin="round"/>
<path d="M407.92 335.54C405.704 336.162 403.736 337.459 402.292 339.252C400.847 341.044 399.997 343.242 399.86 345.54H386.15C385.995 344.325 385.409 343.207 384.5 342.387C383.591 341.567 382.417 341.1 381.193 341.071C379.969 341.042 378.775 341.452 377.828 342.228C376.881 343.004 376.243 344.093 376.03 345.299C375.816 346.505 376.043 347.747 376.667 348.8C377.291 349.853 378.272 350.648 379.432 351.04C380.592 351.432 381.854 351.395 382.989 350.937C384.125 350.478 385.058 349.628 385.62 348.54H400.08C400.502 350.508 401.453 352.323 402.831 353.79C404.208 355.257 405.96 356.321 407.897 356.866C409.835 357.411 411.884 357.418 413.825 356.885C415.765 356.351 417.523 355.299 418.91 353.84L426 359.35" stroke="#808080" stroke-linecap="round" stroke-linejoin="round"/>
<path d="M429.85 362.34L438.5 369.07C438.271 369.65 438.152 370.267 438.15 370.89C438.144 372.044 438.526 373.166 439.234 374.076C439.943 374.986 440.937 375.631 442.057 375.908C443.177 376.185 444.358 376.077 445.409 375.601C446.46 375.126 447.32 374.31 447.852 373.287C448.383 372.263 448.555 371.09 448.339 369.957C448.124 368.824 447.533 367.796 446.662 367.039C445.792 366.282 444.692 365.84 443.54 365.784C442.388 365.728 441.25 366.061 440.31 366.73L420.65 351.44C421.603 349.658 422.047 347.647 421.932 345.629C421.818 343.611 421.149 341.663 420 340L432 324.61C433.017 325.001 434.131 325.056 435.181 324.767C436.231 324.479 437.162 323.862 437.836 323.006C438.51 322.151 438.892 321.103 438.927 320.014C438.963 318.926 438.648 317.855 438.031 316.958C437.413 316.061 436.525 315.385 435.496 315.029C434.467 314.674 433.35 314.657 432.311 314.981C431.271 315.306 430.363 315.954 429.719 316.832C429.074 317.71 428.728 318.771 428.73 319.86C428.728 320.911 429.057 321.936 429.67 322.79L417.96 337.79C415.971 336.113 413.452 335.195 410.85 335.2" stroke="#808080" stroke-linecap="round" stroke-linejoin="round"/>
<path d="M257.77 62.55V109.55C257.77 110.531 257.577 111.502 257.201 112.409C256.826 113.315 256.276 114.138 255.582 114.832C254.889 115.526 254.065 116.076 253.159 116.451C252.252 116.827 251.281 117.02 250.3 117.02C249.319 117.02 248.348 116.827 247.441 116.451C246.535 116.076 245.712 115.526 245.018 114.832C244.324 114.138 243.774 113.315 243.399 112.409C243.023 111.502 242.83 110.531 242.83 109.55V49.21H257.77V59.78" stroke="#808080" stroke-linecap="round" stroke-linejoin="round"/>
<path d="M250.3 117C248.319 117 246.419 116.213 245.018 114.812C243.617 113.411 242.83 111.511 242.83 109.53V71.32H257.77V109.53C257.771 110.511 257.579 111.483 257.204 112.39C256.829 113.297 256.279 114.121 255.585 114.815C254.891 115.509 254.067 116.059 253.16 116.434C252.253 116.809 251.281 117.001 250.3 117V117Z" stroke="#808080" stroke-linecap="round" stroke-linejoin="round"/>
<path d="M257.77 49.21H259.91V43.77H240.7V49.21H242.83" stroke="#808080" stroke-linecap="round" stroke-linejoin="round"/>
<path d="M220.19 92.18V49.18H235.13V109.5C235.13 111.481 234.343 113.381 232.942 114.782C231.541 116.183 229.641 116.97 227.66 116.97C225.679 116.97 223.779 116.183 222.378 114.782C220.977 113.381 220.19 111.481 220.19 109.5V96.14" stroke="#808080" stroke-linecap="round" stroke-linejoin="round"/>
<path d="M220.19 92.18V71.32H235.13V109.53C235.13 111.511 234.343 113.411 232.942 114.812C231.541 116.213 229.641 117 227.66 117V117C226.679 117.001 225.707 116.809 224.8 116.434C223.893 116.059 223.069 115.509 222.375 114.815C221.681 114.121 221.131 113.297 220.756 112.39C220.381 111.483 220.189 110.511 220.19 109.53V97.32" stroke="#808080" stroke-linecap="round" stroke-linejoin="round"/>
<path d="M235.13 49.21H237.26V43.77H218.05V49.21H220.19" stroke="#808080" stroke-linecap="round" stroke-linejoin="round"/>
<path d="M96.44 335.47C93.5606 336.49 90.9819 338.213 88.9385 340.484C86.8951 342.754 85.4518 345.499 84.74 348.47C83.6851 344.143 81.0849 340.35 77.4288 337.806C73.7726 335.262 69.3127 334.142 64.8885 334.657C60.4642 335.172 56.3808 337.286 53.4066 340.602C50.4325 343.918 48.7728 348.206 48.74 352.66C48.74 357.15 50.69 361.14 53.48 364.79H73.13L79 350.75C79.0988 350.522 79.2645 350.329 79.4752 350.197C79.6858 350.065 79.9316 350 80.18 350.01C80.4276 350.021 80.6656 350.108 80.861 350.261C81.0565 350.413 81.1994 350.622 81.27 350.86L88.38 374.31L93.8 357C93.8745 356.758 94.0242 356.546 94.2274 356.395C94.4306 356.244 94.6768 356.162 94.93 356.16C95.1822 356.163 95.4276 356.242 95.6344 356.387C95.8412 356.531 95.9999 356.734 96.09 356.97L99.09 365.63H115.32C118.43 361.97 120.76 357.87 120.76 352.63C120.76 347.784 118.835 343.137 115.409 339.711C111.983 336.285 107.335 334.36 102.49 334.36" stroke="#808080" stroke-linecap="round" stroke-linejoin="round"/>
<path d="M75.4399 386.65C78.5699 389.78 81.7099 392.91 84.9199 395.94C92.2499 388.7 99.6299 381.5 106.92 374.2C108.92 372.2 111.12 370.2 113.15 368.08H98.2499C97.9991 368.081 97.7542 368.004 97.5498 367.858C97.3453 367.713 97.1915 367.507 97.1099 367.27L95.0099 361.27L89.5099 378.79C89.4348 379.036 89.2825 379.252 89.0754 379.405C88.8683 379.558 88.6175 379.64 88.3599 379.64V379.64C88.1016 379.638 87.8505 379.554 87.6436 379.399C87.4366 379.244 87.2847 379.027 87.2099 378.78L79.9499 354.78L75.0599 366.5C74.9683 366.72 74.8143 366.908 74.6171 367.041C74.4199 367.174 74.188 367.247 73.9499 367.25H55.4399C59.4399 371.7 64.3799 375.63 68.0899 379.3C69.7199 380.91 71.3499 382.54 72.9699 384.17" stroke="#808080" stroke-linecap="round" stroke-linejoin="round"/>
<path d="M460.35 93.53L459.13 91.4L465.17 87.96L466.38 90.09" stroke="#808080" stroke-linecap="round" stroke-linejoin="round"/>
<path d="M466.51 104.31L462.79 97.8V97.78L468.81 94.34H468.82L475.92 106.78L469.88 110.22L468.18 107.25" stroke="#808080" stroke-linecap="round" stroke-linejoin="round"/>
<path d="M470.276 114.736L479.586 109.421L477.559 105.869L468.249 111.184L470.276 114.736Z" stroke="#808080" stroke-linecap="round" stroke-linejoin="round"/>
<path d="M465.14 77.61L454.41 58.78" stroke="#808080" stroke-linecap="round" stroke-linejoin="round"/>
<path d="M470.82 87.56L466.97 80.82" stroke="#808080" stroke-linecap="round" stroke-linejoin="round"/>
<path d="M444.41 75.93L439.48 67.3" stroke="#808080" stroke-linecap="round" stroke-linejoin="round"/>
<path d="M455.9 96.07L446.16 79" stroke="#808080" stroke-linecap="round" stroke-linejoin="round"/>
<path d="M458.34 100.33L462.79 97.8V97.78L468.81 94.34H468.82L473.25 91.81" stroke="#808080" stroke-linecap="round" stroke-linejoin="round"/>
<path d="M441.44 66.18L451.58 83.94L454.07 82.52L460.11 79.07L462.58 77.65L452.45 59.9" stroke="#808080" stroke-linecap="round" stroke-linejoin="round"/>
<path d="M466.38 90.09L465.17 87.96L460.11 79.07" stroke="#808080" stroke-linecap="round" stroke-linejoin="round"/>
<path d="M454.07 82.52L459.13 91.4L460.35 93.53" stroke="#808080" stroke-linecap="round" stroke-linejoin="round"/>
<path d="M462.79 97.78L458.34 100.33L457.27 100.93L454.85 96.67L455.9 96.07L460.35 93.53L466.38 90.09L470.82 87.56L471.89 86.94L474.32 91.2L473.25 91.81L468.82 94.34H468.81" stroke="#808080" stroke-linecap="round" stroke-linejoin="round"/>
<path d="M443.85 53.51L437.65 57.05L440.08 61.32" stroke="#808080" stroke-linecap="round" stroke-linejoin="round"/>
<path d="M448.96 56.25L446.52 51.98" stroke="#808080" stroke-linecap="round" stroke-linejoin="round"/>
<path d="M441.44 66.18L452.45 59.9L454.41 58.78L455.48 58.18L453.04 53.92L448.96 56.25L440.08 61.32L435.99 63.65L438.42 67.91L439.48 67.31L441.44 66.18Z" stroke="#808080" stroke-linecap="round" stroke-linejoin="round"/>
<path d="M441.5 53.91L429.74 33.31" stroke="#808080" stroke-linecap="round" stroke-linejoin="round"/>
<path d="M376.93 283.32C426.713 283.32 467.07 242.963 467.07 193.18C467.07 143.397 426.713 103.04 376.93 103.04C327.147 103.04 286.79 143.397 286.79 193.18C286.79 242.963 327.147 283.32 376.93 283.32Z" fill="#1890FF"/>
<path d="M327.69 290L328 217.92C328 217.92 315.27 219.68 313.14 219.99C311.01 220.3 310.03 217.83 303.93 211.74C297.83 205.65 298.76 188.9 306.68 183.42C314.6 177.94 331.95 157.83 333.17 156.61C334.39 155.39 342.92 156.61 346.27 157.22C349.62 157.83 355.71 161.22 357.27 161.49C358.83 161.76 370.07 163.62 370.07 163.62L411.49 171.23C414.84 171.84 429.76 180.67 433.42 181.23C437.08 181.79 441.34 187.63 441.95 190.37C442.56 193.11 448.34 241.84 450.78 245.19C453.22 248.54 461.44 290.86 461.44 290.86" fill="white"/>
<path d="M327.69 290L328 217.92C328 217.92 315.27 219.68 313.14 219.99C311.01 220.3 310.03 217.83 303.93 211.74C297.83 205.65 298.76 188.9 306.68 183.42C314.6 177.94 331.95 157.83 333.17 156.61C334.39 155.39 342.92 156.61 346.27 157.22C349.62 157.83 355.71 161.22 357.27 161.49C358.83 161.76 370.07 163.62 370.07 163.62L411.49 171.23C414.84 171.84 429.76 180.67 433.42 181.23C437.08 181.79 441.34 187.63 441.95 190.37C442.56 193.11 448.34 241.84 450.78 245.19C453.22 248.54 461.44 290.86 461.44 290.86" stroke="#263238" stroke-linecap="round" stroke-linejoin="round"/>
<path d="M397.4 187.46H401.17L412.13 191.91L399.8 180.94L397.4 187.46Z" fill="#263238" stroke="#263238" stroke-linecap="round" stroke-linejoin="round"/>
<path d="M373.75 188.49L388.49 186.43L383.35 178.89L373.75 188.49Z" fill="#263238" stroke="#263238" stroke-linecap="round" stroke-linejoin="round"/>
<path d="M336.67 170.81C336.67 170.81 338.32 193.1 335.84 202.6C333.36 212.1 331.3 214.6 331.3 214.6" stroke="#263238" stroke-linecap="round" stroke-linejoin="round"/>
<path d="M335 222.69C334.63 223.97 334.24 225.25 333.82 226.54Z" fill="white"/>
<path d="M335 222.69C334.63 223.97 334.24 225.25 333.82 226.54" stroke="#263238" stroke-linecap="round" stroke-linejoin="round"/>
<path d="M340.39 186.09C340.148 197.165 338.675 208.18 336 218.93Z" fill="white"/>
<path d="M340.39 186.09C340.148 197.165 338.675 208.18 336 218.93" stroke="#263238" stroke-linecap="round" stroke-linejoin="round"/>
<path d="M437.19 285.9C437.19 285.9 431.25 259.51 431.85 256.77C432.45 254.03 434.29 204.69 434.29 204.69" stroke="#263238" stroke-linecap="round" stroke-linejoin="round"/>
<path d="M361 177.29C361.547 178.803 362.133 180.423 362.76 182.15" stroke="#263238" stroke-linecap="round" stroke-linejoin="round"/>
<path d="M355.41 162.65C355.41 162.65 357.06 166.65 359.95 174.51" stroke="#263238" stroke-linecap="round" stroke-linejoin="round"/>
<path d="M367.81 206.28C368.129 207.97 368.36 209.676 368.5 211.39" stroke="#263238" stroke-linecap="round" stroke-linejoin="round"/>
<path d="M357.23 177C361.365 185.119 364.64 193.649 367 202.45" stroke="#263238" stroke-linecap="round" stroke-linejoin="round"/>
<path d="M393.29 194.28C393.29 194.28 396.83 227.22 396.83 231.79C396.83 236.36 399.46 287.41 399.46 287.41" stroke="#263238" stroke-linecap="round" stroke-linejoin="round"/>
<path d="M430.03 240.77L409.32 238.78V206.44L430.03 208.42V240.77Z" fill="white" stroke="#263238" stroke-linecap="round" stroke-linejoin="round"/>
<path d="M421.8 209.41L416.63 209.1V199.05L421.8 199.36V209.41Z" fill="#1890FF" stroke="#263238" stroke-linecap="round" stroke-linejoin="round"/>
<path d="M376.79 155.87C376.79 155.87 374.47 155.61 373.96 156.39C373.45 157.17 367.51 163.86 367.51 163.86C368.091 167.265 368.349 170.717 368.28 174.17C368.28 180.87 371.38 191.17 371.38 191.17L384 182.94L392.25 180.62C393.868 180.339 395.522 180.339 397.14 180.62C397.14 180.62 415.19 195.83 416.22 195.31C417.25 194.79 413.13 177.78 410.29 170.31C407.45 162.84 399.46 158.71 399.46 158.71C399.46 158.71 381.17 155.36 376.79 155.87Z" fill="white" stroke="#263238" stroke-linecap="round" stroke-linejoin="round"/>
<path d="M379.63 130.35L377.05 158.45C379.02 164.963 381.432 171.335 384.27 177.52C386.8 183.347 389.81 188.953 393.27 194.28C393.27 194.28 399.45 182.94 401 179.07C402.271 175.45 403.31 171.752 404.11 168L408 151.23C408 151.23 401 149.43 392.53 142.98C387.663 139.391 383.322 135.14 379.63 130.35V130.35Z" fill="white" stroke="#263238" stroke-linecap="round" stroke-linejoin="round"/>
<path d="M408 151.23C408 151.23 401 149.43 392.53 142.98C390.325 141.309 388.215 139.517 386.21 137.61V149.12C386.21 149.12 392.7 160.49 399.21 163.74C400.953 164.584 402.832 165.112 404.76 165.3L408 151.23Z" fill="#263238"/>
<path d="M425.77 126C425.77 126 427.83 123.94 428.09 128.32C428.35 132.7 425.51 136.32 423.7 137.86C421.89 139.4 421.13 139.92 421.13 139.92L425.77 126Z" fill="white" stroke="#263238" stroke-linecap="round" stroke-linejoin="round"/>
<path d="M408 85.48C401.247 84.5166 394.385 86.2321 388.88 90.26C379.72 97.03 378.88 113.37 378.88 113.37C378.88 113.37 375.7 110.58 373.7 114.16C371.7 117.74 371.7 126.91 373.31 127.71C374.92 128.51 376.89 129.3 376.89 129.3C376.89 129.3 379.28 141.25 381.67 144.84C384.06 148.43 392.83 157.59 398.01 157.59C403.19 157.59 411.95 154.8 415.93 149.59C419.484 144.714 422.304 139.344 424.3 133.65C425.89 129.27 428.68 108.16 428.68 108.16C428.68 108.16 429.87 98.6 422.31 91.83C414.75 85.06 408 85.48 408 85.48Z" fill="white" stroke="#263238" stroke-linecap="round" stroke-linejoin="round"/>
<path d="M381.69 144.84C384.08 148.42 392.85 157.59 398.03 157.59C403.21 157.59 411.97 154.8 415.95 149.59C419.504 144.714 422.324 139.344 424.32 133.65C424.871 131.833 425.305 129.982 425.62 128.11C424.62 127.11 417.53 120.37 408.5 118.46C398.7 116.4 380.91 114.86 380.91 114.86L378.91 113.34L377.09 130.06C377.66 132.82 379.67 141.81 381.69 144.84Z" fill="#1890FF" stroke="#263238" stroke-linecap="round" stroke-linejoin="round"/>
<path d="M412.1 119.78C412.1 119.78 413.65 112.05 414.42 109.99C415.19 107.93 420.35 106.12 424.22 111.79" stroke="#263238" stroke-linecap="round" stroke-linejoin="round"/>
<path d="M403.34 104.83C403.34 104.83 398.19 98.39 389.94 104.06" stroke="#263238" stroke-linecap="round" stroke-linejoin="round"/>
<path d="M395.56 110.46C395.28 111.46 394.49 112.17 393.81 111.98C393.13 111.79 392.81 110.81 393.08 109.78C393.35 108.75 394.15 108.06 394.83 108.25C395.51 108.44 395.84 109.43 395.56 110.46Z" fill="#263238"/>
<path d="M418.24 115.94C417.96 116.94 417.17 117.65 416.49 117.46C415.81 117.27 415.49 116.29 415.76 115.26C416.03 114.23 416.83 113.55 417.51 113.74C418.19 113.93 418.53 114.91 418.24 115.94Z" fill="#263238"/>
<path d="M378.9 113.37C379.314 113.501 379.759 113.494 380.169 113.35C380.578 113.205 380.93 112.932 381.17 112.57C381.95 111.28 380.4 106.64 386.07 100.97C391.74 95.3 398.19 94.52 401.28 91.97C404.37 89.42 404.89 88.11 402.83 85.53C400.77 82.95 397.67 78.53 386.33 85.02C374.99 91.51 370.86 95.58 372.67 101.25C373.645 104.463 375.123 107.501 377.05 110.25L378.9 113.37Z" fill="#263238"/>
<path d="M400.25 83.44C400.25 83.44 402.57 88.85 406.69 90.91C410.81 92.97 416.23 93.75 422.69 97.62C429.15 101.49 427.85 113.08 427.85 113.08C427.85 113.08 436.61 117.46 440.22 111.02C443.83 104.58 447.22 93.75 433 85.76C418.78 77.77 408.24 68.23 400.25 83.44Z" fill="#263238"/>
<path d="M360 68.54V105.25C359.997 106.259 359.595 107.225 358.881 107.938C358.166 108.65 357.199 109.05 356.19 109.05V109.05C355.183 109.047 354.218 108.646 353.506 107.934C352.794 107.222 352.393 106.257 352.39 105.25V68.54H360Z" fill="white" stroke="#263238" stroke-linecap="round" stroke-linejoin="round"/>
<path d="M360 88V105.22C359.997 106.229 359.595 107.195 358.881 107.908C358.166 108.62 357.199 109.02 356.19 109.02V109.02C355.183 109.017 354.218 108.616 353.506 107.904C352.794 107.192 352.393 106.227 352.39 105.22V88H360Z" fill="#1890FF" stroke="#263238" stroke-linecap="round" stroke-linejoin="round"/>
<path d="M361.19 66.71H351.14V69.76H361.19V66.71Z" fill="white" stroke="#263238" stroke-linecap="round" stroke-linejoin="round"/>
<path d="M336.52 141.64C336.52 141.64 336.52 140.73 332.26 137.64C328 134.55 311.85 134.29 308.5 138.25C305.15 142.21 317.03 153.17 320.38 154.7C323.73 156.23 329.82 153.48 331.65 151.35C333.48 149.22 336.52 141.64 336.52 141.64Z" fill="white" stroke="#263238" stroke-linecap="round" stroke-linejoin="round"/>
<path d="M314.59 118.49L311.59 141.33C311.59 141.33 317.38 149.25 322.59 149.56C327.8 149.87 332.34 144.99 332.34 144.99L333.56 122.15C333.56 122.15 321.6 121.84 314.59 118.49Z" fill="white" stroke="#263238" stroke-linecap="round" stroke-linejoin="round"/>
<path d="M317.94 103.26C317.94 103.26 318.55 88.34 319.16 82.26C319.77 76.18 321.6 71.9 322.51 71.9C323.42 71.9 334.7 64 334.7 64C334.7 64 352.97 65.22 354.8 65.22C356.63 65.22 360.28 66.44 359.98 68.22L359.67 70.04C359.828 71.0338 359.828 72.0462 359.67 73.04C359.42 73.6549 358.996 74.1832 358.45 74.56C358.609 75.0454 358.57 75.5738 358.341 76.0306C358.113 76.4874 357.714 76.8358 357.23 77C355.41 77.91 347.79 81.87 347.79 81.87C345.927 85.7274 344.301 89.6948 342.92 93.75C341.7 98.02 336.83 102.58 336.83 102.58C336.83 102.58 337.13 106.85 337.13 109.58C336.934 111.97 336.423 114.324 335.61 116.58C335.763 118.203 335.763 119.837 335.61 121.46C335.31 122.37 334.39 123.59 333.48 123.59C332.57 123.59 325.86 124.81 322.48 124.2C319.1 123.59 314.26 119.63 314.26 119.63L315.78 113.54V108.66C315.81 106.92 317.94 103.26 317.94 103.26Z" fill="#1890FF" stroke="#263238" stroke-linecap="round" stroke-linejoin="round"/>
<path d="M328.3 102.65C328.3 102.65 334.7 100.22 335.3 96.26C335.9 92.3 338.95 82.26 338.95 82.26L347.78 81.95" stroke="#263238" stroke-linecap="round" stroke-linejoin="round"/>
<path d="M331.65 78C331.65 78 339.57 75.26 341.7 75.26C343.83 75.26 358.45 74.65 358.45 74.65" stroke="#263238" stroke-linecap="round" stroke-linejoin="round"/>
<path d="M331.35 71C335.036 70.0782 338.812 69.5684 342.61 69.48C348.1 69.48 359.67 70.08 359.67 70.08" stroke="#263238" stroke-linecap="round" stroke-linejoin="round"/>
<path d="M317.64 115.14C317.64 115.14 321.64 119.4 330.13 118.49" stroke="#263238" stroke-linecap="round" stroke-linejoin="round"/>
<path d="M335 113.92C335 113.92 333.48 114.84 326.47 114.84" stroke="#263238" stroke-linecap="round" stroke-linejoin="round"/>
<path d="M311.55 141.33L308.5 138.33C308.5 138.33 291.75 201.68 291.45 206.25C291.15 210.82 298.15 218.43 302.11 220.25C306.07 222.07 319.16 220.55 323.43 218.42C327.7 216.29 330.43 207.76 332.87 199.84C335.31 191.92 332.56 177.91 333.17 173.65C333.78 169.39 336.52 141.65 336.52 141.65L332.26 145C332.26 145 320.38 144.68 311.55 141.33Z" fill="white" stroke="#263238" stroke-linecap="round" stroke-linejoin="round"/>
<path d="M313.45 290.43H472.65" stroke="#263238" stroke-linecap="round" stroke-linejoin="round"/>
<path d="M142.84 281.62C192.623 281.62 232.98 241.263 232.98 191.48C232.98 141.697 192.623 101.34 142.84 101.34C93.057 101.34 52.7 141.697 52.7 191.48C52.7 241.263 93.057 281.62 142.84 281.62Z" fill="#1890FF"/>
<path d="M80.5599 286.26L82.5599 240.57C82.5599 240.57 74.8799 264.25 70.8799 270.25C66.8799 276.25 63.8799 278.59 58.2099 277.59C52.5399 276.59 41.8699 259.24 41.8699 250.59C41.8699 241.94 50.8699 219.91 52.8699 214.91C54.8699 209.91 65.5499 167.55 66.8699 165.21C68.1899 162.87 111.56 149.8 111.56 149.8L114.56 143.46C114.56 143.46 158.92 138.46 161.92 138.8C164.92 139.14 164.59 144.13 164.59 144.13C164.59 144.13 170 148.81 170.67 149.81C171.34 150.81 195.94 162.88 203.61 165.55C211.28 168.22 211.95 170.88 212.28 172.22C212.61 173.56 232.63 218.58 239.97 226.22C247.31 233.86 228.63 248.56 222.29 251.22C215.95 253.88 207.29 252.55 204.29 247.89C201.29 243.23 194 237.23 194 237.23L195.23 287" fill="white"/>
<path d="M80.5599 286.26L82.5599 240.57C82.5599 240.57 74.8799 264.25 70.8799 270.25C66.8799 276.25 63.8799 278.59 58.2099 277.59C52.5399 276.59 41.8699 259.24 41.8699 250.59C41.8699 241.94 50.8699 219.91 52.8699 214.91C54.8699 209.91 65.5499 167.55 66.8699 165.21C68.1899 162.87 111.56 149.8 111.56 149.8L114.56 143.46C114.56 143.46 158.92 138.46 161.92 138.8C164.92 139.14 164.59 144.13 164.59 144.13C164.59 144.13 170 148.81 170.67 149.81C171.34 150.81 195.94 162.88 203.61 165.55C211.28 168.22 211.95 170.88 212.28 172.22C212.61 173.56 232.63 218.58 239.97 226.22C247.31 233.86 228.63 248.56 222.29 251.22C215.95 253.88 207.29 252.55 204.29 247.89C201.29 243.23 194 237.23 194 237.23L195.23 287" stroke="#263238" stroke-linecap="round" stroke-linejoin="round"/>
<path d="M82.5701 240.57L82.0601 207.23" stroke="#263238" stroke-linecap="round" stroke-linejoin="round"/>
<path d="M79.72 224.02L80.49 229.53" stroke="#263238" stroke-linecap="round" stroke-linejoin="round"/>
<path d="M76.5798 201.75L78.9898 218.82" stroke="#263238" stroke-linecap="round" stroke-linejoin="round"/>
<path d="M190.36 216.31C190.103 217.823 189.969 219.355 189.96 220.89" stroke="#263238" stroke-linecap="round" stroke-linejoin="round"/>
<path d="M199.3 192.21C195.943 198.495 193.261 205.119 191.3 211.97" stroke="#263238" stroke-linecap="round" stroke-linejoin="round"/>
<path d="M189.29 202.88C189.29 202.88 186.62 211.88 186.96 219.22" stroke="#263238" stroke-linecap="round" stroke-linejoin="round"/>
<path d="M151.84 161.12C151.02 161.92 150.16 162.71 149.27 163.46" stroke="#263238" stroke-linecap="round" stroke-linejoin="round"/>
<path d="M163.94 145.78C161.233 150.244 158.102 154.437 154.59 158.3" stroke="#263238" stroke-linecap="round" stroke-linejoin="round"/>
<path d="M134.66 278.76L134.59 286.59" stroke="#263238" stroke-linecap="round" stroke-linejoin="round"/>
<path d="M135.44 188.07L134.7 273.96" stroke="#263238" stroke-linecap="round" stroke-linejoin="round"/>
<path d="M134.26 159.45L135.59 165.79L135.48 183.27" stroke="#263238" stroke-linecap="round" stroke-linejoin="round"/>
<path d="M66.89 248.24L59.89 236.24L59.55 249.92C59.55 249.92 64.56 251.24 66.89 248.24Z" fill="white" stroke="#263238" stroke-linecap="round" stroke-linejoin="round"/>
<path d="M80.23 191.74L75.21 196.63L39.54 158.63L44.56 153.74L80.23 191.74Z" fill="#263238" stroke="#263238" stroke-linecap="round" stroke-linejoin="round"/>
<path d="M44.0271 151.265L37.0945 158.02L39.0835 160.061L46.0162 153.306L44.0271 151.265Z" fill="white" stroke="#263238" stroke-linecap="round" stroke-linejoin="round"/>
<path d="M79.6047 192.347L75.8591 195.997L78.8881 199.105L82.6337 195.455L79.6047 192.347Z" fill="white" stroke="#263238" stroke-linecap="round" stroke-linejoin="round"/>
<path d="M77.9999 190.83C77.8355 190.995 77.6399 191.127 77.4245 191.216C77.2092 191.306 76.9782 191.352 76.7449 191.352C76.5117 191.352 76.2807 191.306 76.0654 191.216C75.85 191.127 75.6544 190.995 75.4899 190.83L48.3199 161.57C48.1546 161.406 48.0233 161.21 47.9338 160.995C47.8442 160.779 47.7981 160.548 47.7981 160.315C47.7981 160.082 47.8442 159.851 47.9338 159.635C48.0233 159.42 48.1546 159.224 48.3199 159.06V159.06C48.4844 158.895 48.68 158.763 48.8954 158.674C49.1107 158.584 49.3417 158.538 49.5749 158.538C49.8082 158.538 50.0392 158.584 50.2545 158.674C50.4699 158.763 50.6655 158.895 50.8299 159.06L77.9999 188.31C78.1656 188.475 78.2971 188.672 78.3868 188.888C78.4765 189.104 78.5227 189.336 78.5227 189.57C78.5227 189.804 78.4765 190.036 78.3868 190.252C78.2971 190.468 78.1656 190.665 77.9999 190.83V190.83Z" fill="white" stroke="#263238" stroke-linecap="round" stroke-linejoin="round"/>
<path d="M80.0642 197.941L81.4326 196.609L100.667 216.361C100.747 216.442 100.81 216.539 100.852 216.645C100.894 216.751 100.915 216.865 100.914 216.979C100.912 217.093 100.888 217.206 100.843 217.311C100.798 217.416 100.733 217.511 100.651 217.591L100.536 217.702C100.369 217.865 100.144 217.955 99.9106 217.952C99.6773 217.949 99.4547 217.853 99.2919 217.686L80.0642 197.941Z" fill="white" stroke="#263238" stroke-linecap="round" stroke-linejoin="round"/>
<path d="M46.8799 204.88L42.2099 190.54L44.8799 174.86C44.8799 174.86 52.2199 166.53 53.2199 166.19C54.2199 165.85 63.2199 165.86 63.2199 165.86C63.2199 165.86 64.8899 165.19 64.8899 166.86C64.9207 167.3 64.8461 167.741 64.6721 168.146C64.4982 168.551 64.23 168.909 63.8899 169.19C63.8899 169.19 67.5599 169.53 68.5599 169.53C69.5599 169.53 70.5599 170.2 70.5599 171.86C70.5599 173.52 67.8899 174.2 66.8899 174.53C65.8899 174.86 62.2199 176.2 62.2199 176.2L56.5499 182.54H62.8899C64.1324 182.635 65.3621 182.856 66.5599 183.2C67.2199 184.2 67.5599 187.87 67.5599 187.87C68.6732 189.671 69.2491 191.753 69.2199 193.87C69.2199 197.53 70.2199 199.54 69.2199 199.87C68.2199 200.2 65.8899 201.87 65.8899 200.2C65.8752 199.083 65.7648 197.969 65.5599 196.87L61.8899 197.53L60.5499 200.2C60.5499 200.2 63.5499 206.87 63.5499 209.54C63.5499 212.21 62.2199 221.21 62.2199 221.21L60.8899 246.56C57.8734 246.369 54.9256 245.577 52.2199 244.23C47.2199 241.89 41.8799 233.23 41.8799 233.23L47.8799 212.55L46.8799 204.88Z" fill="#1890FF" stroke="#263238" stroke-linecap="round" stroke-linejoin="round"/>
<path d="M51.8799 228.89C49.0699 228.43 46.4799 226.27 44.5199 224.12L41.8799 233.23C41.8799 233.23 47.2099 241.9 52.2099 244.23C54.9193 245.577 57.8703 246.369 60.8899 246.56L61.8899 227.36C59.2099 228.39 55.3299 229.47 51.8799 228.89Z" fill="#D1D1D1" stroke="#263238" stroke-linecap="round" stroke-linejoin="round"/>
<path d="M56.22 193.88C56.22 193.88 56.88 192.21 57.88 191.88C58.88 191.55 67.88 189.22 67.88 189.22" stroke="#263238" stroke-linecap="round" stroke-linejoin="round"/>
<path d="M52.22 187.87L53.22 184.54L56.55 182.53" stroke="#263238" stroke-linecap="round" stroke-linejoin="round"/>
<path d="M48.21 181.87C48.21 181.87 52.55 174.2 53.88 172.87C55.21 171.54 62.88 169.87 63.88 169.2" stroke="#263238" stroke-linecap="round" stroke-linejoin="round"/>
<path d="M60.8899 246.57L66.8899 248.24C66.8899 248.24 68.5599 271.92 68.5599 274.92C68.5599 277.92 61.56 281.59 53.88 282.26C46.2 282.93 34.2 276.92 34.2 271.59C34.2 266.26 42.15 229.92 42.15 229.92C42.15 229.92 47.8799 244.9 60.8899 246.57Z" fill="white" stroke="#263238" stroke-linecap="round" stroke-linejoin="round"/>
<path d="M151.94 231.56C149.085 231.494 146.263 230.932 143.6 229.9C140.492 228.636 137.246 227.74 133.93 227.23C131.93 226.89 128.26 228.56 125.59 226.89C122.92 225.22 120.59 223.89 124.92 222.22C129.25 220.55 136.26 222.56 138.92 222.89C141.58 223.22 146.59 222.22 146.59 222.22L151.94 231.56Z" fill="#1890FF" stroke="#263238" stroke-linecap="round" stroke-linejoin="round"/>
<path d="M107.91 234.9C121.723 234.9 132.92 230.794 132.92 225.73C132.92 220.666 121.723 216.56 107.91 216.56C94.0973 216.56 82.8999 220.666 82.8999 225.73C82.8999 230.794 94.0973 234.9 107.91 234.9Z" fill="#263238" stroke="#263238" stroke-linecap="round" stroke-linejoin="round"/>
<path d="M107.91 233.57C120.806 233.57 131.26 230.06 131.26 225.73C131.26 221.4 120.806 217.89 107.91 217.89C95.0142 217.89 84.5601 221.4 84.5601 225.73C84.5601 230.06 95.0142 233.57 107.91 233.57Z" fill="white" stroke="#263238" stroke-linecap="round" stroke-linejoin="round"/>
<path d="M182.29 255.58C182.29 255.58 181.43 240.48 181.43 238.13C181.43 235.78 192.38 239.7 192.38 239.7C192.38 239.7 186.67 254.24 182.29 255.58Z" fill="white" stroke="#263238" stroke-linecap="round" stroke-linejoin="round"/>
<path d="M188 225.23C188 225.23 176 221.89 172.66 220.56C169.32 219.23 152.98 211.89 149.98 209.88C146.98 207.87 138.3 207.22 138.3 207.22C138.3 207.22 130.63 203.88 129.63 203.88C128.63 203.88 114.29 209.55 111.29 210.88C108.29 212.21 108.62 215.22 109.95 216.22C111.28 217.22 124.3 211.22 124.3 211.22L120.63 221.22C120.63 221.22 115.96 224.89 117.63 227.22C119.3 229.55 124.31 225.55 125.97 224.55C127.63 223.55 137.31 218.88 137.31 218.88C137.31 218.88 128.64 228.55 126.97 231.22C125.3 233.89 129.31 233.89 130.64 233.22C131.97 232.55 141.31 225.55 141.31 225.55C141.31 225.55 154.99 234.89 158.66 234.89C162.33 234.89 168.33 232.55 168.33 232.55L189 244.24C189 244.24 192.33 238.57 192.67 234.56C193.01 230.55 193 225.56 193 225.56L188 225.23Z" fill="#1890FF" stroke="#263238" stroke-linecap="round" stroke-linejoin="round"/>
<path d="M120.59 221.22L128.26 214.55L134.59 211.55" stroke="#263238" stroke-linecap="round" stroke-linejoin="round"/>
<path d="M124.26 211.22L125.92 207.55" stroke="#263238" stroke-linecap="round" stroke-linejoin="round"/>
<path d="M131.26 213.55L132.59 209.55" stroke="#263238" stroke-linecap="round" stroke-linejoin="round"/>
<path d="M141.26 225.56L150.27 223.22" stroke="#263238" stroke-linecap="round" stroke-linejoin="round"/>
<path d="M137.26 218.89L141.93 216.22" stroke="#263238" stroke-linecap="round" stroke-linejoin="round"/>
<path d="M184.43 224.23C185.625 227.661 185.823 231.361 185 234.9C184.505 236.924 183.731 238.869 182.7 240.68L189 244.24C189 244.24 192.33 238.57 192.67 234.56C193.01 230.55 193 225.56 193 225.56L188 225.23L184.43 224.23Z" fill="#D1D1D1" stroke="#263238" stroke-linecap="round" stroke-linejoin="round"/>
<path d="M226 213.22C226 213.22 217 215.55 213.32 217.56C209.64 219.57 194.98 221.56 193.65 222.22C192.32 222.88 184.45 224.22 184.45 224.22C184.45 224.22 188.31 232.22 186.31 238.56C184.31 244.9 182.31 255.56 182.31 255.56C182.31 255.56 199.31 260.23 213.99 256.56C228.67 252.89 238.34 242.22 240.99 240.88C243.64 239.54 244.99 233.88 244.99 231.21C244.99 228.54 236.32 218.87 234.32 218.21" fill="white"/>
<path d="M226 213.22C226 213.22 217 215.55 213.32 217.56C209.64 219.57 194.98 221.56 193.65 222.22C192.32 222.88 184.45 224.22 184.45 224.22C184.45 224.22 188.31 232.22 186.31 238.56C184.31 244.9 182.31 255.56 182.31 255.56C182.31 255.56 199.31 260.23 213.99 256.56C228.67 252.89 238.34 242.22 240.99 240.88C243.64 239.54 244.99 233.88 244.99 231.21C244.99 228.54 236.32 218.87 234.32 218.21" stroke="#263238" stroke-linecap="round" stroke-linejoin="round"/>
<path d="M130.26 72.74C130.26 72.74 120.59 75.74 114.92 81.08C109.25 86.42 109.25 107.08 109.25 109.76C109.25 112.44 108.25 128.44 108.91 133.11C109.57 137.78 122.91 157.45 131.91 157.79C140.91 158.13 154.91 147.45 157.25 144.11C160.07 140.114 162.526 135.874 164.59 131.44C165.92 128.1 167.59 116.1 167.93 112.44C168.111 109.329 168.111 106.211 167.93 103.1C167.93 103.1 169.93 93.43 166.26 87.1C162.59 80.77 152.26 73.1 143.91 71.76C135.56 70.42 130.26 72.74 130.26 72.74Z" fill="white" stroke="#263238" stroke-linecap="round" stroke-linejoin="round"/>
<path d="M109.25 104.76C109.25 104.76 116.25 98.76 131.93 98.42C141.332 98.2558 150.508 101.315 157.93 107.09C157.93 107.09 160.27 105.42 159.6 114.43C158.93 123.44 157.93 125.43 150.6 128.1C143.27 130.77 126.92 132.77 119.92 130.77C112.92 128.77 109.22 121.11 108.92 118.77C108.62 116.43 109.25 104.76 109.25 104.76Z" fill="#D1D1D1" stroke="#263238" stroke-linecap="round" stroke-linejoin="round"/>
<path d="M109.25 101.76C118.143 105.297 127.691 106.886 137.25 106.42C153.59 105.76 166.63 100.99 168.3 100.66C169.97 100.33 168.64 103.27 168.64 103.27L159.26 108.09C159.26 108.09 159.26 117.09 157.26 120.09C155.26 123.09 150.93 125.09 146.26 125.09C141.59 125.09 137.26 122.43 134.58 120.09C133.47 119.09 130.92 119.42 129.91 120.76C128.9 122.1 127.58 124.09 123.24 123.76C118.9 123.43 113.91 122.42 111.9 119.76C109.89 117.1 109.24 109.76 109.24 109.76C109.24 109.76 108.91 103.09 109.25 101.76Z" fill="white" stroke="#263238" stroke-linecap="round" stroke-linejoin="round"/>
<path d="M122.18 152.58C123.194 155.368 124.963 157.819 127.29 159.66C131.22 162.8 133.58 163.98 137.9 162.8C142.22 161.62 155.98 154.55 151.26 155.33C148.467 155.803 145.71 156.472 143.01 157.33C143.01 157.33 151.66 152.61 157.16 147.5C158.72 146.105 159.819 144.268 160.31 142.234C160.802 140.199 160.662 138.063 159.91 136.11C159.91 136.11 121.79 147.87 119 146.29C116.21 144.71 122.18 152.58 122.18 152.58Z" fill="#263238"/>
<path d="M168 112.43C168.1 111.29 168.14 109.95 168.14 108.65C167.26 109.72 163.39 114.41 161.33 116.76C158.99 119.43 153.65 123.76 132.64 122.76C111.63 121.76 108.96 118.76 108.96 118.76C108.75 124.19 108.6 130.46 108.96 133.1C109.63 137.77 122.96 157.44 131.96 157.78C140.96 158.12 154.96 147.44 157.3 144.1C160.12 140.104 162.577 135.864 164.64 131.43L161.97 135.43L162.97 119.09L168 112.43Z" fill="#1890FF" stroke="#263238" stroke-linecap="round" stroke-linejoin="round"/>
<path d="M129.26 113.09C129.26 113.09 125.26 108.09 116.92 109.43" stroke="#263238" stroke-linecap="round" stroke-linejoin="round"/>
<path d="M139.6 113.09C139.6 113.09 144.93 110.09 153.94 111.43" stroke="#263238" stroke-linecap="round" stroke-linejoin="round"/>
<path d="M117.92 115.76C117.92 115.76 120.92 120.76 126.92 117.76" stroke="#263238" stroke-linecap="round" stroke-linejoin="round"/>
<path d="M140.93 118.1C140.93 118.1 144.27 123.43 152.27 118.1" stroke="#263238" stroke-linecap="round" stroke-linejoin="round"/>
<path d="M44.1899 286.85H235.08" stroke="#263238" stroke-linecap="round" stroke-linejoin="round"/>
<path d="M269.92 453.47C319.703 453.47 360.06 413.113 360.06 363.33C360.06 313.547 319.703 273.19 269.92 273.19C220.137 273.19 179.78 313.547 179.78 363.33C179.78 413.113 220.137 453.47 269.92 453.47Z" fill="#1890FF"/>
<path d="M120.1 452.7L146.36 405.65C147.226 397.59 148.935 389.643 151.46 381.94C155.84 368.08 164.95 345.83 171.15 338.17C179 331.5 194.15 323.58 194.15 323.58C194.15 323.58 214.21 332.34 219.68 336.35C225.15 340.36 234.27 347.29 237.18 353.49C240.09 359.69 242.66 374.64 247.4 380.11C252.14 385.58 262.72 396.53 262.35 406.74C261.98 416.95 260.16 420.96 260.16 423.52C260.16 426.08 255.06 422.98 245.58 424.07C236.1 425.16 229.35 428.28 228.58 429.37C227.81 430.46 209.46 460 209.46 460" fill="white"/>
<path d="M120.1 452.7L146.36 405.65C147.226 397.59 148.935 389.643 151.46 381.94C155.84 368.08 164.95 345.83 171.15 338.17C179 331.5 194.15 323.58 194.15 323.58C194.15 323.58 214.21 332.34 219.68 336.35C225.15 340.36 234.27 347.29 237.18 353.49C240.09 359.69 242.66 374.64 247.4 380.11C252.14 385.58 262.72 396.53 262.35 406.74C261.98 416.95 260.16 420.96 260.16 423.52C260.16 426.08 255.06 422.98 245.58 424.07C236.1 425.16 229.35 428.28 228.58 429.37C227.81 430.46 209.46 460 209.46 460" stroke="#263238" stroke-linecap="round" stroke-linejoin="round"/>
<path d="M234.102 369.9C234.102 369.9 235.932 390.33 236.299 395.43C236.665 400.53 231.544 421.33 230.28 423.52" stroke="#263238" stroke-linecap="round" stroke-linejoin="round"/>
<path d="M229.52 369.9C229.52 369.9 228.79 387.04 229.88 395.43C230.97 403.82 233.16 414.43 231.34 417.68" stroke="#263238" stroke-linecap="round" stroke-linejoin="round"/>
<path d="M241.19 400.9C241.19 400.9 247.39 395.8 255.41 397.99" stroke="#263238" stroke-linecap="round" stroke-linejoin="round"/>
<path d="M244.47 396.53C244.47 396.53 249.21 393.61 253.59 393.61" stroke="#263238" stroke-linecap="round" stroke-linejoin="round"/>
<path d="M230.24 341.45L233.53 348.02L237.53 366.62L231.69 356.41L228.78 368.81L225.13 346.2C225.13 346.2 226.6 338.54 230.24 341.45Z" fill="white" stroke="#263238" stroke-linecap="round" stroke-linejoin="round"/>
<path d="M215.66 307.9C215.66 307.9 211.28 311.9 208 313.37C204.72 314.84 200.7 316.29 200.7 316.29L220.76 356.41L228.76 368.81C228.76 368.81 228.39 358.23 228.39 354.58C228.344 352.012 228.1 349.451 227.66 346.92L237.14 335.25C237.14 335.25 240.06 308.25 237.51 303.89C234.96 299.53 220.4 303.16 215.66 307.9Z" fill="white" stroke="#263238" stroke-linecap="round" stroke-linejoin="round"/>
<path d="M238.07 325.09L231.07 318.83C231.07 318.83 229.49 320.33 228.37 330.05C227.999 334.442 228.942 338.845 231.08 342.7L237.08 335.25C237.08 335.25 237.66 330.73 238.07 325.09Z" fill="#263238" stroke="#263238" stroke-linecap="round" stroke-linejoin="round"/>
<path d="M282.39 296.29C282.39 296.29 279.8 308.85 277.59 312.91C275.38 316.97 272.26 319.2 272 321C271.25 327.23 271.27 329.86 269.42 332.45C267.57 335.04 257.23 341.32 250.95 342.79C244.67 344.26 240.95 345.38 239.12 343.53C237.29 341.68 230.63 332.08 230.63 328.02C230.63 323.96 229.52 322.85 230.63 320.26C231.74 317.67 231.74 311.02 231.74 311.02C231.74 311.02 231.74 307.7 236.17 302.16C240.6 296.62 249.1 295.16 255.38 295.16C261.66 295.16 262.38 290.72 269.05 288.88C275.72 287.04 280.54 292.59 282.39 296.29Z" fill="white" stroke="#263238" stroke-linecap="round" stroke-linejoin="round"/>
<path d="M267.86 318.46C267.09 319.75 265.96 320.51 265.35 320.15C264.74 319.79 264.87 318.43 265.65 317.15C266.43 315.87 267.55 315.1 268.16 315.46C268.77 315.82 268.64 317.16 267.86 318.46Z" fill="#263238"/>
<path d="M266.11 311.35C266.11 311.35 270.78 309.42 273.2 313.77" stroke="#263238" stroke-linecap="round" stroke-linejoin="round"/>
<path d="M269.46 332.49C270.391 330.88 271.012 329.109 271.29 327.27C268.42 325.7 262.1 322 258.74 318.08C254.31 312.91 245.45 300.35 245.45 300.35L244 302.2L251.39 314.39C251.39 314.39 242.89 321.39 236.98 321.39C232.38 321.39 231.36 319.61 231.14 318.81C231.034 319.311 230.887 319.803 230.7 320.28C229.59 322.87 230.7 323.97 230.7 328.04C230.7 332.11 237.35 341.71 239.19 343.55C241.03 345.39 244.74 344.29 251.02 342.81C257.3 341.33 267.61 335.08 269.46 332.49Z" fill="#1890FF" stroke="#263238" stroke-linecap="round" stroke-linejoin="round"/>
<path d="M242.49 305.15C245.724 303.244 249.453 302.346 253.2 302.57C259.48 302.94 266.87 305.52 268.72 302.2C270.57 298.88 270.94 292.59 276.48 294.07C282.02 295.55 282.76 298.87 282.76 298.87C282.76 298.87 282.21 298.5 284.32 292.22C284.32 285 282.76 283 282.08 277.22C278.32 273.74 278.32 273.74 278.32 273.74C278.32 273.74 264.32 259.33 247.66 259.74C231 260.15 223.66 266.74 219.59 280.8C215.52 294.86 217.37 300.01 214.04 304.8C210.71 309.59 208.87 314.41 217.04 313.67C225.21 312.93 230.71 307.76 234.77 305.91C237.188 304.809 239.904 304.542 242.49 305.15Z" fill="#263238" stroke="#263238" stroke-linecap="round" stroke-linejoin="round"/>
<path d="M243.6 307.74C243.6 307.74 248.03 302.2 243.97 296.29C239.91 290.38 228.08 301.83 229.97 308.11C231.86 314.39 236.62 313.65 236.62 313.65" fill="white"/>
<path d="M243.6 307.74C243.6 307.74 248.03 302.2 243.97 296.29C239.91 290.38 228.08 301.83 229.97 308.11C231.86 314.39 236.62 313.65 236.62 313.65" stroke="#263238" stroke-linecap="round" stroke-linejoin="round"/>
<path d="M203.62 311.55L225.87 356.77L218.21 369.17L191.22 322.49L203.62 311.55Z" fill="white" stroke="#263238" stroke-linecap="round" stroke-linejoin="round"/>
<path d="M230.62 425.3C230.62 425.3 230.11 416.57 241.24 415.7C252.37 414.83 261 419.62 261.47 427C261.94 434.38 239.21 429.62 236.68 429.62C234.15 429.62 230.62 425.3 230.62 425.3Z" fill="white" stroke="#263238" stroke-linecap="round" stroke-linejoin="round"/>
<path d="M354.98 448.75H206.9V457.07H354.62" fill="white"/>
<path d="M354.98 448.75H206.9V457.07H354.62" stroke="#263238" stroke-linecap="round" stroke-linejoin="round"/>
<path d="M302.46 360.06L263.8 376.1V435.92H278.39V379.75L305.38 364.8L302.46 360.06Z" fill="white" stroke="#263238" stroke-linecap="round" stroke-linejoin="round"/>
<path d="M322.61 417C322.349 416.879 322.127 416.686 321.972 416.443C321.817 416.2 321.735 415.918 321.735 415.63C321.735 415.342 321.817 415.06 321.972 414.817C322.127 414.574 322.349 414.381 322.61 414.26C322.61 413.862 322.452 413.481 322.171 413.199C321.889 412.918 321.508 412.76 321.11 412.76H308.25C308.279 414.308 307.746 415.814 306.75 417C306.75 417.289 306.834 417.571 306.99 417.814C307.146 418.057 307.368 418.25 307.63 418.37C307.367 418.487 307.144 418.677 306.987 418.919C306.831 419.16 306.749 419.442 306.75 419.73C307.011 419.851 307.233 420.044 307.388 420.287C307.543 420.53 307.625 420.812 307.625 421.1C307.625 421.388 307.543 421.67 307.388 421.913C307.233 422.156 307.011 422.349 306.75 422.47C306.75 422.759 306.834 423.041 306.99 423.284C307.146 423.527 307.368 423.72 307.63 423.84C307.367 423.957 307.144 424.147 306.987 424.389C306.831 424.63 306.749 424.912 306.75 425.2C306.749 425.398 306.787 425.594 306.861 425.777C306.936 425.96 307.046 426.127 307.186 426.267C307.325 426.407 307.491 426.519 307.674 426.595C307.856 426.671 308.052 426.71 308.25 426.71H321.11C321.308 426.71 321.504 426.671 321.686 426.595C321.869 426.519 322.035 426.407 322.174 426.267C322.314 426.127 322.424 425.96 322.499 425.777C322.574 425.594 322.611 425.398 322.61 425.2C322.611 424.912 322.529 424.63 322.373 424.389C322.216 424.147 321.993 423.957 321.73 423.84C321.468 423.143 321.411 422.385 321.567 421.656C321.723 420.927 322.085 420.259 322.61 419.73C322.611 419.442 322.529 419.16 322.373 418.919C322.216 418.677 321.993 418.487 321.73 418.37C321.992 418.25 322.215 418.057 322.371 417.814C322.526 417.571 322.61 417.289 322.61 417V417Z" fill="#263238" stroke="#263238" stroke-linecap="round" stroke-linejoin="round"/>
<path d="M334.38 426.44H263.53V440.94H334.38V426.44Z" fill="white" stroke="#263238" stroke-linecap="round" stroke-linejoin="round"/>
<path d="M334.38 433.27H263.53V440.93H334.38V433.27Z" fill="#263238" stroke="#263238" stroke-linecap="round" stroke-linejoin="round"/>
<path d="M276.66 440.66H268.18V448.59H276.66V440.66Z" fill="#263238" stroke="#263238" stroke-linecap="round" stroke-linejoin="round"/>
<path d="M302.37 440.66H293.89V448.59H302.37V440.66Z" fill="#263238" stroke="#263238" stroke-linecap="round" stroke-linejoin="round"/>
<path d="M328.08 440.66H319.6V448.59H328.08V440.66Z" fill="#263238" stroke="#263238" stroke-linecap="round" stroke-linejoin="round"/>
<path d="M335.75 398.53H272.83V401.81H335.75V398.53Z" fill="white" stroke="#263238" stroke-linecap="round" stroke-linejoin="round"/>
<path d="M332.19 401.54H278.3V406.46H332.19V401.54Z" fill="#263238" stroke="#263238" stroke-linecap="round" stroke-linejoin="round"/>
<path d="M275.913 317.594L270.001 324.045L307.109 358.047L313.02 351.596L275.913 317.594Z" fill="#263238" stroke="#263238" stroke-linecap="round" stroke-linejoin="round"/>
<path d="M312.71 369.65H305.78V387.52H312.71V369.65Z" fill="#263238" stroke="#263238" stroke-linecap="round" stroke-linejoin="round"/>
<path d="M311.96 387.77H306.58V390.76H311.96V387.77Z" fill="#263238" stroke="#263238" stroke-linecap="round" stroke-linejoin="round"/>
<path d="M319.094 364.2L312.75 366.989L319.944 383.347L326.288 380.557L319.094 364.2Z" fill="#263238" stroke="#263238" stroke-linecap="round" stroke-linejoin="round"/>
<path d="M325.689 381.089L320.764 383.255L321.968 385.992L326.893 383.826L325.689 381.089Z" fill="#263238" stroke="#263238" stroke-linecap="round" stroke-linejoin="round"/>
<path d="M307.57 345.83L300.27 353.13V373.92L323.62 368.08V354.22L307.57 345.83Z" fill="white" stroke="#263238" stroke-linecap="round" stroke-linejoin="round"/>
<path d="M323.62 362.66L300.27 368.69V373.92L323.62 368.08V362.66Z" fill="#263238" stroke="#263238" stroke-linecap="round" stroke-linejoin="round"/>
<path d="M260.88 421.33C260.88 421.33 271.82 414.03 274.01 411.48C276.2 408.93 284.22 398.72 286.41 398.35C288.6 397.98 296.26 397.99 297.72 397.99C299.18 397.99 303.92 402.36 305.01 403.09C306.1 403.82 306.47 407.09 305.38 407.47C304.29 407.85 298.45 404.92 298.45 404.92L288.6 406.74C288.6 406.74 303.55 410.39 304.6 411.12C305.65 411.85 305.33 415.49 305.33 415.49L301 417.68C301 417.68 305.38 417.32 305.38 419.87C305.38 422.42 305.38 424.98 303.55 424.98H301.73C301.73 424.98 305.73 428.98 304.65 430.08C303.359 431.268 301.665 431.922 299.91 431.91C298.08 431.91 293.71 434.09 288.6 435.91C283.49 437.73 275.84 441.01 271.82 441.74C267.8 442.47 261.98 443.2 261.98 443.2C261.98 443.2 261.61 433.72 260.88 430.8C260.15 427.88 258.69 422.41 258.69 422.41L260.88 421.33Z" fill="white" stroke="#263238" stroke-linecap="round" stroke-linejoin="round"/>
<path d="M301 417.68L293.26 419.08" stroke="#263238" stroke-linecap="round" stroke-linejoin="round"/>
<path d="M301.73 424.98L294.09 426.54" stroke="#263238" stroke-linecap="round" stroke-linejoin="round"/>
<path d="M171.52 346.2C166.78 353.49 161.31 370.27 161.31 378.66C161.31 387.05 154.38 419.14 153.65 430.81C152.92 442.48 153.29 449.81 160.58 451.24C167.87 452.67 190.85 454.52 201.07 453.42C211.29 452.32 223 452.33 239 452.33C255 452.33 262.71 451.24 262.71 451.24C263.736 446.056 264.464 440.817 264.89 435.55C265.26 428.99 262.71 419.14 261.61 419.14C260.51 419.14 243.01 422.06 228.06 423.88C213.11 425.7 205.81 423.15 203.26 422.06C202.117 421.483 200.882 421.11 199.61 420.96V416.22L195.23 415.86L199.23 390.33C199.23 390.33 202.52 388.14 203.61 385.59C204.7 383.04 206.16 369.9 205.43 361.88C204.7 353.86 197.04 349.11 197.04 349.11" fill="white"/>
<path d="M171.52 346.2C166.78 353.49 161.31 370.27 161.31 378.66C161.31 387.05 154.38 419.14 153.65 430.81C152.92 442.48 153.29 449.81 160.58 451.24C167.87 452.67 190.85 454.52 201.07 453.42C211.29 452.32 223 452.33 239 452.33C255 452.33 262.71 451.24 262.71 451.24C263.736 446.056 264.464 440.817 264.89 435.55C265.26 428.99 262.71 419.14 261.61 419.14C260.51 419.14 243.01 422.06 228.06 423.88C213.11 425.7 205.81 423.15 203.26 422.06C202.117 421.483 200.882 421.11 199.61 420.96V416.22L195.23 415.86L199.23 390.33C199.23 390.33 202.52 388.14 203.61 385.59C204.7 383.04 206.16 369.9 205.43 361.88C204.7 353.86 197.04 349.11 197.04 349.11" stroke="#263238" stroke-linecap="round" stroke-linejoin="round"/>
<path d="M194.5 418.78C194.5 418.78 191.58 423.88 180.64 428.26" stroke="#263238" stroke-linecap="round" stroke-linejoin="round"/>
<path d="M195.6 422.79C195.6 422.79 179.18 435.19 175.54 439.93" stroke="#263238" stroke-linecap="round" stroke-linejoin="round"/>
<path d="M162 427.53C162 427.53 175.86 427.16 185.71 420.96" stroke="#263238" stroke-linecap="round" stroke-linejoin="round"/>
<path d="M197.42 388.87C197.42 388.87 194.14 383.76 185.75 379.02" stroke="#263238" stroke-linecap="round" stroke-linejoin="round"/>
</svg>
