<svg width="500" height="500" viewBox="0 0 500 500" fill="none" xmlns="http://www.w3.org/2000/svg">
<path d="M455.15 405.11C478.14 372.8 484.8 328 481 290C479.12 271.17 475.44 251.43 464.32 235.65C448.12 212.65 421.38 200.57 401 182C371 154.68 358.31 114.79 332.79 84C299.48 43.89 247 38.82 197.9 41.19C161 43 101.68 43.7 92.9999 90C83.9999 138 101 183 64.9999 206C28.9999 229 9.99995 277 20.9999 318C30.2799 352.58 74.7599 358.7 83.9999 394C94.9999 436 159 492 221 488C283 484 319 443 345 445C375.13 447.31 407.23 447.22 432.56 428.39C441.262 421.86 448.885 414.004 455.15 405.11Z" fill="#1890FF"/>
<path opacity="0.7" d="M455.15 405.11C478.14 372.8 484.8 328 481 290C479.12 271.17 475.44 251.43 464.32 235.65C448.12 212.65 421.38 200.57 401 182C371 154.68 358.31 114.79 332.79 84C299.48 43.89 247 38.82 197.9 41.19C161 43 101.68 43.7 92.9999 90C83.9999 138 101 183 64.9999 206C28.9999 229 9.99995 277 20.9999 318C30.2799 352.58 74.7599 358.7 83.9999 394C94.9999 436 159 492 221 488C283 484 319 443 345 445C375.13 447.31 407.23 447.22 432.56 428.39C441.262 421.86 448.885 414.004 455.15 405.11Z" fill="white"/>
<path d="M410.69 136.06C410.69 136.06 391.6 125.45 390.19 149.49C388.78 173.53 385.24 329.75 385.24 329.75" stroke="#263238" stroke-width="2" stroke-linecap="round" stroke-linejoin="round"/>
<path d="M380.28 151.61C380.28 151.61 395.85 186.25 388.78 327.61" stroke="#263238" stroke-width="2" stroke-linecap="round" stroke-linejoin="round"/>
<path d="M395.57 140.89C395.57 140.89 388.27 145.57 384.12 140.22C379.97 134.87 386.93 125.06 380.79 120.86C374.65 116.66 364.05 123.07 364.05 123.07C364.05 123.07 372.22 125.47 371.95 129.92C371.68 134.37 367.76 136.06 367.24 134.11C366.72 132.16 362.82 122.36 356.19 126.44C354.281 127.569 352.621 129.072 351.308 130.86C349.995 132.647 349.057 134.681 348.55 136.84C348.55 136.84 364 135.2 364.91 141C365.82 146.8 358.59 140 352.22 139.61C345.85 139.22 340.06 140.17 340.47 144.03C340.88 147.89 339.87 154.21 339.87 154.21C339.87 154.21 345.26 149.42 352.26 149.83C359.26 150.24 359 154.7 352.63 154.33C346.26 153.96 340.8 160 340.8 160C340.8 160 346.6 169.92 353.98 174.82C361.36 179.72 363.98 177.97 364.87 174.19C365.76 170.41 363.75 160.71 368.2 160.97C372.65 161.23 360.83 177.78 366.52 178.75C372.21 179.72 376.77 178.08 378.27 174.34L379.77 170.6C379.77 170.6 377.77 160.9 378.65 157.12C379.53 153.34 380.56 157.23 381.57 161.76C382.58 166.29 383.21 177.19 385.16 176.66C387.11 176.13 393.32 168.2 394.78 165.1C396.24 162 386.59 152.48 386.7 150.57C386.81 148.66 394.26 152.29 395.42 154.28C396.26 155.772 397.021 157.308 397.7 158.88C397.7 158.88 402.35 155.96 402.24 147.02C402.13 138.08 395.57 140.89 395.57 140.89Z" fill="#1890FF"/>
<path opacity="0.3" d="M395.57 140.89C395.57 140.89 388.27 145.57 384.12 140.22C379.97 134.87 386.93 125.06 380.79 120.86C374.65 116.66 364.05 123.07 364.05 123.07C364.05 123.07 372.22 125.47 371.95 129.92C371.68 134.37 367.76 136.06 367.24 134.11C366.72 132.16 362.82 122.36 356.19 126.44C354.281 127.569 352.621 129.072 351.308 130.86C349.995 132.647 349.057 134.681 348.55 136.84C348.55 136.84 364 135.2 364.91 141C365.82 146.8 358.59 140 352.22 139.61C345.85 139.22 340.06 140.17 340.47 144.03C340.88 147.89 339.87 154.21 339.87 154.21C339.87 154.21 345.26 149.42 352.26 149.83C359.26 150.24 359 154.7 352.63 154.33C346.26 153.96 340.8 160 340.8 160C340.8 160 346.6 169.92 353.98 174.82C361.36 179.72 363.98 177.97 364.87 174.19C365.76 170.41 363.75 160.71 368.2 160.97C372.65 161.23 360.83 177.78 366.52 178.75C372.21 179.72 376.77 178.08 378.27 174.34L379.77 170.6C379.77 170.6 377.77 160.9 378.65 157.12C379.53 153.34 380.56 157.23 381.57 161.76C382.58 166.29 383.21 177.19 385.16 176.66C387.11 176.13 393.32 168.2 394.78 165.1C396.24 162 386.59 152.48 386.7 150.57C386.81 148.66 394.26 152.29 395.42 154.28C396.26 155.772 397.021 157.308 397.7 158.88C397.7 158.88 402.35 155.96 402.24 147.02C402.13 138.08 395.57 140.89 395.57 140.89Z" fill="#263238"/>
<path d="M358.56 161.87C363.32 155.99 370.34 148.02 376.22 144.22" stroke="#263238" stroke-linecap="round" stroke-linejoin="round"/>
<path d="M353 169C353 169 354.22 167.3 356.2 164.75" stroke="#263238" stroke-linecap="round" stroke-linejoin="round"/>
<path d="M379.32 145.68C379.32 145.68 386.4 155.68 387.71 165.98" stroke="#263238" stroke-linecap="round" stroke-linejoin="round"/>
<path d="M371.31 151.6C371.31 151.6 373.31 150.44 372.55 163.17" stroke="#263238" stroke-linecap="round" stroke-linejoin="round"/>
<path d="M376.48 139.77C376.48 139.77 380.48 136.18 378.39 129.02" stroke="#263238" stroke-linecap="round" stroke-linejoin="round"/>
<path d="M371.01 145.83L368.13 140.55" stroke="#263238" stroke-linecap="round" stroke-linejoin="round"/>
<path d="M365 151.22C365 151.22 355.83 144.29 350.1 143.96" stroke="#263238" stroke-linecap="round" stroke-linejoin="round"/>
<path d="M421.59 122C421.59 122 421.3 132.5 413.11 133C404.92 133.5 399.85 119.85 391.46 123.14C383.07 126.43 382.27 141.4 382.27 141.4C382.27 141.4 390.27 134.86 394.51 138.16C398.75 141.46 397.8 146.55 395.51 145.74C393.22 144.93 380.73 142.15 380.3 151.57C380.129 154.251 380.502 156.94 381.398 159.473C382.293 162.006 383.692 164.332 385.51 166.31C385.51 166.31 394.38 149.74 400.82 152.76C407.26 155.78 395.5 158.41 390.82 164.52C386.14 170.63 383.09 177.09 387.23 179.3C391.37 181.51 397.02 186.84 397.02 186.84C397.02 186.84 395.9 178.18 401.08 171.45C406.26 164.72 410.55 168.03 405.83 174.14C401.11 180.25 403.46 189.86 403.46 189.86C403.46 189.86 417.35 190.86 427.29 186.78C437.23 182.7 437.29 178.88 434.08 175.44C430.87 172 419.82 167.38 423.08 163.09C426.34 158.8 434.88 181.94 439.73 176.9C444.58 171.86 446.05 166.18 443.33 162.12L440.6 158.12C440.6 158.12 429.54 153.5 426.34 150.06C423.14 146.62 427.76 148.22 432.98 150.3C438.2 152.38 449.54 159.17 450.35 156.86C451.16 154.55 447.44 142.92 445.35 139.34C443.26 135.76 427.13 138.95 425.29 137.54C423.45 136.13 432.17 131.14 434.95 131.33C437.02 131.507 439.079 131.79 441.12 132.18C441.12 132.18 441.36 125.55 432.32 119.56C423.28 113.57 421.59 122 421.59 122Z" fill="#1890FF"/>
<path opacity="0.2" d="M421.59 122C421.59 122 421.3 132.5 413.11 133C404.92 133.5 399.85 119.85 391.46 123.14C383.07 126.43 382.27 141.4 382.27 141.4C382.27 141.4 390.27 134.86 394.51 138.16C398.75 141.46 397.8 146.55 395.51 145.74C393.22 144.93 380.73 142.15 380.3 151.57C380.129 154.251 380.502 156.94 381.398 159.473C382.293 162.006 383.692 164.332 385.51 166.31C385.51 166.31 394.38 149.74 400.82 152.76C407.26 155.78 395.5 158.41 390.82 164.52C386.14 170.63 383.09 177.09 387.23 179.3C391.37 181.51 397.02 186.84 397.02 186.84C397.02 186.84 395.9 178.18 401.08 171.45C406.26 164.72 410.55 168.03 405.83 174.14C401.11 180.25 403.46 189.86 403.46 189.86C403.46 189.86 417.35 190.86 427.29 186.78C437.23 182.7 437.29 178.88 434.08 175.44C430.87 172 419.82 167.38 423.08 163.09C426.34 158.8 434.88 181.94 439.73 176.9C444.58 171.86 446.05 166.18 443.33 162.12L440.6 158.12C440.6 158.12 429.54 153.5 426.34 150.06C423.14 146.62 427.76 148.22 432.98 150.3C438.2 152.38 449.54 159.17 450.35 156.86C451.16 154.55 447.44 142.92 445.35 139.34C443.26 135.76 427.13 138.95 425.29 137.54C423.45 136.13 432.17 131.14 434.95 131.33C437.02 131.507 439.079 131.79 441.12 132.18C441.12 132.18 441.36 125.55 432.32 119.56C423.28 113.57 421.59 122 421.59 122Z" fill="#263238"/>
<path d="M417.37 173.39C414.72 164.61 411.53 152.16 411.73 143.68" stroke="#263238" stroke-linecap="round" stroke-linejoin="round"/>
<path d="M420.78 183.8C420.78 183.8 419.91 181.42 418.71 177.7" stroke="#263238" stroke-linecap="round" stroke-linejoin="round"/>
<path d="M415.31 141.56C415.31 141.56 430.14 141.3 441.31 147" stroke="#263238" stroke-linecap="round" stroke-linejoin="round"/>
<path d="M415.77 153.62C415.77 153.62 415.96 150.84 428.2 160.27" stroke="#263238" stroke-linecap="round" stroke-linejoin="round"/>
<path d="M407.45 140.38C407.45 140.38 406.61 133.88 398 131.14" stroke="#263238" stroke-linecap="round" stroke-linejoin="round"/>
<path d="M409.8 149.99L402.55 149.27" stroke="#263238" stroke-linecap="round" stroke-linejoin="round"/>
<path d="M411.06 159.73C411.06 159.73 397.87 164.19 393.63 169.73" stroke="#263238" stroke-linecap="round" stroke-linejoin="round"/>
<path d="M333.64 191.9C333.64 191.9 375.35 219.47 374.64 326.21" stroke="#263238" stroke-width="2" stroke-linecap="round" stroke-linejoin="round"/>
<path d="M385.06 184.62C385.06 184.62 383.73 196.71 374.23 196.52C364.73 196.33 360.17 180.1 350.18 183.1C340.19 186.1 337.85 203.3 337.85 203.3C337.85 203.3 347.65 196.51 352.28 200.72C356.91 204.93 355.28 210.72 352.7 209.56C350.12 208.4 336 204 334.6 214.84C334.145 217.919 334.32 221.059 335.114 224.069C335.908 227.079 337.305 229.896 339.22 232.35C339.22 232.35 351.01 214.07 358.17 218.16C365.33 222.25 351.49 224.16 345.47 230.79C339.45 237.42 335.36 244.55 339.93 247.5C344.5 250.45 350.51 257.13 350.51 257.13C350.51 257.13 350 247 356.65 239.75C363.3 232.5 367.9 236.69 361.88 243.3C355.86 249.91 357.67 261.22 357.67 261.22C357.67 261.22 373.6 263.63 385.45 259.91C397.3 256.19 397.72 251.74 394.35 247.46C390.98 243.18 378.66 236.81 382.88 232.19C387.1 227.57 394.71 255.04 400.79 249.69C406.87 244.34 409.09 237.91 406.33 232.98L403.56 228.05C403.56 228.05 391.24 221.67 387.87 217.39C384.5 213.11 389.68 215.39 395.51 218.3C401.34 221.21 413.79 230.09 414.93 227.51C416.07 224.93 412.93 211.15 410.79 206.82C408.65 202.49 389.79 204.65 387.79 202.82C385.79 200.99 396.33 196.09 399.52 196.57C401.878 196.975 404.215 197.499 406.52 198.14C406.52 198.14 407.43 190.5 397.57 182.74C387.71 174.98 385.06 184.62 385.06 184.62Z" fill="#1890FF"/>
<path opacity="0.3" d="M385.06 184.62C385.06 184.62 383.73 196.71 374.23 196.52C364.73 196.33 360.17 180.1 350.18 183.1C340.19 186.1 337.85 203.3 337.85 203.3C337.85 203.3 347.65 196.51 352.28 200.72C356.91 204.93 355.28 210.72 352.7 209.56C350.12 208.4 336 204 334.6 214.84C334.145 217.919 334.32 221.059 335.114 224.069C335.908 227.079 337.305 229.896 339.22 232.35C339.22 232.35 351.01 214.07 358.17 218.16C365.33 222.25 351.49 224.16 345.47 230.79C339.45 237.42 335.36 244.55 339.93 247.5C344.5 250.45 350.51 257.13 350.51 257.13C350.51 257.13 350 247 356.65 239.75C363.3 232.5 367.9 236.69 361.88 243.3C355.86 249.91 357.67 261.22 357.67 261.22C357.67 261.22 373.6 263.63 385.45 259.91C397.3 256.19 397.72 251.74 394.35 247.46C390.98 243.18 378.66 236.81 382.88 232.19C387.1 227.57 394.71 255.04 400.79 249.69C406.87 244.34 409.09 237.91 406.33 232.98L403.56 228.05C403.56 228.05 391.24 221.67 387.87 217.39C384.5 213.11 389.68 215.39 395.51 218.3C401.34 221.21 413.79 230.09 414.93 227.51C416.07 224.93 412.93 211.15 410.79 206.82C408.65 202.49 389.79 204.65 387.79 202.82C385.79 200.99 396.33 196.09 399.52 196.57C401.878 196.975 404.215 197.499 406.52 198.14C406.52 198.14 407.43 190.5 397.57 182.74C387.71 174.98 385.06 184.62 385.06 184.62Z" fill="#263238"/>
<path d="M375.34 243.48C373.11 233.1 370.61 218.48 371.64 208.67" stroke="#263238" stroke-linecap="round" stroke-linejoin="round"/>
<path d="M378.3 255.82C378.3 255.82 377.52 252.99 376.49 248.58" stroke="#263238" stroke-linecap="round" stroke-linejoin="round"/>
<path d="M376 206.56C376 206.56 393.14 207.65 405.52 215.3" stroke="#263238" stroke-linecap="round" stroke-linejoin="round"/>
<path d="M375.36 220.52C375.36 220.52 375.85 217.33 389.07 229.36" stroke="#263238" stroke-linecap="round" stroke-linejoin="round"/>
<path d="M367 204.46C367 204.46 366.65 196.88 357 192.91" stroke="#263238" stroke-linecap="round" stroke-linejoin="round"/>
<path d="M368.81 215.76L360.51 214.25" stroke="#263238" stroke-linecap="round" stroke-linejoin="round"/>
<path d="M369.35 227.13C369.35 227.13 353.71 231 348.3 237" stroke="#263238" stroke-linecap="round" stroke-linejoin="round"/>
<path d="M349.9 276C349.9 276 376.76 296.5 379.59 326.9L373.93 225.11" stroke="#263238" stroke-width="2" stroke-linecap="round" stroke-linejoin="round"/>
<path d="M383.83 326.21C383.83 326.21 363.33 177.06 422.71 177.06" stroke="#263238" stroke-width="2" stroke-linecap="round" stroke-linejoin="round"/>
<path d="M459.42 204.92C452.85 201.03 445.59 200.92 442.03 196.84C438.47 192.76 445.46 190.67 449.2 192.22C452.94 193.77 461.61 198.22 463.25 199.22C464.89 200.22 463.76 185.99 460.71 180.64C457.66 175.29 449.33 172.18 445.17 176.55C436.39 185.77 422.7 173.68 423.64 166.48C424.58 159.28 417.85 151.48 403.41 156.06C388.97 160.64 394.35 163.13 394.35 163.13C394.35 163.13 404.61 169.41 411.18 173.3C417.75 177.19 428.63 180.52 426.3 183.35C423.97 186.18 417.66 184.45 412.4 180.23C407.14 176.01 392 165.94 390.47 169.68C388.94 173.42 383.47 183.68 383.47 183.68C390.156 184.705 396.767 186.172 403.26 188.07C412.05 190.83 413.85 195.66 406.98 196.07C400.11 196.48 387.64 191.29 383.75 197.86C379.86 204.43 382.53 221.3 382.53 221.3C382.53 221.3 395.11 212.77 401.53 212.8C407.95 212.83 403.84 216.39 396.67 221.01C393.557 222.912 390.553 224.985 387.67 227.22L394.21 244C394.21 244 405 242.62 409.26 242.92L413.52 243.22C413.52 243.22 413.52 225.68 418.52 220.48C423.52 215.28 424.46 227.31 425.52 230.38C426.58 233.45 423.38 242.64 423.38 242.64C423.38 242.64 435.84 235.82 439.88 233.11L443.88 230.4C443.88 230.4 439.22 217.66 436.05 214.02C432.88 210.38 428.57 210.92 432.22 207.76C435.87 204.6 441.3 206.26 444.41 210.76C447.52 215.26 451.23 224 451.23 224C451.23 224 455.88 224.75 461.93 217.91C467.98 211.07 466 208.8 459.42 204.92ZM402.31 224.23C397.48 221.82 409 217 409 217C413.17 216.39 407.14 226.65 402.31 224.23ZM410.44 201.7C408.38 200.7 414.56 198.62 414.56 198.62C423.47 200.33 412.5 202.73 410.44 201.7Z" fill="#1890FF"/>
<path d="M402.18 236.53C400.933 237.863 399.643 239.15 398.31 240.39" stroke="#263238" stroke-linecap="round" stroke-linejoin="round"/>
<path d="M427 199C422.38 208.62 415.4 221.18 406.21 232.09" stroke="#263238" stroke-linecap="round" stroke-linejoin="round"/>
<path d="M429.18 194.15C432.08 187.68 433.56 183.41 433.56 183.41C433.56 183.41 438.95 185.93 444.17 184.59C447.254 183.782 450.486 183.717 453.6 184.4" stroke="#263238" stroke-linecap="round" stroke-linejoin="round"/>
<path d="M423.93 192.57C425.3 191.39 404.22 180.91 404.22 180.91" stroke="#263238" stroke-linecap="round" stroke-linejoin="round"/>
<path d="M435 198.92C435 198.92 445 203.04 450.52 209.42" stroke="#263238" stroke-linecap="round" stroke-linejoin="round"/>
<path d="M421.72 205.68C416.38 204.777 410.964 204.396 405.55 204.54C400.107 204.602 394.708 205.52 389.55 207.26" stroke="#263238" stroke-linecap="round" stroke-linejoin="round"/>
<path d="M424.25 212.27C424.25 212.27 435.3 219.47 435.09 228.44" stroke="#263238" stroke-linecap="round" stroke-linejoin="round"/>
<path d="M344.09 188.88C344.09 188.88 337.45 193.71 333.22 188.88C328.99 184.05 335 174.4 329 170.78C323 167.16 313.31 173.78 313.31 173.78C313.31 173.78 321.15 175.59 321.15 179.78C321.15 183.97 317.53 185.78 316.93 184.01C316.33 182.24 312.1 173.14 306.07 177.37C304.326 178.541 302.838 180.055 301.697 181.818C300.555 183.582 299.784 185.559 299.43 187.63C299.43 187.63 313.91 185.21 315.12 190.63C316.33 196.05 309.12 190.03 303.05 190.03C296.98 190.03 291.58 191.24 292.18 194.86C292.511 198.068 292.511 201.302 292.18 204.51C292.18 204.51 297.01 199.69 303.65 199.69C310.29 199.69 310.29 203.91 304.25 203.91C298.21 203.91 293.39 209.91 293.39 209.91C293.39 209.91 299.39 218.96 306.67 223.18C313.95 227.4 316.32 225.6 316.93 221.98C317.54 218.36 315.12 209.3 319.34 209.3C323.56 209.3 313.34 225.6 318.74 226.2C324.14 226.8 328.39 224.99 329.6 221.37L330.81 217.75C330.81 217.75 328.39 208.75 329 205.08C329.61 201.41 330.81 205.08 332 209.3C333.19 213.52 334.41 223.79 336.22 223.18C338.03 222.57 343.46 214.73 344.67 211.72C345.88 208.71 336.22 200.25 336.22 198.44C336.22 196.63 343.46 199.65 344.67 201.44C345.548 202.803 346.352 204.212 347.08 205.66C347.08 205.66 351.31 202.66 350.7 194.19C350.09 185.72 344.09 188.88 344.09 188.88Z" fill="#1890FF"/>
<path d="M310.28 210.77C314.45 204.94 320.64 197.03 325.98 193.11" stroke="#263238" stroke-linecap="round" stroke-linejoin="round"/>
<path d="M305.46 217.85C305.46 217.85 306.52 216.18 308.25 213.66" stroke="#263238" stroke-linecap="round" stroke-linejoin="round"/>
<path d="M329 194.31C329 194.31 336.24 203.37 338.05 213.02" stroke="#263238" stroke-linecap="round" stroke-linejoin="round"/>
<path d="M321.76 200.35C321.76 200.35 323.57 199.14 323.57 211.21" stroke="#263238" stroke-linecap="round" stroke-linejoin="round"/>
<path d="M326 188.88C326 188.88 329.62 185.26 327.21 178.62" stroke="#263238" stroke-linecap="round" stroke-linejoin="round"/>
<path d="M321.15 194.92L318.14 190.09" stroke="#263238" stroke-linecap="round" stroke-linejoin="round"/>
<path d="M315.72 200.35C315.72 200.35 306.67 194.35 301.24 194.35" stroke="#263238" stroke-linecap="round" stroke-linejoin="round"/>
<path d="M350.3 264.9C350.3 264.9 369.39 254.3 370.8 278.33C371.68 293.18 373.36 358.49 374.52 406.24" stroke="#263238" stroke-width="2" stroke-linecap="round" stroke-linejoin="round"/>
<path d="M380.72 280.45C380.72 280.45 369 306.61 370.52 406.23" stroke="#263238" stroke-width="2" stroke-linecap="round" stroke-linejoin="round"/>
<path d="M365.42 269.74C365.42 269.74 372.72 274.42 376.88 269.07C381.04 263.72 374.07 253.9 380.21 249.71C386.35 245.52 396.94 251.92 396.94 251.92C396.94 251.92 388.78 254.31 389.04 258.77C389.3 263.23 393.24 264.91 393.76 262.96C394.28 261.01 398.17 251.2 404.76 255.28C406.671 256.408 408.334 257.913 409.647 259.702C410.96 261.491 411.897 263.528 412.4 265.69C412.4 265.69 396.98 264.05 396.04 269.85C395.1 275.65 402.37 268.85 408.73 268.46C415.09 268.07 420.9 269.02 420.49 272.88C420.08 276.74 421.09 283.06 421.09 283.06C421.09 283.06 415.7 278.27 408.7 278.68C401.7 279.09 401.96 283.55 408.32 283.17C414.68 282.79 420.15 288.86 420.15 288.86C420.15 288.86 414.35 298.78 406.98 303.69C399.61 308.6 396.98 306.83 396.08 303.05C395.18 299.27 397.21 289.58 392.75 289.84C388.29 290.1 400.13 306.65 394.44 307.62C388.75 308.59 384.18 306.95 382.68 303.21L381.18 299.46C381.18 299.46 383.18 289.77 382.31 285.99C381.44 282.21 380.4 286.1 379.39 290.63C378.38 295.16 377.74 306.05 375.79 305.53C373.84 305.01 367.63 297.07 366.17 293.96C364.71 290.85 374.37 281.34 374.26 279.44C374.15 277.54 366.69 281.16 365.53 283.14C364.691 284.636 363.93 286.175 363.25 287.75C363.25 287.75 358.61 284.83 358.72 275.88C358.83 266.93 365.42 269.74 365.42 269.74Z" fill="#1890FF"/>
<path opacity="0.3" d="M365.42 269.74C365.42 269.74 372.72 274.42 376.88 269.07C381.04 263.72 374.07 253.9 380.21 249.71C386.35 245.52 396.94 251.92 396.94 251.92C396.94 251.92 388.78 254.31 389.04 258.77C389.3 263.23 393.24 264.91 393.76 262.96C394.28 261.01 398.17 251.2 404.76 255.28C406.671 256.408 408.334 257.913 409.647 259.702C410.96 261.491 411.897 263.528 412.4 265.69C412.4 265.69 396.98 264.05 396.04 269.85C395.1 275.65 402.37 268.85 408.73 268.46C415.09 268.07 420.9 269.02 420.49 272.88C420.08 276.74 421.09 283.06 421.09 283.06C421.09 283.06 415.7 278.27 408.7 278.68C401.7 279.09 401.96 283.55 408.32 283.17C414.68 282.79 420.15 288.86 420.15 288.86C420.15 288.86 414.35 298.78 406.98 303.69C399.61 308.6 396.98 306.83 396.08 303.05C395.18 299.27 397.21 289.58 392.75 289.84C388.29 290.1 400.13 306.65 394.44 307.62C388.75 308.59 384.18 306.95 382.68 303.21L381.18 299.46C381.18 299.46 383.18 289.77 382.31 285.99C381.44 282.21 380.4 286.1 379.39 290.63C378.38 295.16 377.74 306.05 375.79 305.53C373.84 305.01 367.63 297.07 366.17 293.96C364.71 290.85 374.37 281.34 374.26 279.44C374.15 277.54 366.69 281.16 365.53 283.14C364.691 284.636 363.93 286.175 363.25 287.75C363.25 287.75 358.61 284.83 358.72 275.88C358.83 266.93 365.42 269.74 365.42 269.74Z" fill="#263238"/>
<path d="M402.43 290.72C397.67 284.83 390.66 276.87 384.78 273.07" stroke="#263238" stroke-linecap="round" stroke-linejoin="round"/>
<path d="M408 297.89C408 297.89 406.78 296.19 404.8 293.64" stroke="#263238" stroke-linecap="round" stroke-linejoin="round"/>
<path d="M381.67 274.53C381.67 274.53 374.6 284.53 373.29 294.82" stroke="#263238" stroke-linecap="round" stroke-linejoin="round"/>
<path d="M389.68 280.44C389.68 280.44 387.68 279.28 388.45 292.01" stroke="#263238" stroke-linecap="round" stroke-linejoin="round"/>
<path d="M384.51 268.61C384.51 268.61 380.51 265.02 382.6 257.87" stroke="#263238" stroke-linecap="round" stroke-linejoin="round"/>
<path d="M389.98 274.68L392.86 269.4" stroke="#263238" stroke-linecap="round" stroke-linejoin="round"/>
<path d="M396.05 280.07C396.05 280.07 405.22 273.14 410.94 272.8" stroke="#263238" stroke-linecap="round" stroke-linejoin="round"/>
<path d="M339.4 250.88C339.4 250.88 339.69 261.38 347.88 261.88C356.07 262.38 361.15 248.73 369.53 252.02C377.91 255.31 378.73 270.28 378.73 270.28C378.73 270.28 370.73 263.74 366.49 267.04C362.25 270.34 363.2 275.42 365.49 274.62C367.78 273.82 380.27 271.03 380.71 280.44C380.882 283.122 380.508 285.812 379.611 288.345C378.714 290.879 377.312 293.204 375.49 295.18C375.49 295.18 366.63 278.62 360.18 281.64C353.73 284.66 365.51 287.28 370.18 293.4C374.85 299.52 378 306 373.82 308.19C369.64 310.38 364.04 315.73 364.04 315.73C364.04 315.73 365.16 307.07 359.97 300.34C354.78 293.61 350.51 296.91 355.22 303.03C359.93 309.15 357.59 318.75 357.59 318.75C357.59 318.75 343.7 319.7 333.77 315.67C323.84 311.64 323.77 307.77 326.98 304.33C330.19 300.89 341.23 296.26 337.93 291.98C334.63 287.7 326.13 310.82 321.28 305.79C316.43 300.76 315 295.06 317.69 291L320.41 286.95C320.41 286.95 331.47 282.33 334.67 278.89C337.87 275.45 333.26 277.05 328.03 279.13C322.8 281.21 311.47 287.99 310.67 285.69C309.87 283.39 313.57 271.75 315.67 268.17C317.77 264.59 333.89 267.78 335.72 266.36C337.55 264.94 328.84 259.97 326.07 260.16C324 260.337 321.941 260.62 319.9 261.01C319.9 261.01 319.66 254.37 328.69 248.38C337.72 242.39 339.4 250.88 339.4 250.88Z" fill="#1890FF"/>
<path opacity="0.2" d="M339.4 250.88C339.4 250.88 339.69 261.38 347.88 261.88C356.07 262.38 361.15 248.73 369.53 252.02C377.91 255.31 378.73 270.28 378.73 270.28C378.73 270.28 370.73 263.74 366.49 267.04C362.25 270.34 363.2 275.42 365.49 274.62C367.78 273.82 380.27 271.03 380.71 280.44C380.882 283.122 380.508 285.812 379.611 288.345C378.714 290.879 377.312 293.204 375.49 295.18C375.49 295.18 366.63 278.62 360.18 281.64C353.73 284.66 365.51 287.28 370.18 293.4C374.85 299.52 378 306 373.82 308.19C369.64 310.38 364.04 315.73 364.04 315.73C364.04 315.73 365.16 307.07 359.97 300.34C354.78 293.61 350.51 296.91 355.22 303.03C359.93 309.15 357.59 318.75 357.59 318.75C357.59 318.75 343.7 319.7 333.77 315.67C323.84 311.64 323.77 307.77 326.98 304.33C330.19 300.89 341.23 296.26 337.93 291.98C334.63 287.7 326.13 310.82 321.28 305.79C316.43 300.76 315 295.06 317.69 291L320.41 286.95C320.41 286.95 331.47 282.33 334.67 278.89C337.87 275.45 333.26 277.05 328.03 279.13C322.8 281.21 311.47 287.99 310.67 285.69C309.87 283.39 313.57 271.75 315.67 268.17C317.77 264.59 333.89 267.78 335.72 266.36C337.55 264.94 328.84 259.97 326.07 260.16C324 260.337 321.941 260.62 319.9 261.01C319.9 261.01 319.66 254.37 328.69 248.38C337.72 242.39 339.4 250.88 339.4 250.88Z" fill="#263238"/>
<path d="M343.62 302.24C346.27 293.46 349.46 281 349.26 272.53" stroke="#263238" stroke-linecap="round" stroke-linejoin="round"/>
<path d="M340.21 312.65C340.21 312.65 341.08 310.26 342.28 306.54" stroke="#263238" stroke-linecap="round" stroke-linejoin="round"/>
<path d="M345.68 270.41C345.68 270.41 330.85 270.14 319.68 275.85" stroke="#263238" stroke-linecap="round" stroke-linejoin="round"/>
<path d="M345.22 282.46C345.22 282.46 345.03 279.69 332.8 289.11" stroke="#263238" stroke-linecap="round" stroke-linejoin="round"/>
<path d="M353.54 269.23C353.54 269.23 354.38 262.73 363 259.99" stroke="#263238" stroke-linecap="round" stroke-linejoin="round"/>
<path d="M351.2 278.83L358.45 278.12" stroke="#263238" stroke-linecap="round" stroke-linejoin="round"/>
<path d="M349.93 288.58C349.93 288.58 363.12 293.04 367.36 298.58" stroke="#263238" stroke-linecap="round" stroke-linejoin="round"/>
<path d="M427.36 320.75C427.36 320.75 399 339.51 389.43 406" stroke="#263238" stroke-width="2" stroke-linecap="round" stroke-linejoin="round"/>
<path d="M375.93 313.47C375.93 313.47 377.26 325.55 386.76 325.37C396.26 325.19 400.83 308.94 410.81 311.95C420.79 314.96 423.15 332.15 423.15 332.15C423.15 332.15 413.34 325.36 408.71 329.57C404.08 333.78 405.71 339.57 408.3 338.41C410.89 337.25 425.01 332.87 426.4 343.69C426.853 346.768 426.678 349.906 425.884 352.914C425.09 355.922 423.694 358.737 421.78 361.19C421.78 361.19 410 342.92 402.83 347C395.66 351.08 409.51 353 415.52 359.62C421.53 366.24 425.63 373.39 421.06 376.34C416.49 379.29 410.48 386 410.48 386C410.48 386 410.96 375.9 404.34 368.63C397.72 361.36 393.09 365.56 399.11 372.18C405.13 378.8 403.33 390.1 403.33 390.1C403.33 390.1 387.39 392.51 375.55 388.78C363.71 385.05 363.27 380.61 366.64 376.34C370.01 372.07 382.33 365.69 378.12 361.06C373.91 356.43 366.28 383.92 360.21 378.57C354.14 373.22 351.9 366.79 354.67 361.85L357.43 356.92C357.43 356.92 369.76 350.54 373.12 346.27C376.48 342 371.32 344.27 365.48 347.18C359.64 350.09 347.21 358.97 346.06 356.39C344.91 353.81 348.06 340.03 350.2 335.7C352.34 331.37 371.2 333.52 373.2 331.7C375.2 329.88 364.66 324.97 361.48 325.45C359.121 325.85 356.784 326.374 354.48 327.02C354.48 327.02 353.57 319.38 363.43 311.62C373.29 303.86 375.93 313.47 375.93 313.47Z" fill="#1890FF"/>
<path opacity="0.3" d="M375.93 313.47C375.93 313.47 377.26 325.55 386.76 325.37C396.26 325.19 400.83 308.94 410.81 311.95C420.79 314.96 423.15 332.15 423.15 332.15C423.15 332.15 413.34 325.36 408.71 329.57C404.08 333.78 405.71 339.57 408.3 338.41C410.89 337.25 425.01 332.87 426.4 343.69C426.853 346.768 426.678 349.906 425.884 352.914C425.09 355.922 423.694 358.737 421.78 361.19C421.78 361.19 410 342.92 402.83 347C395.66 351.08 409.51 353 415.52 359.62C421.53 366.24 425.63 373.39 421.06 376.34C416.49 379.29 410.48 386 410.48 386C410.48 386 410.96 375.9 404.34 368.63C397.72 361.36 393.09 365.56 399.11 372.18C405.13 378.8 403.33 390.1 403.33 390.1C403.33 390.1 387.39 392.51 375.55 388.78C363.71 385.05 363.27 380.61 366.64 376.34C370.01 372.07 382.33 365.69 378.12 361.06C373.91 356.43 366.28 383.92 360.21 378.57C354.14 373.22 351.9 366.79 354.67 361.85L357.43 356.92C357.43 356.92 369.76 350.54 373.12 346.27C376.48 342 371.32 344.27 365.48 347.18C359.64 350.09 347.21 358.97 346.06 356.39C344.91 353.81 348.06 340.03 350.2 335.7C352.34 331.37 371.2 333.52 373.2 331.7C375.2 329.88 364.66 324.97 361.48 325.45C359.121 325.85 356.784 326.374 354.48 327.02C354.48 327.02 353.57 319.38 363.43 311.62C373.29 303.86 375.93 313.47 375.93 313.47Z" fill="#263238"/>
<path d="M385.65 372.33C387.88 361.95 390.39 347.28 389.35 337.51" stroke="#263238" stroke-linecap="round" stroke-linejoin="round"/>
<path d="M382.7 384.66C382.7 384.66 383.48 381.83 384.51 377.43" stroke="#263238" stroke-linecap="round" stroke-linejoin="round"/>
<path d="M385 335.41C385 335.41 367.86 336.5 355.48 344.14" stroke="#263238" stroke-linecap="round" stroke-linejoin="round"/>
<path d="M385.63 349.36C385.63 349.36 385.15 346.17 371.92 358.21" stroke="#263238" stroke-linecap="round" stroke-linejoin="round"/>
<path d="M394 333.3C394 333.3 394.36 325.72 404 321.75" stroke="#263238" stroke-linecap="round" stroke-linejoin="round"/>
<path d="M392.18 344.61L400.48 343.1" stroke="#263238" stroke-linecap="round" stroke-linejoin="round"/>
<path d="M391.65 356C391.65 356 407.28 359.91 412.7 365.86" stroke="#263238" stroke-linecap="round" stroke-linejoin="round"/>
<path d="M384.19 405.67L387.06 353.97" stroke="#263238" stroke-width="2" stroke-linecap="round" stroke-linejoin="round"/>
<path d="M380.55 406.24C381.16 362.74 374.94 305.9 338.29 305.9" stroke="#263238" stroke-width="2" stroke-linecap="round" stroke-linejoin="round"/>
<path d="M301.57 333.76C308.14 329.88 315.41 329.76 318.97 325.69C322.53 321.62 315.54 319.52 311.8 321.06C308.06 322.6 299.39 327.06 297.74 328.06C296.09 329.06 297.24 314.84 300.28 309.49C303.32 304.14 311.66 301.03 315.82 305.4C324.6 314.62 338.29 302.53 337.36 295.32C336.43 288.11 343.15 280.37 357.59 284.91C372.03 289.45 366.64 291.97 366.64 291.97C366.64 291.97 356.39 298.26 349.82 302.14C343.25 306.02 332.36 309.36 334.7 312.19C337.04 315.02 343.33 313.3 348.6 309.07C353.87 304.84 368.98 294.8 370.53 298.54C372.08 302.28 377.53 312.59 377.53 312.59C370.841 313.621 364.226 315.091 357.73 316.99C348.94 319.75 347.14 324.58 354.01 324.99C360.88 325.4 373.36 320.2 377.24 326.77C381.12 333.34 378.47 350.21 378.47 350.21C378.47 350.21 365.89 341.69 359.47 341.72C353.05 341.75 357.16 345.3 364.33 349.93C367.44 351.835 370.445 353.908 373.33 356.14L366.8 372.86C366.8 372.86 356.01 371.48 351.8 371.78L347.54 372.08C347.54 372.08 347.54 354.54 342.54 349.33C337.54 344.12 336.61 356.17 335.54 359.24C334.47 362.31 337.69 371.49 337.69 371.49C337.69 371.49 325.23 364.67 321.19 361.96L317.19 359.25C317.19 359.25 321.85 346.52 325.01 342.87C328.17 339.22 332.49 339.78 328.85 336.61C325.21 333.44 319.76 335.12 316.65 339.61C313.54 344.1 309.89 352.92 309.89 352.92C309.89 352.92 305.24 353.68 299.2 346.83C293.16 339.98 295 337.65 301.57 333.76ZM358.68 353.08C363.51 350.67 352.05 345.84 352.05 345.84C347.82 345.23 353.86 355.49 358.68 353.08ZM350.55 330.55C352.61 329.55 346.44 327.46 346.44 327.46C337.52 329.18 348.5 331.58 350.55 330.55V330.55Z" fill="#1890FF"/>
<path d="M358.81 365.37C360.07 366.703 361.36 367.993 362.68 369.24" stroke="#263238" stroke-linecap="round" stroke-linejoin="round"/>
<path d="M334.05 327.82C338.66 337.44 345.65 349.99 354.84 360.91" stroke="#263238" stroke-linecap="round" stroke-linejoin="round"/>
<path d="M331.81 323C328.92 316.53 327.43 312.26 327.43 312.26C327.43 312.26 322.05 314.78 316.82 313.44C313.74 312.627 310.51 312.562 307.4 313.25" stroke="#263238" stroke-linecap="round" stroke-linejoin="round"/>
<path d="M337.06 321.42C335.7 320.23 356.77 309.76 356.77 309.76" stroke="#263238" stroke-linecap="round" stroke-linejoin="round"/>
<path d="M326 327.76C326 327.76 316 331.89 310.48 338.27" stroke="#263238" stroke-linecap="round" stroke-linejoin="round"/>
<path d="M339.27 334.52C344.614 333.617 350.033 333.235 355.45 333.38C360.893 333.444 366.292 334.362 371.45 336.1" stroke="#263238" stroke-linecap="round" stroke-linejoin="round"/>
<path d="M336.74 341.12C336.74 341.12 325.74 348.32 325.9 357.29" stroke="#263238" stroke-linecap="round" stroke-linejoin="round"/>
<path d="M416.91 317.73C416.91 317.73 423.55 322.56 427.77 317.73C431.99 312.9 426 303.25 432 299.62C438 295.99 447.69 302.62 447.69 302.62C447.69 302.62 439.84 304.43 439.84 308.62C439.84 312.81 443.46 314.62 444.07 312.84C444.68 311.06 448.89 301.98 454.93 306.2C456.671 307.374 458.157 308.889 459.298 310.652C460.439 312.415 461.212 314.391 461.57 316.46C461.57 316.46 447.08 314.05 445.88 319.46C444.68 324.87 451.88 318.86 457.95 318.86C464.02 318.86 469.41 320.06 468.81 323.68C468.484 326.892 468.484 330.128 468.81 333.34C468.81 333.34 463.98 328.51 457.34 328.51C450.7 328.51 450.7 332.74 456.74 332.74C462.78 332.74 467.6 338.74 467.6 338.74C467.6 338.74 461.6 347.74 454.33 352.02C447.06 356.3 444.67 354.43 444.07 350.81C443.47 347.19 445.88 338.14 441.65 338.14C437.42 338.14 447.65 354.43 442.26 355.04C436.87 355.65 432.6 353.83 431.39 350.21L430.19 346.59C430.19 346.59 432.6 337.64 432 334C431.4 330.36 430.19 334 429 338.23C427.81 342.46 426.58 352.71 424.77 352.11C422.96 351.51 417.53 343.66 416.33 340.64C415.13 337.62 424.77 329.18 424.77 327.37C424.77 325.56 417.53 328.57 416.33 330.37C415.45 331.737 414.642 333.149 413.91 334.6C413.91 334.6 409.69 331.6 410.29 323.13C410.89 314.66 416.91 317.73 416.91 317.73Z" fill="#1890FF"/>
<path d="M450.72 339.62C446.55 333.79 440.36 325.87 435.01 321.95" stroke="#263238" stroke-linecap="round" stroke-linejoin="round"/>
<path d="M455.53 346.7C455.53 346.7 454.47 345.02 452.74 342.51" stroke="#263238" stroke-linecap="round" stroke-linejoin="round"/>
<path d="M432 323.16C432 323.16 424.75 332.16 422.94 341.87" stroke="#263238" stroke-linecap="round" stroke-linejoin="round"/>
<path d="M439.24 329.2C439.24 329.2 437.43 327.99 437.43 340.06" stroke="#263238" stroke-linecap="round" stroke-linejoin="round"/>
<path d="M435 317.73C435 317.73 431.38 314.11 433.8 307.47" stroke="#263238" stroke-linecap="round" stroke-linejoin="round"/>
<path d="M439.84 323.76L442.86 318.94" stroke="#263238" stroke-linecap="round" stroke-linejoin="round"/>
<path d="M445.27 329.2C445.27 329.2 454.33 323.2 459.76 323.2" stroke="#263238" stroke-linecap="round" stroke-linejoin="round"/>
<path opacity="0.2" d="M280 34.78H58V327.12H280V34.78Z" fill="black"/>
<path d="M273 26.78H51V319.12H273V26.78Z" fill="white" stroke="#263238" stroke-linecap="round" stroke-linejoin="round"/>
<path d="M214.6 114.59H63V80.52H259.72V114.59H218.26" stroke="#263238" stroke-linecap="round" stroke-linejoin="round"/>
<path d="M75.28 154.89H63V137.28H170.38" stroke="#263238" stroke-linecap="round" stroke-linejoin="round"/>
<path d="M175.04 137.28H259.72V154.89H78.61" stroke="#263238" stroke-linecap="round" stroke-linejoin="round"/>
<path d="M228.9 190.53H63V172.92H259.72V190.53H232.56" stroke="#263238" stroke-linecap="round" stroke-linejoin="round"/>
<path d="M113.86 297.04H63V207.36H259.72V297.04H118.84" stroke="#263238" stroke-linecap="round" stroke-linejoin="round"/>
<path d="M259.72 207.36H63V223.03H259.72V207.36Z" fill="#D1D1D1" stroke="#263238" stroke-linecap="round" stroke-linejoin="round"/>
<path d="M156.51 115.25V137.31H63V114.59" stroke="#263238" stroke-linecap="round" stroke-linejoin="round"/>
<path d="M259.72 92.61H63V102.5H259.72V92.61Z" fill="#D1D1D1" stroke="#263238" stroke-linecap="round" stroke-linejoin="round"/>
<path d="M194.41 81.44V92.66" stroke="#263238" stroke-linecap="round" stroke-linejoin="round"/>
<path d="M219.7 83.32H206.3V89.87H219.7V83.32Z" fill="#D1D1D1" stroke="#263238" stroke-linecap="round" stroke-linejoin="round"/>
<path d="M163.1 102.81V114.7" stroke="#263238" stroke-linecap="round" stroke-linejoin="round"/>
<path d="M204.23 102.81V114.7" stroke="#263238" stroke-linecap="round" stroke-linejoin="round"/>
<path d="M99.1899 137.31V114.75" stroke="#263238" stroke-linecap="round" stroke-linejoin="round"/>
<path d="M122.09 137.31V114.75" stroke="#263238" stroke-linecap="round" stroke-linejoin="round"/>
<path d="M147.06 137.42V154.58" stroke="#263238" stroke-linecap="round" stroke-linejoin="round"/>
<path d="M193.96 137.18V190.23" stroke="#263238" stroke-linecap="round" stroke-linejoin="round"/>
<path d="M63 154.89V172.94H194.03" stroke="#263238" stroke-linecap="round" stroke-linejoin="round"/>
<path d="M112.35 155.02V172.38" stroke="#263238" stroke-linecap="round" stroke-linejoin="round"/>
<path d="M248.19 237.63H259.82" stroke="#263238" stroke-linecap="round" stroke-linejoin="round"/>
<path d="M63.27 237.63H243.86" stroke="#263238" stroke-linecap="round" stroke-linejoin="round"/>
<path d="M63.27 251.79H259.82" stroke="#263238" stroke-linecap="round" stroke-linejoin="round"/>
<path d="M123.83 265.89H259.82" stroke="#263238" stroke-linecap="round" stroke-linejoin="round"/>
<path d="M63.27 265.89H118.84" stroke="#263238" stroke-linecap="round" stroke-linejoin="round"/>
<path d="M100.7 241.53H94.05V248.18H100.7V241.53Z" fill="#D1D1D1" stroke="#263238" stroke-linecap="round" stroke-linejoin="round"/>
<path d="M138.85 241.53H132.2V248.18H138.85V241.53Z" fill="#D1D1D1" stroke="#263238" stroke-linecap="round" stroke-linejoin="round"/>
<path d="M112.5 255.1H105.85V261.75H112.5V255.1Z" fill="#D1D1D1" stroke="#263238" stroke-linecap="round" stroke-linejoin="round"/>
<path d="M148.97 255.1H142.32V261.75H148.97V255.1Z" fill="#D1D1D1" stroke="#263238" stroke-linecap="round" stroke-linejoin="round"/>
<path d="M183.83 255.1H177.18V261.75H183.83V255.1Z" fill="#D1D1D1" stroke="#263238" stroke-linecap="round" stroke-linejoin="round"/>
<path d="M219.23 255.1H212.58V261.75H219.23V255.1Z" fill="#D1D1D1" stroke="#263238" stroke-linecap="round" stroke-linejoin="round"/>
<path d="M102.77 251.91V266.02" stroke="#263238" stroke-linecap="round" stroke-linejoin="round"/>
<path d="M138.44 251.91V266.02" stroke="#263238" stroke-linecap="round" stroke-linejoin="round"/>
<path d="M174.1 251.91V266.02" stroke="#263238" stroke-linecap="round" stroke-linejoin="round"/>
<path d="M209.76 251.91V266.02" stroke="#263238" stroke-linecap="round" stroke-linejoin="round"/>
<path d="M63.27 280.27H259.82" stroke="#263238" stroke-linecap="round" stroke-linejoin="round"/>
<path d="M88.1 269.48H81.45V276.13H88.1V269.48Z" fill="#D1D1D1" stroke="#263238" stroke-linecap="round" stroke-linejoin="round"/>
<path d="M148.97 269.48H142.32V276.13H148.97V269.48Z" fill="#D1D1D1" stroke="#263238" stroke-linecap="round" stroke-linejoin="round"/>
<path d="M183.83 269.48H177.18V276.13H183.83V269.48Z" fill="#D1D1D1" stroke="#263238" stroke-linecap="round" stroke-linejoin="round"/>
<path d="M228.75 269.48H222.1V276.13H228.75V269.48Z" fill="#D1D1D1" stroke="#263238" stroke-linecap="round" stroke-linejoin="round"/>
<path d="M78.37 266.29V280.25" stroke="#263238" stroke-linecap="round" stroke-linejoin="round"/>
<path d="M138.44 266.29V280.25" stroke="#263238" stroke-linecap="round" stroke-linejoin="round"/>
<path d="M174.1 266.29V280.25" stroke="#263238" stroke-linecap="round" stroke-linejoin="round"/>
<path d="M219.28 266.29V280.25" stroke="#263238" stroke-linecap="round" stroke-linejoin="round"/>
<path d="M142.18 50.4V52.82H136.69V63.16H134V39.28H143.49V41.7H136.67V50.4H142.18Z" fill="#263238"/>
<path d="M145.42 45.05C145.42 41.4 147.22 39.05 150.87 39.05C154.52 39.05 156.36 41.41 156.36 45.05V57.39C156.36 61.01 154.56 63.39 150.87 63.39C147.18 63.39 145.42 61 145.42 57.39V45.05ZM148 57.53C148 59.71 148.92 60.98 150.83 60.98C152.74 60.98 153.66 59.71 153.66 57.53V44.91C153.66 42.76 152.78 41.46 150.83 41.46C148.88 41.46 148 42.76 148 44.91V57.53Z" fill="#263238"/>
<path d="M164.21 39.28C167.96 39.28 169.53 41.19 169.53 44.74V46.68C169.53 49.31 168.61 50.95 166.53 51.6C168.71 52.24 169.53 54.02 169.53 56.6V60.32C169.452 61.3016 169.617 62.2872 170.01 63.19H167.32C166.94 62.2733 166.786 61.2788 166.87 60.29V56.51C166.87 53.81 165.61 52.96 163.39 52.96H161.52V63.16H158.86V39.28H164.21ZM163.53 50.54C165.64 50.54 166.9 49.86 166.9 47.26V45C166.9 42.85 166.12 41.72 164.14 41.72H161.55V50.56L163.53 50.54Z" fill="#263238"/>
<path d="M181.12 63.12H178.57L174.57 44.12V63.12H172.25V39.28H176L179.92 58.35L183.71 39.28H187.42V63.16H184.9V44L181.12 63.12Z" fill="#263238"/>
<path d="M122.83 74.85H144.49" stroke="#263238" stroke-miterlimit="10"/>
<path d="M63.74 74.85H119.18" stroke="#263238" stroke-miterlimit="10"/>
<path d="M161.59 74.85H209.33" stroke="#263238" stroke-miterlimit="10"/>
<path d="M222.3 74.85H260.02" stroke="#263238" stroke-miterlimit="10"/>
<path d="M230.94 412.55L305.16 409.5L345.69 458.76L245.6 467.48L230.94 412.55Z" fill="white" stroke="#263238" stroke-linecap="round" stroke-linejoin="round"/>
<path d="M245.93 446.47L326.16 440.88L331.45 447.54L248.16 453.87L245.93 446.47Z" stroke="#263238" stroke-width="0.5" stroke-linecap="round" stroke-linejoin="round"/>
<path d="M243.52 438.47L320.41 433.63L322.86 436.72L244.55 441.88L243.52 438.47Z" stroke="#263238" stroke-width="0.5" stroke-linecap="round" stroke-linejoin="round"/>
<path d="M241.57 432L315.73 427.73L318 430.59L242.51 435.13L241.57 432Z" stroke="#263238" stroke-width="0.5" stroke-linecap="round" stroke-linejoin="round"/>
<path d="M236.56 415.37L303.6 412.45L313.64 425.1L240.7 429.11L236.56 415.37Z" stroke="#263238" stroke-width="0.5" stroke-linecap="round" stroke-linejoin="round"/>
<path d="M239.92 426.52L311.75 422.72L313.64 425.1L240.7 429.11L239.92 426.52Z" fill="#D1D1D1" stroke="#263238" stroke-width="0.5" stroke-linecap="round" stroke-linejoin="round"/>
<path d="M289.33 443.31L286.94 439.08L322.86 436.72L326.16 440.88" stroke="#263238" stroke-width="0.5" stroke-linecap="round" stroke-linejoin="round"/>
<path d="M246.7 449.02L327.99 443.18L329.53 445.11L247.35 451.17L246.7 449.02Z" fill="#D1D1D1" stroke="#263238" stroke-width="0.5" stroke-linecap="round" stroke-linejoin="round"/>
<path d="M277.06 451.46L275.93 449.05" stroke="#263238" stroke-width="0.5" stroke-linecap="round" stroke-linejoin="round"/>
<path d="M265.26 450.46L271.09 450.03L271.71 451.44L265.84 451.89L265.26 450.46Z" fill="#D1D1D1" stroke="#263238" stroke-width="0.5" stroke-linecap="round" stroke-linejoin="round"/>
<path d="M288.02 445.99L286.71 443.61" stroke="#263238" stroke-width="0.5" stroke-linecap="round" stroke-linejoin="round"/>
<path d="M270.77 447.23L269.69 444.79" stroke="#263238" stroke-width="0.5" stroke-linecap="round" stroke-linejoin="round"/>
<path d="M309.23 437.61L312.2 441.82" stroke="#263238" stroke-width="0.5" stroke-linecap="round" stroke-linejoin="round"/>
<path d="M300.43 438.19L303.19 442.45" stroke="#263238" stroke-width="0.5" stroke-linecap="round" stroke-linejoin="round"/>
<path d="M290.67 438.81L288.82 435.68" stroke="#263238" stroke-width="0.5" stroke-linecap="round" stroke-linejoin="round"/>
<path d="M271.92 440.09L267.44 430.56" stroke="#263238" stroke-width="0.5" stroke-linecap="round" stroke-linejoin="round"/>
<path d="M320.41 433.63L318 430.59L268.81 433.55" stroke="#263238" stroke-width="0.5" stroke-linecap="round" stroke-linejoin="round"/>
<path d="M302.04 434.77L300.02 431.77" stroke="#263238" stroke-width="0.5" stroke-linecap="round" stroke-linejoin="round"/>
<path d="M309.96 420.58L239.18 424.19" stroke="#263238" stroke-width="0.5" stroke-linecap="round" stroke-linejoin="round"/>
<path d="M308.35 418.56L238.51 421.99" stroke="#263238" stroke-width="0.5" stroke-linecap="round" stroke-linejoin="round"/>
<path d="M306.8 416.6L237.87 419.86" stroke="#263238" stroke-width="0.5" stroke-linecap="round" stroke-linejoin="round"/>
<path d="M296.05 419.7L298.32 419.59L299.01 420.55L296.72 420.66L296.05 419.7Z" fill="#D1D1D1" stroke="#263238" stroke-width="0.5" stroke-linecap="round" stroke-linejoin="round"/>
<path d="M282.79 420.36L285.12 420.24L285.73 421.22L283.39 421.34L282.79 420.36Z" fill="#D1D1D1" stroke="#263238" stroke-width="0.5" stroke-linecap="round" stroke-linejoin="round"/>
<path d="M290.67 417.96L292.94 417.85L293.59 418.79L291.31 418.9L290.67 417.96Z" fill="#D1D1D1" stroke="#263238" stroke-width="0.5" stroke-linecap="round" stroke-linejoin="round"/>
<path d="M278.08 418.56L280.4 418.45L280.97 419.41L278.64 419.52L278.08 418.56Z" fill="#D1D1D1" stroke="#263238" stroke-width="0.5" stroke-linecap="round" stroke-linejoin="round"/>
<path d="M265.78 419.15L268.15 419.04L268.64 420.01L266.26 420.12L265.78 419.15Z" fill="#D1D1D1" stroke="#263238" stroke-width="0.5" stroke-linecap="round" stroke-linejoin="round"/>
<path d="M253.03 419.76L255.44 419.65L255.86 420.63L253.43 420.75L253.03 419.76Z" fill="#D1D1D1" stroke="#263238" stroke-width="0.5" stroke-linecap="round" stroke-linejoin="round"/>
<path d="M294.96 419.2L293.57 417.21" stroke="#263238" stroke-width="0.5" stroke-linecap="round" stroke-linejoin="round"/>
<path d="M282.61 419.8L281.37 417.78" stroke="#263238" stroke-width="0.5" stroke-linecap="round" stroke-linejoin="round"/>
<path d="M269.99 420.42L268.92 418.37" stroke="#263238" stroke-width="0.5" stroke-linecap="round" stroke-linejoin="round"/>
<path d="M257.09 421.06L256.19 418.97" stroke="#263238" stroke-width="0.5" stroke-linecap="round" stroke-linejoin="round"/>
<path d="M305.26 414.66L237.24 417.75" stroke="#263238" stroke-width="0.5" stroke-linecap="round" stroke-linejoin="round"/>
<path d="M297.5 415.59L299.71 415.49L300.38 416.39L298.17 416.5L297.5 415.59Z" fill="#D1D1D1" stroke="#263238" stroke-width="0.5" stroke-linecap="round" stroke-linejoin="round"/>
<path d="M276.9 416.54L279.18 416.43L279.74 417.36L277.44 417.47L276.9 416.54Z" fill="#D1D1D1" stroke="#263238" stroke-width="0.5" stroke-linecap="round" stroke-linejoin="round"/>
<path d="M264.76 417.09L267.09 416.99L267.58 417.93L265.23 418.04L264.76 417.09Z" fill="#D1D1D1" stroke="#263238" stroke-width="0.5" stroke-linecap="round" stroke-linejoin="round"/>
<path d="M248.75 417.83L251.15 417.72L251.53 418.68L249.12 418.79L248.75 417.83Z" fill="#D1D1D1" stroke="#263238" stroke-width="0.5" stroke-linecap="round" stroke-linejoin="round"/>
<path d="M301.74 416.78L300.31 414.88" stroke="#263238" stroke-width="0.5" stroke-linecap="round" stroke-linejoin="round"/>
<path d="M281.35 417.75L280.17 415.8" stroke="#263238" stroke-width="0.5" stroke-linecap="round" stroke-linejoin="round"/>
<path d="M268.9 418.33L267.87 416.36" stroke="#263238" stroke-width="0.5" stroke-linecap="round" stroke-linejoin="round"/>
<path d="M252.74 419.1L251.92 417.09" stroke="#263238" stroke-width="0.5" stroke-linecap="round" stroke-linejoin="round"/>
<path d="M303.33 456.6L303 456.05L305.36 455.86L303.94 453.55L305.07 453.46L308.42 458.88L304.29 459.23L303.96 458.66L306.96 458.41L305.73 456.41L303.33 456.6Z" fill="#263238"/>
<path d="M302.66 458C303.17 458.85 302.66 459.47 301.1 459.61C299.54 459.75 298.36 459.26 297.88 458.4L296.28 455.56C295.82 454.75 296.28 454.15 297.87 454.03C299.46 453.91 300.52 454.37 300.99 455.18L302.66 458ZM299.85 455.24C299.669 454.976 299.414 454.771 299.117 454.652C298.819 454.533 298.493 454.504 298.18 454.57C297.35 454.63 297.13 454.95 297.41 455.44L299.06 458.33C299.24 458.607 299.5 458.823 299.805 458.949C300.11 459.076 300.447 459.108 300.77 459.04C301.6 458.97 301.83 458.63 301.54 458.13L299.85 455.24Z" fill="#263238"/>
<path d="M295.17 460C293.5 460.14 292.56 459.74 292.12 458.9L291.87 458.45C291.55 457.84 291.75 457.45 292.57 457.2C292.188 457.224 291.806 457.144 291.466 456.968C291.126 456.791 290.841 456.526 290.64 456.2L290.19 455.36C290.077 455.098 289.885 454.878 289.64 454.73L290.81 454.63C291.048 454.787 291.235 455.009 291.35 455.27L291.81 456.12C292.15 456.74 292.81 456.89 293.81 456.81L294.63 456.75L293.36 454.44L294.5 454.34L297.57 459.84L295.17 460ZM294 457.33C293.08 457.41 292.61 457.61 292.93 458.22L293.22 458.75C293.49 459.26 293.98 459.49 294.86 459.42L296.01 459.33L294.87 457.26L294 457.33Z" fill="#263238"/>
<path d="M284.82 455.08L285.94 454.99L289.94 459.24L287.66 454.84L288.66 454.76L291.56 460.3L289.9 460.44L285.9 456.12L286.45 460.74L284.77 460.88L282.06 455.29L283.16 455.2L285.36 459.66L284.82 455.08Z" fill="#263238"/>
<path d="M332.08 448.72L299.11 451.26" stroke="#263238" stroke-width="0.5" stroke-miterlimit="10"/>
<path d="M291.88 451.82L271.2 453.41" stroke="#263238" stroke-width="0.5" stroke-miterlimit="10"/>
<path d="M265.45 453.86L248.41 455.17" stroke="#263238" stroke-width="0.5" stroke-miterlimit="10"/>
<path d="M300 255.33C292.904 257.43 285.991 260.106 279.33 263.33C268.33 268.67 246.67 276.67 236.33 280.67C225.99 284.67 219.67 295 217.67 300C215.67 305 207 326.33 207 326.33C207 326.33 188.67 355 184 362C179.33 369 173 378.67 172.67 387.67C172.34 396.67 177.33 401.67 189 401.67C200.67 401.67 205.67 397.67 211.33 391.67C216.99 385.67 235.33 356.33 238 353C240.67 349.67 248 337 248 337C248 337 251.67 370 251.67 380.33V404.67H356.67C356.67 404.67 361.67 368 362.67 365C363.67 362 371.33 340.33 371.33 340.33C371.33 340.33 399 385 403.62 391C408.24 397 421.43 409.64 434.35 404.58C447.27 399.52 444.62 385.66 437.62 369C430.62 352.34 418.33 324 418.33 322.65C418.33 321.3 413.33 301.65 393 286.31C372.67 270.97 352.67 267.31 348 264.98C343.33 262.65 328.33 255.33 300 255.33Z" fill="#1890FF" stroke="#263238" stroke-linecap="round" stroke-linejoin="round"/>
<path d="M234.67 315.33L247.67 335.67C247.67 335.67 237 324.67 230.33 323" stroke="#263238" stroke-linecap="round" stroke-linejoin="round"/>
<path d="M247.67 335.67L240 333C240 333 233 329 227.33 330.67" stroke="#263238" stroke-linecap="round" stroke-linejoin="round"/>
<path d="M287.54 287C288.29 292.49 290.02 299.31 294 304" stroke="#263238" stroke-linecap="round" stroke-linejoin="round"/>
<path d="M287 278C287 278 286.93 279.91 287.11 282.79" stroke="#263238" stroke-linecap="round" stroke-linejoin="round"/>
<path d="M290.65 308C291.589 308.959 292.591 309.855 293.65 310.68" stroke="#263238" stroke-linecap="round" stroke-linejoin="round"/>
<path d="M281.33 293C283.15 297.935 285.836 302.507 289.26 306.5" stroke="#263238" stroke-linecap="round" stroke-linejoin="round"/>
<path d="M347.17 367.48C344.9 371.17 342.75 374.15 341 375.67" stroke="#263238" stroke-linecap="round" stroke-linejoin="round"/>
<path d="M364 334.33C364 334.33 356.25 351.85 349 364.33" stroke="#263238" stroke-linecap="round" stroke-linejoin="round"/>
<path d="M329.92 378.45C328.92 379.66 328.15 380.67 327.67 381.33" stroke="#263238" stroke-linecap="round" stroke-linejoin="round"/>
<path d="M342.67 363.33C342.67 363.33 336.53 370.47 332 376" stroke="#263238" stroke-linecap="round" stroke-linejoin="round"/>
<path d="M371.33 340.33C371.33 340.33 386 317 386.67 315" stroke="#263238" stroke-linecap="round" stroke-linejoin="round"/>
<path d="M382.55 331.34C386.91 327.81 393.46 323.34 400 322" stroke="#263238" stroke-linecap="round" stroke-linejoin="round"/>
<path d="M377.33 336C377.33 336 378.52 334.77 380.52 333" stroke="#263238" stroke-linecap="round" stroke-linejoin="round"/>
<path d="M395.67 318.33C391.453 320.529 387.437 323.096 383.67 326" stroke="#263238" stroke-linecap="round" stroke-linejoin="round"/>
<path d="M401.67 367.67C404.515 366.319 407.653 365.703 410.797 365.877C413.942 366.052 416.992 367.012 419.67 368.67" stroke="#263238" stroke-linecap="round" stroke-linejoin="round"/>
<path d="M404.67 363.33C404.67 363.33 416.33 361 425 366.33" stroke="#263238" stroke-linecap="round" stroke-linejoin="round"/>
<path d="M186 367.33C188.01 365.508 190.394 364.147 192.985 363.342C195.576 362.537 198.311 362.308 201 362.67" stroke="#263238" stroke-linecap="round" stroke-linejoin="round"/>
<path d="M206.64 363.45C207.459 364.035 208.247 364.662 209 365.33" stroke="#263238" stroke-linecap="round" stroke-linejoin="round"/>
<path d="M197.67 359.67C199.58 359.908 201.432 360.484 203.14 361.37" stroke="#263238" stroke-linecap="round" stroke-linejoin="round"/>
<path d="M297.67 264C297.67 264 294.67 276.67 295.67 286C296.67 295.33 307 309.67 315.67 313C324.34 316.33 340.33 306.67 346 301C351.67 295.33 352 277.33 352 277.33C352 277.33 343.36 258.67 325 253.33C306.64 247.99 297.67 264 297.67 264Z" fill="#80584E" stroke="#263238" stroke-linecap="round" stroke-linejoin="round"/>
<path d="M366.6 261.39C366.6 261.39 368.34 266.6 364.99 273.19C361.64 279.78 355.17 285.35 353.43 284.78C351.69 284.21 358.84 260.36 358.84 260.36C358.84 260.36 363.59 257.69 366.6 261.39Z" fill="#80584E" stroke="#263238" stroke-linecap="round" stroke-linejoin="round"/>
<path d="M293.06 242.35C293.06 242.35 289.77 246.74 290.86 254.06C291.95 261.38 296.35 268.69 298.18 268.69C300.01 268.69 300.74 243.82 300.74 243.82C300.74 243.82 297.08 239.79 293.06 242.35Z" fill="#80584E" stroke="#263238" stroke-linecap="round" stroke-linejoin="round"/>
<path d="M298.55 251.86C298.55 251.86 295.99 274.18 298.91 283.33C301.83 292.48 307.69 306.74 316.84 310.4C325.99 314.06 346.84 298.33 350.13 292.11C353.42 285.89 362.57 259.55 362.57 259.55C364.976 256.347 366.539 252.591 367.116 248.626C367.692 244.662 367.264 240.616 365.87 236.86C361.11 223.69 335.5 215.64 324.87 216.01C314.24 216.38 303.65 225.16 302.92 232.11C302.19 239.06 298.55 251.86 298.55 251.86Z" fill="#80584E" stroke="#263238" stroke-linecap="round" stroke-linejoin="round"/>
<path d="M322.33 265.4C322.33 265.4 314.28 255.52 306.96 258.82" stroke="#263238" stroke-width="2" stroke-linecap="round" stroke-linejoin="round"/>
<path d="M335.13 269.79C335.13 269.79 346.13 267.23 351.23 271.99" stroke="#263238" stroke-width="2" stroke-linecap="round" stroke-linejoin="round"/>
<path d="M308.06 267.6C308.06 267.6 310.41 274.6 319.95 273.79" stroke="#263238" stroke-linecap="round" stroke-linejoin="round"/>
<path d="M334.4 277.47C334.4 277.47 336.6 282.23 346.84 280.4" stroke="#263238" stroke-linecap="round" stroke-linejoin="round"/>
<path d="M316.37 284.13C316.046 285.612 316.259 287.16 316.97 288.5C318.16 290.29 321.14 292.87 323.33 292.87C325.52 292.87 330.09 292.08 331.28 290.87C332.044 290.086 332.715 289.217 333.28 288.28" stroke="#263238" stroke-linecap="round" stroke-linejoin="round"/>
<path d="M311.4 290.69C311.4 290.69 316.4 296.45 320.55 297.84C324.7 299.23 332.47 296.84 334.66 296.05" stroke="#263238" stroke-linecap="round" stroke-linejoin="round"/>
<path d="M383.86 226.68C383.52 224.28 385.23 220.85 385.57 218.8C385.91 216.75 383.17 212.97 380.78 209.89C378.932 207.424 377.964 204.411 378.03 201.33C378.03 199.27 375.64 197.56 373.58 196.19C371.075 194.523 368.776 192.566 366.73 190.36C365.36 188.65 359.54 188.99 358.51 188.99C357.48 188.99 353.03 185.23 350.29 183.86C347.55 182.49 342.07 184.86 342.07 184.86C342.07 184.86 335.56 181.78 334.19 181.78C332.82 181.78 326.99 184.18 326.99 184.18C325.06 185.008 323.049 185.634 320.99 186.05C320.617 185.953 320.235 185.889 319.85 185.86C319.08 184.86 312.23 188.97 312.23 188.97L306.07 189.97L303.78 193.68C301.59 193.92 296.46 194.74 296.1 197.25C295.64 200.45 296.1 201.82 294.73 203.64C293.36 205.46 288.34 205.01 289.73 209.12C291.12 213.23 294.29 216.43 290.18 218.72C286.07 221.01 283.79 225.11 286.07 227.39C288.35 229.67 290.18 232.87 289.73 234.7C289.28 236.53 288.81 240.64 290.64 241.55C292.252 242.484 293.781 243.554 295.21 244.75L297.49 249.75L298.86 252.95C298.86 252.95 301.14 245.64 302.97 244.73C304.8 243.82 302.97 247.93 306.63 247.93C310.29 247.93 313.93 230.57 316.63 230.11C319.33 229.65 327.63 245.19 335.82 245.19C344.01 245.19 354.13 238 358.25 238C362.37 238 359.16 255.35 359.16 259C359.16 262.65 360.07 266.3 360.07 267.68C360.07 269.06 364.64 261.28 367.84 259.45C368.72 258.95 369.78 258.34 370.89 257.64C370.89 257.8 370.84 257.89 370.84 257.89C370.84 257.89 382.15 250.69 383.52 248.3C384.89 245.91 383.86 243.84 383.86 241.79C383.86 239.74 385.23 238.02 385.57 234.94C385.91 231.86 384.2 229.07 383.86 226.68Z" fill="#263238" stroke="#263238" stroke-linecap="round" stroke-linejoin="round"/>
<path d="M467.59 404.59H27" stroke="#263238" stroke-linecap="round" stroke-linejoin="round"/>
<path d="M419.69 375.44C419.69 375.44 407.2 370.85 398.22 374.44C389.24 378.03 368.16 386.56 353.81 389.25C340.346 391.635 326.661 392.537 313 391.94C300.88 391.49 294.15 393.29 291.46 395.53C288.77 397.77 278.9 410.33 279.79 411.68C280.68 413.03 281.68 413.54 286.08 412.58C287.83 412.19 292.81 406.75 292.81 406.75L301.81 402.75C301.81 402.75 292.39 413.07 293.73 414.41C295.07 415.75 297.32 413.96 299.12 412.62C300.92 411.28 304.5 408.13 304.5 408.13L312.58 404.54C312.58 404.54 304 410.33 304 413C304 415.67 306.09 414.1 309.65 412.68C311.338 411.615 312.945 410.429 314.46 409.13L321.21 407.23C325.569 409.503 330.424 410.658 335.34 410.59C340.479 410.568 345.441 408.718 349.34 405.37C349.34 405.37 380.75 409.86 396.45 408.51C412.15 407.16 431.89 408.96 439.97 403.13C448.05 397.3 437.73 382.04 436.83 380.69" fill="#80584E"/>
<path d="M419.69 375.44C419.69 375.44 407.2 370.85 398.22 374.44C389.24 378.03 368.16 386.56 353.81 389.25C340.346 391.635 326.661 392.537 313 391.94C300.88 391.49 294.15 393.29 291.46 395.53C288.77 397.77 278.9 410.33 279.79 411.68C280.68 413.03 281.68 413.54 286.08 412.58C287.83 412.19 292.81 406.75 292.81 406.75L301.81 402.75C301.81 402.75 292.39 413.07 293.73 414.41C295.07 415.75 297.32 413.96 299.12 412.62C300.92 411.28 304.5 408.13 304.5 408.13L312.58 404.54C312.58 404.54 304 410.33 304 413C304 415.67 306.09 414.1 309.65 412.68C311.338 411.615 312.945 410.429 314.46 409.13L321.21 407.23C325.569 409.503 330.424 410.658 335.34 410.59C340.479 410.568 345.441 408.718 349.34 405.37C349.34 405.37 380.75 409.86 396.45 408.51C412.15 407.16 431.89 408.96 439.97 403.13C448.05 397.3 437.73 382.04 436.83 380.69" stroke="#263238" stroke-linecap="round" stroke-linejoin="round"/>
<path d="M281.87 412.92C281.87 412.92 283.54 408.11 285.21 406.02C286.88 403.93 294.61 398.92 297.33 397.46C298.408 396.836 299.524 396.278 300.67 395.79" stroke="#263238" stroke-linecap="round" stroke-linejoin="round"/>
<path d="M301.76 402.71L309.65 397.46" stroke="#263238" stroke-linecap="round" stroke-linejoin="round"/>
<path d="M312.53 404.5L319.89 400.8" stroke="#263238" stroke-linecap="round" stroke-linejoin="round"/>
<path d="M419.69 375.44C413.02 373.85 403.6 372.29 398.22 374.44C390.22 377.63 372.74 384.7 358.87 388.13C360.835 390.292 361.972 393.08 362.08 396C362.237 399.66 361.736 403.318 360.6 406.8C371.17 407.99 386.77 409.37 396.43 408.54C412.13 407.19 431.87 408.99 439.95 403.16C448.03 397.33 437.71 382.07 436.81 380.72" fill="#1890FF"/>
<path d="M419.69 375.44C413.02 373.85 403.6 372.29 398.22 374.44C390.22 377.63 372.74 384.7 358.87 388.13C360.835 390.292 361.972 393.08 362.08 396C362.237 399.66 361.736 403.318 360.6 406.8C371.17 407.99 386.77 409.37 396.43 408.54C412.13 407.19 431.87 408.99 439.95 403.16C448.03 397.33 437.71 382.07 436.81 380.72" stroke="#263238" stroke-linecap="round" stroke-linejoin="round"/>
<path d="M182.8 374.09C183.64 371.82 189.8 366.39 198.09 367.84C206.38 369.29 215.79 378.5 221.17 385.58C226.55 392.66 230.84 394.58 230.84 394.58L224.5 413.95C224.5 413.95 220.6 413.01 213.28 411.15C205.96 409.29 189.58 406.87 182.05 404.53C174.52 402.19 171.31 394.09 172.95 386.53C173.786 382.328 175.218 378.268 177.2 374.47" fill="#1890FF"/>
<path d="M182.8 374.09C183.64 371.82 189.8 366.39 198.09 367.84C206.38 369.29 215.79 378.5 221.17 385.58C226.55 392.66 230.84 394.58 230.84 394.58L224.5 413.95C224.5 413.95 220.6 413.01 213.28 411.15C205.96 409.29 189.58 406.87 182.05 404.53C174.52 402.19 171.31 394.09 172.95 386.53C173.786 382.328 175.218 378.268 177.2 374.47" stroke="#263238" stroke-linecap="round" stroke-linejoin="round"/>
<path d="M221.17 385.58C220.6 384.84 219.99 384.08 219.35 383.3C214.66 385.17 208.71 388.62 205.56 394.7C202.41 400.78 202.39 405.8 203 409C207 409.76 210.69 410.48 213.26 411.13C220.58 412.99 224.48 413.93 224.48 413.93L230.82 394.56C230.82 394.56 226.54 392.67 221.17 385.58Z" fill="#80584E" stroke="#263238" stroke-linecap="round" stroke-linejoin="round"/>
<path d="M218.58 404.5C218.16 407.5 217.24 410.93 221.58 412.83C225.92 414.73 230.24 419.42 232.97 420.52C236.272 421.785 239.724 422.619 243.24 423C246.02 423.18 249.45 424.09 254.9 422.57C260.35 421.05 260.2 419.65 260.2 419.65C260.2 419.65 263.6 419.78 265.28 418.95C266.96 418.12 265.78 416.04 263.74 415.22C261.7 414.4 259.2 413.3 259.2 413.3C259.2 413.3 262.3 410.44 261.52 409.73L260.75 409.02C260.75 409.02 264.33 409.44 264.64 408.3C264.95 407.16 262.7 402.12 261.8 397.88C260.9 393.64 259.01 394.21 255.56 393.53C252.11 392.85 247.41 393.72 241.21 392.4C235.01 391.08 226.03 393.3 222.48 394.24" fill="#80584E"/>
<path d="M218.58 404.5C218.16 407.5 217.24 410.93 221.58 412.83C225.92 414.73 230.24 419.42 232.97 420.52C236.272 421.785 239.724 422.619 243.24 423C246.02 423.18 249.45 424.09 254.9 422.57C260.35 421.05 260.2 419.65 260.2 419.65C260.2 419.65 263.6 419.78 265.28 418.95C266.96 418.12 265.78 416.04 263.74 415.22C261.7 414.4 259.2 413.3 259.2 413.3C259.2 413.3 262.3 410.44 261.52 409.73L260.75 409.02C260.75 409.02 264.33 409.44 264.64 408.3C264.95 407.16 262.7 402.12 261.8 397.88C260.9 393.64 259.01 394.21 255.56 393.53C252.11 392.85 247.41 393.72 241.21 392.4C235.01 391.08 226.03 393.3 222.48 394.24" stroke="#263238" stroke-linecap="round" stroke-linejoin="round"/>
<path d="M242.79 375.65L248.45 395.65L252.97 397.8L246.27 374.64C246.2 374.394 246.078 374.166 245.913 373.971C245.748 373.776 245.543 373.618 245.312 373.509C245.081 373.399 244.83 373.34 244.574 373.335C244.319 373.33 244.065 373.379 243.83 373.48V373.48C243.421 373.651 243.089 373.967 242.897 374.367C242.705 374.767 242.667 375.224 242.79 375.65V375.65Z" fill="#263238"/>
<path d="M246 394.12C246 394.12 255.9 399.4 256.58 399.67C257.05 399.86 261.46 407.23 262.86 410.77C263.51 412.39 262.78 413.32 261.26 414.16L259.21 413.33L246.9 405.58L242.39 403.43" fill="#80584E"/>
<path d="M246 394.12C246 394.12 255.9 399.4 256.58 399.67C257.05 399.86 261.46 407.23 262.86 410.77C263.51 412.39 262.78 413.32 261.26 414.16L259.21 413.33L246.9 405.58L242.39 403.43" stroke="#263238" stroke-linecap="round" stroke-linejoin="round"/>
<path d="M239.09 411.37C239.09 411.37 248.73 417.1 250.76 418.15C252.79 419.2 260.2 419.68 260.2 419.68" stroke="#263238" stroke-linecap="round" stroke-linejoin="round"/>
<path d="M235.48 417C235.48 417 243.57 421.46 245.16 422C246.75 422.54 250.16 423.48 250.16 423.48" stroke="#263238" stroke-linecap="round" stroke-linejoin="round"/>
<path d="M172.84 454.17L209.76 420.21L128.42 414.96L172.84 454.17Z" fill="#CCCCCC" stroke="#263238" stroke-linecap="round" stroke-linejoin="round"/>
<path d="M171.28 447.33L187.9 431.58L168.65 430.42L171.28 447.33Z" fill="#263238" stroke="#263238" stroke-linecap="round" stroke-linejoin="round"/>
<path d="M58.08 358.8L179.85 364.19L172.84 454.17L50 448.24L58.08 358.8Z" fill="#A6A6A6" stroke="#263238" stroke-linecap="round" stroke-linejoin="round"/>
<path d="M50.54 442.25C57.74 441.19 69.89 438.36 90.41 431.72C139.26 415.91 145.41 371.72 179.85 364.19L58.08 358.8L50.54 442.25Z" fill="#263238" stroke="#263238" stroke-linecap="round" stroke-linejoin="round"/>
<path d="M114.12 411.6C119.278 411.6 123.46 408.385 123.46 404.42C123.46 400.455 119.278 397.24 114.12 397.24C108.962 397.24 104.78 400.455 104.78 404.42C104.78 408.385 108.962 411.6 114.12 411.6Z" fill="white" stroke="#263238" stroke-linecap="round" stroke-linejoin="round"/>
</svg>
